{"glyphs":{"0":{"ha":991,"x_min":14,"x_max":962,"o":"m 480 -38 q 341 -23 404 -38 q 232 16 278 -9 q 150 80 186 41 q 91 162 115 119 q 52 263 68 206 q 27 375 35 319 q 14 499 18 431 q 488 1051 14 1014 q 638 1033 570 1051 q 755 983 707 1014 q 840 906 803 951 q 900 812 878 861 q 937 706 922 764 q 956 597 951 649 q 962 488 962 545 q 925 258 962 359 q 822 93 888 157 q 670 -5 757 28 q 480 -38 583 -38 m 377 472 q 378 425 377 446 q 381 375 378 405 q 387 324 383 346 q 399 278 391 302 q 418 239 407 254 q 445 213 429 223 q 483 203 462 203 q 525 214 507 203 q 556 238 544 224 q 576 277 568 252 q 588 322 584 302 q 594 373 592 341 q 596 420 596 404 q 597 466 597 437 q 597 475 597 472 q 600 547 600 498 q 600 574 600 550 q 600 612 600 597 q 598 654 600 627 q 593 699 596 681 q 582 739 589 716 q 563 774 574 761 q 535 797 552 787 q 496 806 518 806 q 464 801 479 806 q 438 785 449 796 q 418 762 427 774 q 403 731 409 751 q 392 696 397 711 q 385 655 387 681 q 380 614 382 630 q 378 569 378 598 q 377 527 377 541 q 377 485 377 513 q 377 472 377 476 z "},"1":{"ha":1070,"x_min":133,"x_max":760,"o":"m 133 651 q 133 673 133 659 q 139 808 133 784 q 168 846 145 831 q 193 859 175 850 l 228 878 q 289 905 257 890 q 371 955 321 921 q 439 1020 420 989 q 684 1017 602 1017 q 736 1020 719 1017 q 745 1017 742 1019 q 749 1006 748 1014 q 751 992 751 999 q 751 970 751 985 l 751 608 q 755 306 751 507 q 760 3 760 104 q 662 -22 756 -22 q 625 -21 648 -22 q 594 -20 602 -20 q 541 -21 575 -20 q 490 -22 506 -22 q 363 -19 448 -22 l 346 4 q 339 33 339 11 q 342 331 339 136 l 342 627 q 156 534 242 561 q 139 538 144 534 q 133 553 134 543 l 133 651 z "},"2":{"ha":989,"x_min":41,"x_max":959,"o":"m 949 730 q 933 623 949 672 q 891 538 916 573 q 827 468 865 504 q 753 406 789 432 q 671 343 717 380 q 593 274 625 307 q 734 277 639 274 q 879 279 829 279 q 942 248 926 279 q 959 157 959 216 q 957 95 959 139 q 955 28 955 52 l 955 16 q 954 1 955 6 q 946 -9 952 -5 q 928 -16 940 -14 l 879 -16 q 659 -11 827 -15 q 66 -22 388 -11 l 66 -8 q 50 16 56 -2 q 43 57 43 35 l 43 255 q 90 301 43 271 q 357 484 276 427 l 399 517 q 545 720 545 631 q 529 765 545 749 q 484 781 512 781 q 447 771 460 781 q 428 745 433 760 q 419 714 422 730 q 411 686 416 699 q 393 670 405 673 l 79 670 q 41 690 41 670 q 87 858 51 788 q 185 969 124 928 q 323 1028 246 1010 q 498 1047 399 1047 q 633 1036 569 1047 q 756 1000 698 1025 q 857 939 814 975 q 924 849 899 903 q 949 730 949 795 z "},"3":{"ha":986,"x_min":11,"x_max":941,"o":"m 469 -39 q 292 -22 370 -39 q 151 34 214 -5 q 52 140 87 72 q 11 304 16 208 q 33 326 11 326 l 355 326 q 373 323 368 326 q 380 311 379 320 l 380 309 q 404 243 385 266 q 463 220 422 220 q 519 241 498 220 q 540 296 540 262 q 531 342 540 323 q 509 372 522 361 q 475 388 496 382 q 439 395 455 393 q 400 396 422 396 l 370 396 q 334 412 344 396 q 324 460 324 427 l 324 503 q 332 586 324 559 q 361 613 339 613 l 415 613 q 499 635 469 613 q 529 719 529 657 q 512 768 529 749 q 467 788 495 788 q 401 738 412 788 l 401 711 q 372 673 395 682 q 115 678 229 673 q 98 677 110 678 q 80 677 86 677 q 27 703 27 677 q 43 824 37 799 q 125 953 62 903 q 168 982 144 968 q 325 1035 237 1023 q 526 1047 412 1047 q 630 1036 577 1047 q 735 1002 683 1025 q 828 945 787 978 q 893 862 868 911 q 918 754 918 812 q 904 663 918 702 q 864 600 890 624 q 810 561 838 575 q 746 534 783 546 q 896 444 851 502 q 941 298 941 387 q 923 185 941 236 q 876 99 905 134 q 805 39 847 64 q 722 -2 764 13 q 632 -25 681 -16 q 546 -37 583 -34 q 469 -39 509 -39 z "},"4":{"ha":971,"x_min":-5,"x_max":972,"o":"m -5 168 l -5 372 q 0 411 -5 389 q 10 448 5 433 q 28 489 16 464 q 47 525 41 515 q 69 563 53 535 q 87 593 85 590 q 212 798 125 654 q 345 1015 298 942 l 854 1015 l 854 971 q 852 783 854 908 q 849 595 849 659 l 849 564 q 850 532 849 543 l 850 526 q 849 505 850 511 l 849 480 q 879 430 849 430 q 907 431 888 430 q 936 431 927 431 q 965 424 958 431 q 971 391 971 417 q 968 388 971 388 q 969 359 968 385 q 971 297 970 334 q 972 228 972 260 q 968 162 972 180 q 949 144 964 144 l 854 144 q 857 22 857 60 q 856 0 857 7 q 849 -12 855 -6 q 830 -19 843 -18 l 699 -19 q 479 -23 536 -19 l 456 5 l 456 153 l 38 153 q 27 153 34 153 q 18 152 21 152 q 9 154 14 153 q 1 158 5 155 q -5 168 -2 162 m 275 426 l 275 408 q 283 398 276 404 q 292 391 290 392 q 388 393 322 391 q 484 395 454 395 q 505 419 498 401 l 505 445 q 503 469 503 452 l 503 486 q 504 528 504 501 q 505 579 505 554 q 477 773 505 773 l 477 762 q 378 597 448 710 q 275 426 308 485 z "},"5":{"ha":996,"x_min":46,"x_max":944,"o":"m 46 271 q 67 291 46 286 q 127 296 87 296 l 239 296 q 327 294 269 296 q 418 292 385 292 q 435 279 429 290 q 443 254 441 267 q 454 231 445 241 q 480 220 463 220 q 548 334 548 220 q 546 376 548 358 q 538 414 544 394 q 518 444 532 433 q 483 454 504 454 q 447 442 458 454 q 435 415 436 430 q 428 388 435 400 q 404 376 421 376 l 103 376 q 83 458 83 405 l 83 964 q 83 990 83 981 q 88 1010 84 998 q 99 1029 92 1021 l 845 1029 q 872 1023 859 1029 q 887 1006 884 1017 l 887 875 q 887 861 887 870 q 883 773 887 787 q 859 758 880 758 q 430 755 712 758 q 425 694 428 735 q 420 632 422 652 q 507 670 454 656 q 612 684 560 684 q 853 592 762 684 q 944 355 944 500 q 917 201 944 270 q 846 89 890 133 q 742 15 802 45 q 619 -27 682 -14 q 488 -39 556 -39 q 403 -36 443 -39 q 320 -24 363 -33 q 241 0 277 -15 q 171 38 205 14 q 112 94 136 62 q 69 171 87 125 q 46 271 52 216 z "},"6":{"ha":987,"x_min":30,"x_max":958,"o":"m 534 -35 q 156 105 281 -35 q 30 510 30 246 q 89 793 30 671 q 259 984 147 915 q 524 1055 372 1053 q 685 1038 616 1055 q 795 994 754 1021 q 863 926 837 967 q 900 846 890 886 q 914 758 911 807 q 867 739 914 746 q 749 730 821 732 q 643 729 677 729 q 585 730 608 729 q 557 741 557 730 l 557 776 q 525 788 551 788 q 415 610 415 788 l 415 600 q 610 671 476 671 q 859 580 760 671 q 958 347 958 488 q 932 202 958 267 q 865 95 907 138 q 768 23 824 53 q 654 -19 712 -6 q 534 -35 596 -33 m 404 316 q 432 220 404 260 q 513 179 460 179 q 571 193 547 179 q 607 231 595 207 q 624 279 619 254 q 629 332 629 304 q 601 434 626 399 q 518 469 576 469 q 460 457 484 469 q 425 422 437 445 q 409 374 414 399 q 404 316 404 349 z "},"7":{"ha":991,"x_min":46,"x_max":932,"o":"m 46 982 q 73 1036 46 1036 q 490 1031 167 1037 l 903 1031 q 932 924 932 1031 q 924 739 930 783 q 887 640 918 694 q 742 382 800 486 q 545 -3 666 242 q 538 -16 542 -12 q 524 -20 534 -20 q 458 -20 502 -20 q 393 -19 415 -19 l 293 -19 q 122 5 122 -19 q 127 30 122 17 q 289 350 186 141 q 420 613 393 558 l 477 726 q 247 723 324 726 l 91 723 q 67 728 77 723 q 46 754 58 734 l 46 982 z "},"8":{"ha":983,"x_min":19,"x_max":955,"o":"m 480 1050 q 617 1038 553 1050 q 739 1001 682 1027 q 838 938 796 975 q 903 845 879 900 q 926 723 926 790 q 787 518 926 568 q 852 479 825 499 q 905 429 880 458 q 942 359 929 399 q 955 269 955 319 q 833 41 955 120 q 467 -38 711 -38 q 329 -28 391 -38 q 223 -3 267 -19 q 145 37 179 13 q 89 86 111 61 q 53 144 68 111 q 31 205 38 176 q 19 269 24 234 q 61 414 24 354 q 179 511 98 473 q 50 724 50 570 q 77 852 50 795 q 147 945 104 909 q 247 1005 190 981 q 362 1040 304 1029 q 480 1050 420 1050 m 378 298 q 412 216 384 247 q 488 184 440 184 q 566 215 538 184 q 594 293 594 245 q 487 420 594 420 q 409 385 439 420 q 378 298 378 349 m 396 711 q 490 602 396 602 q 557 634 535 602 q 579 713 579 666 q 484 822 579 822 q 419 787 441 822 q 396 711 396 751 z "},"9":{"ha":987,"x_min":28,"x_max":955,"o":"m 426 263 q 430 246 428 252 q 437 233 432 240 q 451 224 442 227 q 475 221 460 221 q 507 228 493 221 q 531 244 522 235 q 548 270 541 253 q 558 300 555 288 q 565 334 562 312 q 569 367 568 357 q 571 399 570 377 q 401 355 498 355 q 294 366 346 355 q 193 401 241 377 q 108 461 144 426 q 50 550 72 496 q 28 667 28 603 q 55 810 28 746 q 127 918 82 875 q 231 989 172 960 q 354 1031 291 1019 q 483 1044 417 1044 q 682 1006 593 1044 q 831 900 772 968 q 923 738 890 832 q 955 530 955 643 q 850 130 955 275 q 760 40 814 77 q 643 -15 705 3 q 526 -39 580 -33 q 415 -46 472 -46 q 168 35 262 -46 q 95 134 119 73 q 71 264 71 196 l 95 294 l 401 294 q 419 285 413 294 q 426 263 426 275 m 353 670 q 386 573 358 607 q 469 540 413 540 q 578 675 578 540 q 573 730 578 706 q 558 775 569 753 q 524 810 547 798 q 469 822 502 822 q 414 809 437 822 q 377 773 390 795 q 358 725 364 750 q 353 670 353 699 z "}," ":{"ha":418,"x_min":0,"x_max":0,"o":""},"!":{"ha":537,"x_min":61,"x_max":479,"o":"m 61 991 q 176 1015 61 1015 l 258 1015 q 418 1023 358 1023 q 479 996 479 1023 l 430 378 q 422 366 429 371 q 404 358 416 361 q 379 355 392 356 q 350 354 366 354 q 323 355 341 354 q 297 355 306 355 q 243 354 279 355 q 190 353 208 353 l 132 353 q 118 361 124 355 q 109 375 113 366 q 104 391 106 383 q 101 411 102 399 q 100 431 100 423 q 100 452 100 439 l 61 991 m 82 0 l 76 103 q 83 199 76 157 q 100 241 90 241 l 233 241 q 346 240 304 241 q 410 236 388 239 q 438 229 432 233 q 445 217 445 224 l 445 3 q 426 -9 444 -4 q 380 -16 409 -14 q 319 -21 351 -19 q 250 -22 288 -22 q 185 -22 212 -22 q 131 -22 158 -22 q 99 -22 103 -22 l 99 -11 q 90 -5 97 -9 q 82 0 83 -2 z "},"\"":{"ha":871,"x_min":122,"x_max":765,"o":"m 258 1023 q 307 1025 285 1025 q 407 1001 407 1025 l 407 994 q 415 610 415 745 q 405 577 415 584 q 363 571 395 571 l 122 571 l 122 977 q 129 1007 122 993 q 145 1024 136 1021 q 202 1023 164 1024 q 258 1023 239 1023 m 475 625 l 475 979 q 481 1011 475 996 q 498 1025 488 1025 l 757 1025 l 757 1004 q 765 608 765 842 q 762 584 765 592 q 749 576 759 576 l 670 576 q 580 573 638 576 q 496 568 522 569 l 496 581 q 490 589 494 583 q 482 599 485 595 q 477 610 479 603 q 475 625 475 617 z "},"#":{"ha":1050,"x_min":152,"x_max":887,"o":"m 152 298 q 153 358 152 313 q 153 429 153 403 q 165 448 153 444 q 201 453 178 453 l 279 453 l 279 551 q 260 551 267 551 q 241 551 253 551 q 223 554 229 552 q 209 558 216 555 q 199 565 202 560 q 195 575 195 569 q 197 652 195 600 q 198 731 198 704 q 275 755 198 755 q 304 754 288 755 q 322 753 321 753 l 354 981 q 357 999 355 992 q 366 1011 359 1006 q 377 1018 372 1016 q 398 1022 383 1021 q 425 1024 412 1023 q 461 1024 437 1024 l 507 1024 q 544 1020 531 1024 q 560 1004 556 1016 q 542 876 553 961 q 524 747 531 790 l 590 747 l 590 849 q 609 955 595 904 q 635 1019 623 1006 l 798 1019 q 811 1018 807 1019 q 818 1014 814 1017 q 821 1002 821 1010 l 788 749 l 871 749 q 887 700 887 747 l 887 583 q 811 555 887 555 q 790 555 801 555 q 772 557 779 556 q 764 557 765 557 q 757 504 761 539 q 750 450 753 469 l 850 450 l 850 271 q 836 256 848 256 q 783 258 818 256 q 728 259 747 259 l 713 136 q 713 103 713 127 q 710 61 713 79 q 702 23 708 43 q 677 -8 695 3 q 632 -19 660 -19 q 609 -20 629 -19 q 575 -20 590 -20 q 487 5 492 -20 q 501 118 491 35 q 518 250 511 201 q 491 248 509 248 l 464 248 l 442 57 q 439 38 441 51 q 436 19 437 25 q 432 3 435 13 q 424 -11 429 -7 q 409 -19 418 -16 q 388 -23 400 -23 q 237 -20 335 -23 l 217 11 l 250 247 l 233 247 q 164 254 177 247 q 152 298 152 261 m 453 439 q 467 420 453 420 l 572 420 l 597 570 q 578 589 595 589 l 545 589 q 515 591 524 591 l 486 591 l 486 574 q 469 508 481 553 q 453 439 457 463 z "},"$":{"ha":979,"x_min":15,"x_max":993,"o":"m 15 307 q 61 331 15 331 l 404 331 q 424 314 418 331 q 432 278 429 298 q 452 242 434 258 q 503 225 469 225 q 564 242 539 225 q 589 293 589 260 q 583 314 589 305 q 561 330 576 323 q 533 340 545 336 q 494 350 522 344 q 453 359 467 356 l 391 376 q 118 494 197 422 q 38 693 38 566 q 49 789 38 745 q 78 866 60 833 q 123 924 96 898 q 178 968 151 951 q 241 1000 205 985 q 307 1022 277 1014 q 372 1038 336 1030 q 370 1078 370 1050 l 370 1128 q 370 1133 370 1130 q 371 1152 370 1145 q 375 1166 371 1159 q 385 1175 378 1173 l 439 1175 q 507 1175 463 1175 q 575 1176 551 1176 q 602 1108 602 1176 q 601 1069 602 1095 q 600 1036 600 1044 q 735 1012 678 1030 q 838 957 793 994 q 911 863 883 921 q 952 722 939 805 q 941 711 950 711 q 783 707 888 711 q 624 704 677 704 q 589 713 602 704 q 571 734 576 722 q 561 759 566 747 q 541 781 555 772 q 502 789 527 789 q 487 787 498 789 q 471 784 476 785 q 457 780 466 783 q 444 775 448 778 q 433 767 439 772 q 426 757 428 763 q 423 743 423 751 q 442 711 423 724 q 483 692 460 698 q 537 681 505 687 q 583 670 569 675 l 655 652 q 863 575 774 623 q 960 458 926 527 q 993 309 993 389 q 970 189 993 243 q 913 98 948 134 q 826 35 878 62 q 725 -9 774 7 q 616 -37 676 -24 l 616 -106 q 618 -127 616 -114 l 618 -152 q 589 -176 616 -176 l 488 -176 q 388 -171 420 -174 q 374 -159 382 -168 q 362 -146 366 -150 q 363 -125 363 -140 l 363 -102 q 361 -62 363 -77 q 351 -40 359 -48 q 337 -31 342 -33 q 313 -25 331 -28 q 285 -19 296 -22 q 86 98 149 18 q 15 307 23 178 z "},"%":{"ha":1459,"x_min":12,"x_max":1449,"o":"m 12 692 q 48 865 12 787 q 157 991 85 943 q 326 1039 229 1039 q 445 1020 393 1039 q 530 969 498 1000 q 582 896 562 939 q 611 809 603 852 q 618 716 618 765 q 609 605 618 656 q 577 507 600 554 q 520 426 555 459 q 430 372 485 392 q 307 353 376 353 q 12 692 12 353 m 248 692 q 248 687 248 690 q 249 654 248 667 q 251 618 249 642 q 257 577 252 593 q 270 545 262 562 q 291 519 277 528 q 321 510 304 510 q 351 520 339 510 q 369 543 363 530 q 378 577 375 556 q 382 610 382 599 q 382 640 382 622 l 382 751 q 381 796 382 778 q 373 836 379 814 q 354 868 368 857 q 320 879 341 879 q 296 872 307 878 q 278 856 286 867 q 265 834 271 844 q 257 805 260 823 q 252 776 254 787 q 249 744 250 764 q 248 717 248 724 q 248 692 248 709 m 358 -9 q 530 303 420 104 q 730 669 639 503 q 902 982 821 836 l 933 1038 q 944 1047 942 1046 l 987 1047 q 1039 1046 1012 1047 q 1082 1044 1066 1045 q 1099 1042 1099 1042 q 911 675 1063 972 q 548 -41 760 406 q 461 -60 539 -60 q 415 -58 444 -60 q 377 -57 387 -57 l 358 -9 m 838 312 q 864 444 844 384 q 922 550 885 503 q 1015 623 958 597 q 1145 650 1072 650 q 1231 640 1190 650 q 1312 606 1272 630 q 1382 544 1353 581 q 1430 446 1412 506 q 1449 309 1449 386 q 1424 156 1449 224 q 1357 46 1400 89 q 1257 -18 1314 4 q 1133 -41 1200 -41 q 1007 -20 1061 -41 q 922 34 954 1 q 871 112 890 66 q 845 201 852 158 q 838 294 838 245 l 838 312 m 1073 279 q 1147 118 1073 118 q 1211 241 1211 118 q 1211 281 1211 254 q 1210 320 1210 307 l 1210 338 q 1211 361 1211 345 q 1208 402 1211 383 q 1199 442 1206 422 q 1178 474 1192 462 q 1143 486 1164 486 q 1109 471 1123 486 q 1088 437 1095 456 q 1077 389 1081 419 q 1073 343 1074 359 q 1073 302 1073 327 l 1073 279 z "},"&":{"ha":1230,"x_min":11,"x_max":1253,"o":"m 1001 -22 q 880 -12 922 -22 q 795 27 838 -2 l 768 27 q 532 -46 623 -39 l 472 -46 q 233 -7 338 -46 q 69 101 127 33 q 11 255 11 170 q 255 545 11 454 q 152 648 193 585 q 111 779 111 711 q 141 895 111 844 q 225 977 171 946 q 350 1023 279 1008 q 507 1039 421 1039 q 659 1026 587 1039 q 793 986 730 1013 q 893 908 856 958 q 930 789 930 857 q 881 647 930 711 q 738 518 831 582 q 841 423 773 487 q 856 460 850 437 q 864 500 861 483 q 882 530 867 517 q 924 543 897 543 l 1004 543 q 1055 542 1020 543 q 1109 541 1090 541 l 1141 541 q 1171 543 1150 543 q 1187 535 1182 541 q 1194 518 1192 530 l 1194 491 q 1153 342 1186 416 q 1063 212 1120 269 l 1142 133 q 1179 97 1148 125 q 1232 43 1211 68 q 1253 0 1253 17 q 1227 -22 1253 -20 l 1001 -22 m 353 271 q 367 221 353 243 q 404 185 381 198 q 451 164 426 172 q 502 157 477 157 q 651 201 571 157 q 569 281 624 231 q 502 343 515 331 l 465 377 q 437 399 441 399 q 379 346 405 384 q 353 271 353 309 m 414 776 q 453 706 419 740 q 526 658 488 672 q 530 659 528 658 q 534 659 532 659 l 567 685 q 611 732 593 705 q 629 784 629 758 q 609 832 629 812 q 565 858 589 851 q 515 865 541 865 q 445 841 475 865 q 414 776 414 817 z "},"'":{"ha":544,"x_min":121,"x_max":415,"o":"m 191 1023 q 228 1024 197 1023 q 286 1025 259 1025 q 343 1024 313 1025 q 392 1017 374 1023 q 410 1001 410 1011 q 413 825 410 964 q 415 612 415 686 q 376 576 415 585 q 263 567 337 567 l 146 567 q 121 591 132 576 l 121 977 q 128 1006 121 991 q 146 1023 136 1021 l 191 1023 z "},"(":{"ha":564,"x_min":84,"x_max":545,"o":"m 84 416 q 126 650 91 505 q 200 906 161 795 q 258 1017 239 1017 q 266 1020 260 1020 q 519 1025 310 1022 q 532 1020 528 1025 q 540 1004 536 1015 l 503 865 q 420 408 420 588 q 507 -52 428 203 l 545 -187 q 533 -203 537 -201 l 533 -220 l 483 -220 q 372 -217 445 -220 q 260 -214 298 -214 q 206 -113 242 -208 q 164 19 166 13 q 84 416 90 217 z "},")":{"ha":566,"x_min":16,"x_max":481,"o":"m 142 400 q 136 522 143 460 q 113 657 130 584 q 85 772 96 731 q 48 900 74 814 q 16 1006 22 987 l 16 1034 l 293 1034 q 323 1012 311 1034 l 376 867 q 481 401 481 592 q 448 182 481 310 q 378 -37 400 31 q 304 -209 317 -205 l 30 -209 q 41 -168 30 -193 q 142 400 142 178 z "},"*":{"ha":631,"x_min":52,"x_max":581,"o":"m 252 502 q 180 535 239 502 q 121 578 121 569 q 127 598 121 585 l 159 658 l 174 684 q 148 683 166 684 q 122 682 130 682 l 99 682 q 58 702 65 687 q 52 773 52 717 q 73 846 52 833 q 182 844 117 846 l 160 879 l 160 878 l 137 918 q 123 955 125 945 q 134 970 123 962 q 155 979 144 977 l 190 1002 q 250 1029 233 1029 q 285 982 260 1027 l 285 956 l 285 958 l 320 914 l 320 933 q 329 943 322 936 q 336 952 336 949 l 336 967 q 360 1003 342 980 q 385 1031 378 1027 l 426 1012 q 507 958 507 972 q 490 917 507 945 l 471 887 q 446 841 459 869 l 464 841 q 500 846 486 846 l 534 846 q 547 847 538 846 q 559 847 555 848 q 568 844 562 847 q 575 836 573 842 q 579 818 577 829 q 581 788 581 806 q 576 749 581 771 l 576 713 q 505 698 576 703 q 500 698 502 698 q 497 697 499 698 q 492 697 494 697 l 453 697 l 476 658 q 484 640 482 650 l 484 618 q 515 579 515 588 l 385 500 l 321 606 l 293 552 q 288 542 291 548 q 282 532 284 536 q 278 525 281 529 q 274 518 276 520 q 270 512 273 515 q 266 508 268 509 q 262 505 264 506 q 257 503 260 503 q 252 502 255 502 z "},"+":{"ha":861,"x_min":57,"x_max":798,"o":"m 57 304 l 57 323 q 58 339 58 328 q 58 381 58 353 q 57 423 57 409 q 63 463 57 453 q 95 472 70 472 l 313 472 l 313 689 q 321 722 315 713 q 354 730 328 730 l 476 730 q 541 711 536 730 q 541 589 541 669 q 540 467 540 508 l 779 467 q 793 458 789 466 q 798 435 798 451 q 797 376 798 416 q 796 317 796 337 l 796 294 q 787 255 796 255 l 536 255 q 538 141 538 179 l 538 27 q 528 -1 538 5 q 488 -8 518 -8 l 323 -8 l 323 243 q 307 242 317 243 q 290 241 296 241 q 263 242 282 241 q 233 243 244 243 q 208 242 224 243 q 182 241 191 241 q 131 242 165 241 q 80 243 97 243 q 57 304 57 248 z "},",":{"ha":498,"x_min":-5,"x_max":454,"o":"m -5 -140 l 50 111 q 84 244 66 187 q 112 301 102 301 l 353 301 q 379 301 368 301 q 402 300 390 300 q 424 298 414 299 q 440 295 433 296 q 451 290 447 293 q 454 283 454 287 l 323 -146 q 173 -163 316 -163 l 17 -163 l -5 -140 z "},"-":{"ha":582,"x_min":24,"x_max":548,"o":"m 24 244 l 24 435 q 46 505 24 505 q 434 506 302 505 q 483 505 467 506 l 529 505 q 548 414 548 501 l 548 269 q 529 244 545 244 q 287 237 447 244 q 49 231 127 231 l 49 244 l 24 244 z "},".":{"ha":525,"x_min":76,"x_max":446,"o":"m 76 9 l 76 30 q 77 62 76 40 q 77 98 77 84 l 77 133 q 99 298 77 298 l 377 298 q 442 279 442 298 q 445 80 445 149 l 445 57 q 446 42 445 52 q 446 27 446 33 q 431 -11 446 -11 l 98 -11 l 76 9 z "},"/":{"ha":545,"x_min":-33,"x_max":570,"o":"m -33 5 q -23 34 -27 24 q 351 1039 151 513 q 415 1050 355 1050 q 468 1048 436 1050 q 506 1047 500 1047 l 529 1047 q 560 1042 551 1047 q 570 1024 570 1038 q 562 986 570 1010 q 543 932 555 963 q 526 888 530 901 q 317 269 356 382 l 241 61 q 233 35 238 52 q 225 9 228 18 q 215 -11 222 1 q 198 -29 208 -23 q 171 -40 188 -35 q 130 -46 154 -45 l 103 -46 q 60 -49 87 -49 l -9 -49 q -33 5 -17 -35 z "},":":{"ha":522,"x_min":72,"x_max":439,"o":"m 72 35 q 79 281 72 145 q 222 301 79 301 l 279 301 q 304 300 289 300 l 358 300 q 439 281 431 300 l 439 3 q 214 -22 431 -22 l 94 -22 l 73 7 q 73 21 73 12 q 72 35 72 30 m 75 461 l 75 480 q 75 508 75 488 q 76 540 76 528 l 76 578 q 98 730 76 730 l 358 730 q 439 709 439 730 l 439 453 q 439 450 439 452 q 439 433 439 439 q 435 423 439 428 q 423 418 431 418 l 98 418 l 76 439 q 75 461 76 454 z "},";":{"ha":496,"x_min":-5,"x_max":457,"o":"m -5 -122 l -5 -65 q 14 6 -1 -41 q 41 94 30 54 l 41 152 q 77 261 54 210 q 111 312 100 312 l 355 312 q 406 310 384 312 q 443 303 429 308 q 457 292 457 298 l 319 -127 q 159 -144 311 -144 q 90 -142 133 -144 q 33 -141 47 -141 l 18 -141 q -5 -122 5 -133 m 85 450 q 87 456 85 454 l 87 524 q 109 716 87 716 l 137 716 q 234 718 169 716 q 334 719 298 719 q 452 703 452 719 q 456 437 456 610 q 455 420 456 426 q 454 408 455 415 q 449 398 452 401 q 439 393 446 395 l 111 393 l 88 416 q 85 450 85 438 z "},"<":{"ha":861,"x_min":53,"x_max":803,"o":"m 53 308 q 54 334 53 317 q 54 361 54 352 q 54 380 54 367 q 53 400 53 394 q 79 475 53 449 l 777 740 q 795 724 791 740 q 800 678 800 708 q 801 646 800 673 q 801 607 801 619 q 799 574 800 594 q 795 543 798 554 q 787 529 791 532 l 347 355 q 762 198 554 274 q 788 184 781 191 q 799 159 795 178 q 803 100 803 141 q 803 92 803 98 q 803 61 803 71 q 802 35 803 51 q 800 10 802 18 q 795 -8 798 1 q 788 -21 793 -17 q 777 -24 783 -24 q 768 -23 772 -24 q 149 220 460 100 q 133 225 146 221 q 116 230 121 229 q 100 236 111 232 q 85 244 90 241 q 73 255 80 248 q 62 269 65 262 q 56 286 58 276 q 53 308 53 296 z "},"=":{"ha":863,"x_min":54,"x_max":796,"o":"m 72 309 q 322 299 151 309 q 589 290 494 289 l 613 290 q 779 296 670 290 q 788 287 785 296 q 793 261 791 279 q 794 230 794 243 q 795 194 795 218 l 795 149 q 795 134 795 144 q 796 118 796 123 q 774 81 796 81 l 57 81 q 54 140 54 111 q 55 151 54 143 q 56 161 56 158 q 56 185 56 169 q 57 209 57 201 l 57 244 q 72 309 57 288 m 57 431 l 57 583 q 61 622 57 609 q 79 635 66 635 l 144 635 q 461 633 250 635 q 779 632 672 632 q 795 526 795 632 l 795 432 l 79 407 l 57 431 z "},">":{"ha":860,"x_min":53,"x_max":803,"o":"m 803 309 q 783 255 803 255 q 567 163 715 227 q 304 53 418 99 q 83 -28 191 7 l 53 3 q 54 87 53 60 l 54 171 q 245 266 56 196 l 496 360 q 366 416 458 376 q 205 483 274 455 q 71 532 136 510 q 62 564 62 536 l 62 583 q 62 609 62 587 q 61 648 61 632 q 61 670 61 660 q 62 690 62 680 q 64 708 63 700 q 66 722 65 715 q 70 731 68 728 q 75 734 72 734 l 789 460 q 794 455 791 458 q 798 444 796 451 q 800 429 799 437 q 802 411 801 422 q 803 391 802 399 q 803 369 803 382 q 803 348 803 356 q 803 327 803 340 q 803 309 803 315 z "},"?":{"ha":760,"x_min":28,"x_max":741,"o":"m 119 363 q 133 439 119 404 q 166 498 146 475 q 211 547 186 522 q 257 592 235 572 q 296 640 279 612 q 319 699 313 668 q 295 734 314 725 q 245 743 276 743 q 60 703 154 740 l 28 728 q 29 853 28 771 q 30 978 30 935 q 86 1023 30 1005 q 201 1045 142 1040 q 316 1050 259 1050 q 582 1001 492 1048 l 610 986 q 699 903 668 949 l 699 884 q 726 810 712 857 q 741 760 739 764 q 700 616 734 661 q 642 556 674 584 q 583 511 609 528 q 533 477 557 494 q 496 441 510 460 q 481 399 483 422 q 485 367 484 389 q 488 334 486 345 q 486 323 488 328 q 480 317 483 317 l 378 317 q 138 309 298 317 q 119 363 119 309 m 115 23 l 115 41 q 117 65 115 57 l 117 133 q 115 161 115 141 q 136 250 115 235 q 234 247 159 249 q 351 244 309 244 q 402 242 385 243 q 437 239 420 241 q 462 234 455 237 q 475 225 469 231 q 482 213 481 220 q 483 194 483 205 l 483 126 q 484 85 483 112 q 484 43 484 58 l 484 3 q 469 -11 482 -11 q 467 -8 467 -11 q 239 -19 429 -9 l 137 -19 l 117 5 q 115 23 117 19 z "},"@":{"ha":1133,"x_min":49,"x_max":1080,"o":"m 49 491 q 78 672 49 587 q 159 820 108 757 q 277 928 210 882 q 422 996 345 973 q 581 1019 500 1019 q 766 990 677 1019 q 926 912 856 962 q 1038 784 996 861 q 1080 613 1080 706 q 1043 419 1080 512 q 947 271 1007 327 q 823 214 888 214 q 697 326 740 214 q 612 252 657 277 q 496 228 568 228 q 350 289 413 228 q 288 434 288 349 l 288 458 q 320 593 288 529 q 417 701 352 658 q 564 743 481 743 q 708 689 654 743 l 741 640 q 766 736 750 671 l 849 736 l 787 393 q 846 317 787 317 q 938 410 910 345 q 966 553 966 476 q 945 693 966 631 q 890 795 925 755 q 807 861 856 835 q 706 898 759 887 q 593 909 653 909 q 436 881 510 909 q 304 801 362 853 q 212 666 246 749 q 178 480 178 583 q 200 354 178 414 q 261 249 222 294 q 352 170 300 203 q 466 120 404 137 q 591 103 527 103 q 751 126 674 103 l 784 27 q 551 -8 692 -8 q 361 30 452 -8 q 200 134 269 68 q 90 293 132 200 q 49 491 49 387 m 429 469 q 454 378 429 411 q 518 345 479 345 q 641 393 594 345 q 688 507 688 441 q 656 589 688 559 q 582 618 625 618 q 477 576 516 618 q 429 469 437 534 z "},"A":{"ha":1111,"x_min":-33,"x_max":1140,"o":"m -33 0 q 60 315 9 155 q 187 698 111 475 q 290 1006 262 921 q 301 1023 298 1020 l 415 1023 q 533 1024 455 1023 q 651 1025 611 1025 l 765 1025 q 782 1025 775 1025 q 798 1023 789 1025 q 813 1019 808 1022 q 823 1011 819 1017 q 827 998 827 1006 l 1140 7 q 1130 -11 1140 -6 q 1093 -16 1120 -16 l 1031 -16 q 950 -17 1004 -16 q 869 -18 897 -18 q 837 -19 861 -18 q 795 -19 812 -20 q 757 -17 778 -19 q 724 -10 736 -16 q 708 5 711 -4 l 708 50 q 684 113 701 84 q 648 141 667 141 l 415 141 l 380 -3 q 304 -19 372 -19 l 250 -19 q 163 -21 220 -19 q 76 -23 105 -23 l 57 -23 q 23 -24 46 -23 q -14 -24 -1 -24 q -33 0 -19 -19 m 438 412 l 457 380 l 502 380 q 601 386 556 380 q 646 407 646 393 l 559 798 q 526 751 547 798 q 492 647 505 705 l 438 412 z "},"B":{"ha":1065,"x_min":62,"x_max":1036,"o":"m 62 92 l 62 1005 l 648 1025 q 750 1019 703 1025 q 846 993 798 1012 q 929 945 895 975 q 985 867 963 916 q 1006 754 1006 818 q 969 617 1006 669 q 857 524 932 564 q 990 439 945 499 q 1036 288 1036 379 q 1010 166 1036 220 q 944 78 985 112 q 848 22 903 44 q 740 -10 793 -1 q 629 -19 686 -19 q 531 -18 597 -19 q 433 -16 466 -16 q 87 -22 244 -16 q 62 92 64 14 m 452 779 q 454 688 452 748 q 456 597 456 627 q 472 582 456 584 q 505 586 481 583 q 542 591 528 589 q 575 601 555 593 q 605 620 594 609 q 624 651 616 631 q 632 700 632 672 q 490 803 632 803 q 456 793 461 798 q 452 779 452 788 m 464 262 q 469 212 464 212 l 491 212 q 537 213 517 212 q 578 222 556 215 q 614 240 601 229 q 637 274 628 252 q 647 326 647 296 q 644 357 647 342 q 633 381 640 371 q 618 399 625 391 q 598 411 611 406 q 576 419 585 416 q 551 425 568 422 q 526 427 534 427 q 500 429 519 428 q 477 430 482 430 l 477 404 q 470 354 477 397 q 464 286 464 311 l 464 262 z "},"C":{"ha":1055,"x_min":27,"x_max":1036,"o":"m 1036 363 q 983 183 1025 262 q 875 56 941 105 q 725 -18 809 7 q 543 -43 642 -43 q 374 -23 450 -43 q 246 30 298 -3 q 154 111 194 63 q 90 209 114 159 q 52 320 66 260 q 32 432 37 380 q 27 540 27 484 l 27 600 q 73 778 34 699 q 169 905 113 857 q 298 986 225 954 q 439 1030 370 1018 q 575 1043 507 1043 q 768 1017 684 1043 q 905 943 852 991 q 987 834 958 896 q 1025 697 1017 773 l 1025 632 q 876 610 1025 610 q 778 612 841 610 q 696 613 715 613 q 686 612 692 613 q 675 612 679 612 q 649 626 658 612 q 636 662 640 641 q 629 704 633 683 q 611 740 625 725 q 572 754 597 754 q 530 746 548 754 q 500 721 511 738 q 483 686 490 703 q 472 640 475 668 q 468 592 469 612 q 467 541 467 573 q 465 494 466 509 q 464 464 465 486 q 463 429 463 442 q 552 255 463 260 q 592 273 576 255 q 613 312 608 290 q 627 358 619 334 q 643 391 634 382 l 1012 391 q 1036 363 1034 389 z "},"D":{"ha":1118,"x_min":72,"x_max":1093,"o":"m 72 996 q 80 1009 72 1003 q 105 1018 89 1015 q 138 1023 121 1021 q 177 1025 154 1025 q 214 1026 199 1026 q 249 1026 229 1026 q 271 1025 268 1025 l 347 1025 q 410 1027 370 1025 q 469 1028 450 1028 q 932 917 793 1028 l 956 895 q 982 867 968 884 q 1017 815 996 850 q 1054 739 1038 780 q 1082 639 1070 699 q 1093 515 1093 579 q 1066 330 1093 416 q 992 181 1039 244 q 881 72 945 118 q 744 4 818 26 q 591 -19 670 -19 l 570 -19 q 483 -18 541 -19 q 396 -16 425 -16 q 88 -22 226 -16 q 72 38 72 11 l 72 996 m 471 217 q 544 226 511 217 q 599 250 576 235 q 638 288 621 265 q 665 336 655 311 q 681 392 675 360 q 688 451 686 423 q 690 514 690 479 l 690 556 q 641 740 690 681 q 468 803 591 800 q 457 783 465 795 q 446 762 450 770 l 446 730 q 446 677 446 720 q 471 217 437 222 z "},"E":{"ha":886,"x_min":62,"x_max":873,"o":"m 62 24 l 62 50 q 65 393 62 166 q 68 735 68 619 l 68 1016 l 857 1016 l 857 793 q 857 783 857 791 q 857 772 857 775 q 857 763 857 770 q 854 753 856 755 q 849 745 852 750 q 842 738 846 740 q 831 734 838 736 q 817 732 825 732 l 798 732 q 477 738 622 732 q 473 704 476 727 q 468 664 470 682 q 467 631 467 647 l 789 631 q 817 625 810 631 q 823 608 823 620 q 823 597 823 604 q 822 586 822 589 q 824 490 822 553 q 826 393 826 426 q 815 380 824 380 q 808 382 811 380 q 491 372 594 372 l 473 372 l 473 274 q 648 279 534 274 q 819 285 762 285 q 871 266 864 285 l 871 214 q 872 118 871 182 q 873 22 873 54 q 846 -12 873 -12 q 738 -12 811 -12 q 627 -11 665 -11 q 347 -16 529 -11 q 84 -22 165 -21 l 65 0 q 62 24 62 19 z "},"F":{"ha":857,"x_min":67,"x_max":857,"o":"m 68 95 l 68 1001 q 174 1024 68 1024 q 207 1023 185 1024 q 236 1023 228 1023 q 396 1025 290 1023 q 556 1027 502 1027 q 667 1025 593 1027 q 781 1024 741 1024 q 798 1025 787 1024 q 814 1025 808 1025 q 848 1016 838 1025 q 857 981 857 1007 l 857 743 q 775 739 818 740 q 667 737 732 738 q 585 736 601 736 l 491 736 q 490 699 491 724 q 490 662 490 675 l 490 652 q 491 643 491 650 q 751 654 645 654 q 808 649 783 654 q 833 635 833 644 l 833 408 q 821 368 833 378 q 785 358 810 358 q 766 359 780 358 q 743 361 751 361 q 492 350 606 352 q 494 225 492 309 q 496 100 496 142 l 496 16 q 492 -10 496 -3 q 472 -19 488 -16 q 279 -20 407 -19 q 87 -22 152 -22 q 78 -4 81 -14 q 72 13 74 5 q 69 34 70 20 q 67 53 68 47 q 67 75 67 58 q 68 95 68 91 z "},"G":{"ha":1139,"x_min":28,"x_max":1093,"o":"m 28 507 q 50 679 28 601 q 105 811 71 757 q 190 907 140 865 q 291 975 239 949 q 403 1017 343 1000 q 515 1039 463 1033 q 621 1044 568 1044 q 698 1041 661 1044 q 783 1029 736 1038 q 871 1003 830 1021 q 950 960 912 985 q 1015 894 987 935 q 1055 803 1043 854 q 1069 692 1059 783 q 1025 671 1066 671 q 856 674 967 671 q 689 677 745 677 q 676 688 681 680 q 670 705 671 696 q 664 726 668 715 q 655 745 661 736 q 634 759 649 753 q 598 765 620 765 q 547 755 570 765 q 511 731 525 745 q 486 692 496 717 q 471 648 476 668 q 463 597 466 628 q 460 549 460 566 q 460 502 460 531 q 460 480 460 493 q 461 463 461 467 l 461 442 q 462 406 461 420 q 466 370 463 392 q 474 332 469 347 q 490 299 479 317 q 516 272 500 282 q 554 254 531 261 q 606 247 577 247 q 730 262 682 247 l 730 345 l 700 345 l 700 343 l 651 343 q 632 342 646 343 q 609 342 618 342 l 585 369 l 585 556 q 609 594 585 574 l 658 594 q 781 593 709 594 q 892 591 854 591 l 947 591 q 1008 591 986 591 q 1057 584 1030 590 q 1093 567 1084 578 q 1089 308 1093 478 q 1085 61 1085 138 q 1086 55 1085 59 q 1086 47 1086 50 l 1086 33 q 936 -15 1063 5 q 722 -35 808 -35 l 704 -35 q 648 -38 685 -35 q 591 -41 610 -41 q 173 105 318 -41 q 28 507 28 252 z "},"H":{"ha":1122,"x_min":61,"x_max":1055,"o":"m 244 -18 q 200 -19 225 -18 q 161 -20 175 -20 q 131 -20 148 -21 q 104 -15 113 -19 q 86 -4 96 -12 q 72 16 76 3 q 64 48 67 29 q 61 94 61 67 q 66 493 61 240 q 72 865 72 747 q 87 1020 72 1012 l 339 1020 q 439 1012 406 1020 q 483 989 472 1004 q 494 941 494 973 q 492 904 494 932 q 491 859 491 877 l 491 827 q 489 762 491 806 q 487 697 487 719 l 487 684 q 488 673 488 680 l 515 673 q 551 672 527 673 q 586 671 574 671 q 632 675 617 671 l 632 958 q 635 1006 632 991 q 645 1024 639 1021 q 667 1028 651 1028 q 696 1027 676 1028 q 724 1027 715 1027 l 774 1029 q 865 1031 825 1031 q 1050 990 1050 1031 q 1050 959 1050 979 q 1051 928 1051 939 q 1050 859 1051 904 q 1050 789 1050 813 q 1052 579 1050 719 q 1054 369 1054 439 q 1053 354 1054 363 q 1053 342 1053 345 l 1053 309 q 1054 244 1053 266 l 1054 229 q 1053 221 1053 227 q 1054 112 1053 185 q 1055 3 1055 39 q 925 -22 1050 -22 l 643 -22 l 623 7 l 623 52 q 623 186 623 97 q 624 320 624 275 q 620 341 624 336 q 605 347 616 347 l 581 347 q 496 342 534 347 q 495 173 496 286 q 494 3 494 60 q 324 -18 486 -18 l 244 -18 z "},"I":{"ha":571,"x_min":56,"x_max":494,"o":"m 56 -18 q 65 271 58 180 q 73 849 65 556 q 71 933 71 906 l 71 954 q 68 1002 68 983 q 80 1025 68 1015 q 419 1017 191 1017 q 494 1020 473 1017 l 494 -18 l 56 -18 z "},"J":{"ha":937,"x_min":-16,"x_max":878,"o":"m 423 -38 q 286 -28 348 -38 q 166 6 224 -18 q 70 71 109 31 q 7 173 31 110 q -16 319 -16 236 q 5 355 -16 355 l 315 355 q 346 345 336 355 q 358 320 356 335 q 362 290 360 305 q 372 265 363 275 q 399 255 380 255 q 426 264 416 255 q 441 292 437 273 q 447 323 446 310 q 448 358 448 337 l 448 363 q 444 552 447 412 q 441 770 441 692 l 441 1001 q 469 1024 441 1021 q 534 1023 491 1024 q 600 1023 578 1023 q 696 1023 632 1023 q 792 1024 760 1024 l 856 1024 q 878 1005 871 1024 q 877 972 876 993 q 876 939 877 951 l 876 905 q 869 533 869 696 l 869 320 q 853 210 869 260 q 810 123 837 159 q 745 58 783 87 q 667 12 707 29 q 583 -18 627 -6 q 499 -34 538 -29 q 423 -38 460 -38 z "},"K":{"ha":1116,"x_min":68,"x_max":1143,"o":"m 109 -22 q 86 -19 94 -22 q 76 -12 78 -16 q 68 4 73 -7 l 68 968 q 68 990 68 983 q 71 1006 68 997 q 77 1019 73 1015 q 90 1025 81 1023 q 110 1028 98 1028 l 388 1028 q 486 1004 486 1028 l 486 1002 q 483 627 483 750 l 673 1023 l 814 1023 q 1101 1009 1101 1023 q 1099 1006 1101 1006 q 831 534 967 769 l 831 515 l 859 498 l 1143 10 q 1127 -14 1143 -1 l 692 -14 l 498 365 q 492 256 494 328 q 488 163 490 185 l 488 3 q 407 -22 484 -22 l 109 -22 z "},"L":{"ha":857,"x_min":69,"x_max":859,"o":"m 69 906 q 92 1029 69 1017 q 111 1028 99 1028 l 133 1028 q 202 1029 154 1028 q 275 1031 250 1031 q 431 1023 372 1031 q 498 994 490 1015 l 490 294 l 505 294 q 581 297 559 297 q 660 294 602 296 q 772 292 718 292 q 837 287 816 292 q 859 266 859 281 l 859 5 q 556 -19 850 -19 l 87 -19 q 71 57 71 5 l 71 250 q 72 500 71 334 q 73 751 73 667 q 71 821 73 767 q 69 906 69 874 z "},"M":{"ha":1487,"x_min":83,"x_max":1434,"o":"m 1430 254 q 1431 216 1430 241 q 1433 168 1432 191 q 1434 116 1434 144 q 1432 65 1434 88 q 1425 23 1430 43 q 1410 -8 1420 3 q 1386 -19 1400 -19 l 1077 -19 q 1044 168 1044 6 q 1045 310 1044 227 q 1046 429 1046 393 l 1046 476 q 1045 499 1046 482 q 1044 526 1044 517 q 978 245 1017 428 q 924 0 939 62 q 861 -19 917 -19 l 621 -19 q 570 4 577 -19 l 505 288 q 485 378 496 331 q 460 484 475 425 q 439 572 446 544 q 431 241 431 355 l 431 122 q 433 1 431 42 q 418 -14 429 -14 l 354 -14 q 237 -14 314 -14 q 119 -15 159 -15 q 83 -3 83 -15 l 83 1004 q 86 1014 83 1010 q 95 1021 89 1019 q 108 1025 102 1023 q 123 1026 114 1026 q 139 1027 133 1027 q 155 1027 145 1027 q 167 1027 164 1027 l 247 1027 q 519 1021 440 1027 q 640 1016 598 1016 q 692 746 656 925 l 743 476 l 852 1024 q 857 1023 852 1024 q 865 1021 863 1021 q 1080 1023 938 1021 q 1294 1025 1221 1025 l 1394 1025 q 1413 987 1413 1023 q 1430 254 1428 330 z "},"N":{"ha":1171,"x_min":53,"x_max":1095,"o":"m 54 -3 l 54 304 q 65 945 53 472 l 65 1001 q 71 1019 65 1016 l 537 1019 q 565 967 544 1019 q 615 834 585 916 q 656 723 644 753 l 751 475 l 751 738 q 753 862 751 772 q 754 1004 755 953 q 863 1023 754 1023 q 956 1021 897 1023 q 1028 1020 1015 1020 l 1080 1020 q 1090 1016 1090 1020 q 1095 476 1095 827 l 1095 5 q 1051 -12 1090 -12 l 1034 -12 q 930 -14 998 -12 q 826 -15 861 -15 l 627 -15 q 587 71 617 -12 q 492 328 555 159 q 422 515 429 496 q 421 396 422 475 q 420 277 420 317 q 422 187 420 247 q 423 98 423 127 l 423 12 q 396 -19 423 -19 l 84 -19 l 54 -3 m 1090 1017 l 1090 1015 l 1090 1017 z "},"O":{"ha":1115,"x_min":16,"x_max":1084,"o":"m 16 510 l 16 585 q 58 758 23 680 q 145 890 92 836 q 269 980 199 943 q 415 1034 338 1017 q 572 1051 491 1051 q 666 1044 617 1051 q 768 1020 714 1036 q 872 972 823 1004 q 955 898 922 941 q 1052 726 1022 816 q 1082 526 1082 636 q 982 157 1084 297 l 952 117 q 840 26 913 62 q 693 -24 766 -10 q 545 -38 620 -38 q 384 -20 458 -38 q 256 27 310 -3 q 161 100 203 57 q 92 190 119 142 q 48 293 65 237 q 23 401 31 349 q 16 510 16 454 m 556 779 q 506 766 528 779 q 470 734 484 753 q 446 685 456 716 q 431 630 436 654 q 424 567 427 605 q 421 509 421 530 q 420 456 420 488 q 423 396 420 425 q 433 337 425 368 q 453 282 441 305 q 488 242 466 258 q 538 225 510 227 q 591 235 568 225 q 630 260 614 245 q 656 301 646 275 q 673 351 667 327 q 682 410 679 374 q 686 470 685 445 q 686 534 686 496 q 685 587 686 563 q 679 642 683 612 q 665 694 675 671 q 642 737 656 717 q 607 768 629 757 q 556 779 585 779 z "},"P":{"ha":1035,"x_min":71,"x_max":1031,"o":"m 71 92 l 71 996 q 75 1004 71 1000 q 89 1008 79 1007 q 105 1010 98 1010 q 126 1011 113 1011 q 144 1012 139 1012 l 694 1012 q 823 990 762 1012 q 930 928 883 969 q 1004 823 977 888 q 1031 678 1031 759 q 1017 569 1031 618 q 980 485 1003 519 q 925 422 958 450 q 858 377 892 394 q 782 348 823 360 q 706 331 741 336 q 632 323 671 326 l 502 323 q 496 84 496 216 l 496 8 q 473 -16 494 -16 l 88 -16 q 71 92 71 31 m 453 567 l 475 537 q 528 541 503 537 q 578 555 553 545 q 620 582 602 566 q 648 622 637 597 q 659 678 659 647 q 653 721 659 702 q 637 751 646 739 q 612 772 628 763 q 582 785 596 781 q 547 792 568 789 q 512 794 526 794 q 476 795 498 795 q 453 567 453 784 z "},"Q":{"ha":1114,"x_min":27,"x_max":1118,"o":"m 27 507 q 58 715 27 623 q 142 870 90 808 q 267 974 195 932 q 416 1033 338 1015 q 581 1051 494 1051 q 795 1011 699 1051 q 955 902 892 971 q 1053 738 1019 832 q 1088 534 1088 644 q 1067 391 1088 462 q 1008 269 1046 319 q 1034 269 1017 269 q 1061 270 1052 270 q 1118 228 1118 270 l 1118 -3 q 1111 -20 1117 -14 q 1090 -30 1104 -26 q 903 -20 1037 -20 q 714 -33 833 -20 q 537 -46 595 -46 q 133 165 263 -46 q 53 316 79 220 q 27 507 27 412 m 420 494 q 421 447 420 465 q 424 397 421 429 q 431 343 426 365 q 445 296 435 321 q 467 254 454 270 q 500 228 480 239 q 547 217 521 217 l 547 233 q 553 236 547 236 q 565 235 557 236 q 576 233 573 233 q 625 249 604 233 q 657 291 646 264 q 676 347 669 318 q 686 412 684 376 q 688 472 688 448 q 688 522 688 495 l 686 549 q 685 604 686 580 q 680 658 684 628 q 666 710 675 688 q 644 752 657 732 q 609 782 631 772 q 559 792 587 792 q 507 779 530 792 q 470 741 484 765 q 445 687 455 716 q 430 623 435 659 q 422 557 425 587 q 420 494 420 527 z "},"R":{"ha":1058,"x_min":65,"x_max":1058,"o":"m 1053 -3 q 990 -20 1038 -18 q 872 -19 942 -23 q 798 -15 802 -15 q 731 -14 751 -15 l 663 -14 q 638 31 648 -9 q 618 145 628 71 q 608 224 608 219 q 586 312 605 291 q 517 334 567 334 l 487 334 l 487 3 q 473 -11 486 -5 q 436 -18 460 -16 q 393 -20 412 -20 q 344 -20 374 -20 q 307 -19 313 -19 l 209 -19 q 84 -20 126 -19 q 65 -11 75 -16 l 65 1001 q 119 1020 65 1020 l 711 1020 q 945 947 865 1016 q 1025 751 1025 878 q 860 511 1025 587 q 915 485 890 502 q 956 449 939 468 q 984 402 972 429 q 1003 351 996 375 q 1015 295 1010 328 q 1022 239 1020 262 q 1027 182 1024 215 q 1032 130 1030 149 l 1032 71 q 1045 40 1034 60 q 1058 11 1055 20 q 1053 -3 1058 -3 m 483 732 q 484 672 483 692 q 491 621 484 652 q 511 575 498 589 q 565 581 540 575 q 614 601 591 587 q 652 641 638 614 q 666 705 666 668 q 659 742 666 726 q 637 768 651 758 q 609 783 623 777 q 575 791 595 789 q 543 794 555 793 q 515 795 532 795 l 499 795 q 486 776 489 790 q 483 732 483 762 z "},"S":{"ha":1006,"x_min":27,"x_max":993,"o":"m 494 -41 q 350 -27 414 -37 q 227 7 286 -16 q 127 66 168 31 q 60 157 87 102 q 27 286 33 213 q 41 301 27 299 q 54 300 45 300 q 225 302 111 300 q 396 305 340 305 q 418 296 410 305 q 432 274 427 287 q 444 247 437 260 q 468 225 451 234 q 513 216 486 216 q 571 234 546 216 q 597 285 597 253 q 575 323 597 306 q 518 352 553 341 q 450 371 482 363 q 384 385 418 379 q 345 392 350 391 q 107 503 180 437 q 35 685 35 570 q 65 831 35 766 q 143 937 95 896 q 257 1005 191 978 q 390 1044 323 1033 q 529 1055 457 1055 q 833 985 720 1055 q 893 922 874 943 q 931 872 913 901 q 956 816 949 844 q 966 749 963 789 l 941 724 q 629 719 802 719 q 594 724 608 719 q 577 736 581 728 q 568 751 572 743 q 560 767 564 760 q 544 779 556 774 q 513 784 532 784 q 495 782 507 784 q 468 775 484 780 q 440 762 452 771 q 429 741 429 753 q 444 713 429 726 q 476 696 459 701 q 518 684 493 690 q 549 675 543 677 q 726 629 697 638 q 936 507 874 583 q 993 330 993 436 q 976 212 993 265 q 932 123 960 159 q 865 58 905 86 q 782 12 824 29 q 688 -16 741 -5 q 590 -33 635 -28 q 494 -41 546 -38 z "},"T":{"ha":894,"x_min":-11,"x_max":903,"o":"m -11 812 q -9 849 -11 825 q -8 882 -8 873 q -9 906 -8 885 q -11 943 -11 927 q 3 1015 -11 1015 q 12 1013 8 1015 q 432 1017 154 1013 q 849 1020 711 1020 q 893 1014 884 1020 q 902 990 902 1008 l 902 971 q 903 867 902 936 q 903 762 903 798 q 884 727 903 727 q 771 728 846 727 q 658 730 696 730 l 658 3 q 635 -19 653 -18 q 566 -18 611 -19 q 496 -18 520 -18 q 494 -19 495 -18 q 410 -18 464 -19 q 330 -18 356 -18 l 289 -18 q 250 -19 275 -19 l 222 14 q 229 320 222 117 q 236 627 236 524 q 236 642 236 631 q 235 660 235 653 q 234 677 235 667 q 231 693 233 687 q 225 706 229 700 q 216 716 222 713 q 202 719 210 719 l 8 719 q -11 812 -11 724 z "},"U":{"ha":1095,"x_min":62,"x_max":1047,"o":"m 62 338 q 65 836 65 671 l 65 844 q 64 877 65 848 q 62 926 62 906 q 76 1019 62 1008 q 86 1018 79 1019 q 96 1017 93 1017 q 361 1023 210 1023 l 453 1023 q 468 1018 458 1022 q 480 1015 477 1015 q 483 900 481 981 q 487 759 486 819 q 487 642 488 699 l 487 377 q 488 336 487 352 q 495 300 490 321 q 513 268 500 279 q 547 258 526 258 q 593 282 575 258 q 610 338 610 306 l 610 586 q 611 729 610 631 q 612 882 613 827 l 612 930 q 610 953 612 938 q 609 977 609 968 l 609 1009 q 627 1028 611 1025 q 1017 1025 757 1028 l 1017 1015 l 1047 1015 q 1042 678 1042 870 l 1042 526 q 1040 433 1042 496 q 1039 339 1039 370 q 1011 183 1039 251 q 938 74 983 115 q 828 6 892 33 q 698 -31 764 -20 q 556 -41 632 -41 q 419 -32 483 -41 q 289 4 355 -22 q 176 71 223 30 q 97 180 128 111 q 62 338 66 248 z "},"V":{"ha":1054,"x_min":-24,"x_max":1075,"o":"m -24 1000 q -1 1020 -24 1020 q 192 1021 65 1020 q 380 1023 318 1023 q 413 1004 399 1023 l 530 328 q 568 512 541 393 q 604 669 596 630 l 672 1008 q 950 1024 677 1024 l 1059 1024 q 1075 1001 1072 1019 l 923 452 q 905 371 918 433 q 879 251 892 308 q 848 131 865 193 q 812 28 831 68 q 775 -19 793 -13 q 703 -17 751 -19 q 630 -15 654 -15 l 581 -15 q 480 -20 535 -19 q 364 -22 426 -22 q 265 -24 302 -23 l -24 1000 z "},"W":{"ha":1444,"x_min":-30,"x_max":1466,"o":"m 725 529 q 714 443 722 511 q 697 300 707 375 q 676 151 688 226 q 650 27 665 76 q 620 -22 635 -22 q 534 -20 591 -22 q 448 -19 477 -19 q 206 -24 317 -19 q 190 -9 197 -20 q 178 15 182 1 q 171 40 174 29 q 166 69 169 52 q 163 92 164 86 q 18 773 45 652 l -30 1001 q -11 1027 -30 1020 q 41 1025 5 1025 l 95 1025 q 142 1027 111 1025 q 186 1028 172 1028 q 224 1028 199 1029 q 256 1027 249 1027 l 296 1027 q 316 1025 302 1025 l 336 1025 q 361 979 349 1022 q 384 859 373 935 q 401 727 395 783 q 417 590 408 670 q 425 508 425 509 l 511 1024 q 563 1021 544 1021 l 605 1021 q 764 1022 660 1021 q 920 1023 868 1023 q 937 1012 934 1023 l 1022 451 q 1054 734 1035 606 l 1095 1009 q 1142 1025 1099 1025 l 1175 1025 q 1200 1025 1183 1026 q 1225 1024 1217 1024 l 1284 1024 q 1341 1023 1310 1024 q 1374 1023 1373 1023 l 1454 1023 q 1462 1014 1460 1023 q 1466 983 1464 1004 l 1247 -15 q 1215 -16 1234 -16 q 1180 -16 1196 -16 q 1144 -15 1164 -16 q 1111 -15 1124 -15 q 1026 -14 1083 -15 q 941 -14 970 -14 q 809 -18 938 -14 l 725 529 z "},"X":{"ha":1085,"x_min":-24,"x_max":1107,"o":"m -24 0 q 0 57 -24 19 q 165 313 58 145 q 290 510 272 481 q 0 1001 99 839 l 0 1008 q 8 1021 0 1015 q 137 1019 52 1021 q 266 1017 222 1017 q 298 1017 277 1018 q 326 1016 319 1016 l 373 1016 q 420 1017 388 1017 q 448 984 429 1015 q 484 911 466 953 l 553 750 q 625 906 555 754 l 651 960 q 686 1017 677 1017 q 688 1017 687 1017 q 691 1016 689 1017 q 694 1015 693 1015 q 814 1019 730 1016 q 960 1024 898 1022 q 1080 1025 1021 1025 q 1099 996 1099 1021 l 1099 987 q 793 502 859 609 l 929 294 q 1026 142 963 241 q 1107 16 1089 44 l 1107 3 q 1065 -22 1107 -22 q 903 -23 1010 -22 q 746 -24 797 -24 l 713 -24 q 659 -11 677 -24 l 535 252 q 520 217 530 240 q 502 173 511 195 q 481 126 493 152 q 458 77 470 100 q 434 35 446 55 q 408 0 421 14 q 381 -20 394 -15 q 159 -18 229 -18 q 75 -18 130 -18 q -8 -19 21 -19 q -24 0 -24 -13 z "},"Y":{"ha":1034,"x_min":-37,"x_max":1064,"o":"m 1064 991 q 904 685 1021 906 q 728 339 787 463 l 728 0 q 719 -17 724 -12 q 701 -22 713 -22 q 511 -23 637 -22 q 318 -24 385 -24 q 294 33 294 0 q 297 66 296 47 q 297 115 298 85 q 296 152 296 144 l 296 201 q 229 492 296 363 q 207 536 218 513 q 186 581 196 559 q 165 625 176 603 q 143 670 154 648 q 123 714 133 692 q 101 759 113 736 q 79 803 90 782 l -37 998 q -22 1014 -37 1006 q 6 1021 -8 1021 l 177 1021 q 283 1021 212 1021 q 389 1020 354 1020 q 410 1000 398 1019 q 434 951 421 982 q 458 885 446 920 q 483 808 471 850 q 504 734 495 766 q 523 669 513 702 q 534 625 532 635 l 659 1023 l 1041 1023 q 1055 1015 1050 1021 q 1064 991 1060 1008 z "},"Z":{"ha":945,"x_min":9,"x_max":930,"o":"m 9 11 l 9 33 q 12 170 9 91 q 16 250 14 250 q 36 273 17 249 q 107 362 55 298 q 214 495 159 427 l 412 736 q 231 734 351 736 q 49 732 111 732 q 36 743 39 735 q 33 765 33 751 l 33 846 q 30 895 33 853 q 27 960 27 937 q 41 1015 27 1015 q 713 1020 271 1015 l 857 1020 q 905 1013 897 1020 q 914 968 914 1006 q 913 944 914 959 q 911 928 911 930 l 911 924 q 904 818 911 865 q 888 742 897 772 q 858 679 879 711 q 820 628 836 646 q 769 571 804 609 q 712 507 734 534 l 515 274 l 906 274 q 918 263 913 274 q 925 231 923 253 q 927 192 927 208 q 928 146 928 176 l 928 84 q 929 60 928 78 q 930 33 930 42 q 920 -7 930 1 q 879 -16 909 -16 l 863 -16 q 466 -20 730 -16 q 71 -24 203 -24 q 37 -18 47 -24 q 9 11 27 -12 z "},"[":{"ha":701,"x_min":107,"x_max":667,"o":"m 109 -42 l 109 -24 q 109 76 109 -13 q 109 183 109 165 q 109 282 109 201 q 109 390 109 363 q 110 488 109 416 q 111 596 111 560 q 113 695 112 631 q 116 802 114 758 q 119 901 117 846 q 123 1006 121 956 q 159 1024 123 1024 l 579 1024 q 648 1004 632 1024 q 665 928 665 984 q 650 779 665 779 q 620 778 642 779 q 587 777 598 777 q 442 784 526 777 l 442 43 q 530 45 472 43 q 618 46 588 46 l 644 46 q 667 -60 667 43 l 667 -113 q 666 -134 667 -127 q 667 -151 666 -138 q 667 -170 667 -163 q 666 -190 667 -182 q 659 -205 665 -197 q 640 -216 652 -213 q 389 -218 557 -216 q 138 -221 222 -221 l 109 -187 q 107 -157 109 -168 l 107 -110 q 108 -76 107 -99 q 109 -42 109 -54 z "},"\\":{"ha":548,"x_min":-24,"x_max":581,"o":"m -24 1034 q -12 1050 -24 1044 q 128 1046 58 1046 q 142 1046 134 1046 q 156 1047 150 1046 q 171 1047 163 1047 q 184 1048 178 1048 l 581 -22 q 573 -39 581 -33 q 554 -47 566 -46 l 527 -47 q 499 -48 518 -47 q 471 -49 480 -49 q 435 -48 460 -49 q 397 -47 410 -47 q 337 -52 355 -47 l -24 1034 z "},"]":{"ha":703,"x_min":34,"x_max":593,"o":"m 578 -178 q 573 -196 578 -189 q 559 -208 568 -203 q 540 -214 550 -212 q 516 -217 530 -216 q 491 -217 502 -217 q 464 -216 479 -217 q 439 -216 448 -216 l 423 -216 q 332 -215 393 -215 q 241 -214 271 -215 l 62 -214 q 49 -199 54 -212 q 41 -157 43 -185 q 39 -111 39 -128 q 39 -55 39 -93 q 39 -11 39 -16 q 46 32 39 23 q 71 41 52 41 l 263 41 l 263 104 q 255 765 263 317 l 171 765 q 114 764 152 765 q 57 762 76 762 q 34 789 46 773 l 34 822 q 35 890 34 846 q 35 958 35 934 q 35 972 35 962 q 34 986 34 981 q 52 1036 34 1023 l 69 1036 q 151 1035 96 1036 q 233 1034 206 1034 q 326 1035 264 1034 q 418 1036 387 1036 q 499 1032 445 1036 q 581 1028 553 1028 q 591 1031 583 1028 q 593 1001 591 1010 l 593 968 q 592 906 593 947 q 591 844 591 865 l 591 823 q 585 343 592 660 q 578 -126 578 26 l 578 -178 z "},"^":{"ha":864,"x_min":94,"x_max":777,"o":"m 94 515 l 341 1030 l 519 1031 l 777 526 q 751 500 777 507 q 665 494 724 494 l 583 494 q 574 497 578 494 q 565 505 570 500 q 559 511 561 510 l 431 776 l 299 499 q 204 500 269 499 q 111 502 140 502 q 99 507 104 503 q 94 515 94 511 z "},"_":{"ha":712,"x_min":-16,"x_max":722,"o":"m -16 -132 q -12 -94 -16 -106 q 7 -83 -7 -83 l 151 -83 q 353 -82 212 -83 q 553 -81 494 -81 q 684 -84 667 -81 q 718 -108 712 -89 q 722 -152 722 -119 q 703 -182 722 -182 l 590 -182 q 9 -197 317 -182 l -12 -168 q -16 -132 -16 -136 z "},"`":{"ha":429,"x_min":-87,"x_max":404,"o":"m -87 1191 q -71 1213 -87 1204 q 220 1202 85 1202 l 247 1202 q 282 1158 256 1200 q 373 1012 335 1071 l 373 997 q 385 983 376 992 q 399 966 393 973 q 404 955 404 959 q 400 942 404 947 q 386 936 397 937 q 371 933 376 934 q 350 933 366 933 l 130 933 q -8 1090 98 972 l -37 1120 q -87 1191 -87 1171 z "},"a":{"ha":1005,"x_min":-22,"x_max":1023,"o":"m 374 168 q 365 127 370 153 q 357 87 361 102 q 345 57 353 73 q 318 33 336 41 q 271 26 300 26 l -22 26 l -22 49 q 83 380 14 157 q 190 718 152 603 l 190 716 q 258 922 213 782 q 260 926 258 924 q 271 941 266 936 l 637 939 q 741 922 731 939 l 741 905 q 755 873 742 899 q 852 581 821 672 l 852 572 q 864 528 854 553 q 887 474 873 503 q 905 429 900 445 l 932 331 q 1002 121 956 252 l 1002 122 l 1002 109 q 1013 83 1004 99 q 1023 60 1021 66 q 1015 35 1023 41 q 985 30 1007 30 l 670 30 q 655 32 659 31 q 645 35 652 33 q 634 40 637 37 q 631 49 631 43 l 605 152 q 600 166 602 165 q 583 168 597 168 l 374 168 m 407 410 l 407 407 l 407 410 m 556 491 q 544 552 552 510 q 529 626 536 595 q 513 685 522 658 l 513 718 q 494 738 507 732 l 494 736 q 461 646 477 733 l 461 613 q 455 604 460 608 q 450 600 450 600 q 414 439 428 500 q 410 416 414 433 q 407 396 407 399 l 575 396 q 563 460 575 414 l 563 475 q 559 483 562 477 q 556 491 556 488 z "},"b":{"ha":955,"x_min":60,"x_max":922,"o":"m 774 507 q 838 486 809 507 q 885 431 867 464 q 912 362 903 398 q 922 296 922 327 q 875 152 920 213 q 757 64 831 90 l 700 30 l 60 30 l 60 941 l 575 941 q 818 876 728 941 q 878 802 857 850 q 898 699 898 753 q 868 587 898 629 q 774 507 838 545 m 423 420 l 396 252 q 406 245 396 249 q 422 240 415 241 l 475 240 q 546 262 519 243 q 572 324 572 281 q 569 353 572 340 q 561 375 566 366 q 547 392 555 385 q 530 404 538 399 q 509 412 522 409 q 488 417 496 415 q 466 419 479 418 q 444 420 452 420 q 423 420 437 420 m 410 719 q 415 648 415 688 l 415 635 q 414 628 415 633 q 414 621 414 623 q 414 609 414 618 q 415 594 415 600 l 415 572 q 420 563 415 565 q 448 564 438 563 q 478 566 458 564 q 509 574 497 568 q 534 590 522 581 q 554 617 547 600 q 560 656 560 634 q 540 706 560 687 q 494 731 519 725 q 435 736 468 736 q 420 735 433 735 l 420 736 q 410 719 410 732 z "},"c":{"ha":943,"x_min":24,"x_max":920,"o":"m 494 5 q 290 44 380 5 q 142 150 200 82 q 55 308 85 218 q 24 506 24 399 l 24 515 q 27 539 25 520 q 29 563 28 557 q 31 585 29 569 q 35 609 33 602 q 38 631 36 616 q 44 654 41 645 q 51 676 47 663 q 60 701 55 689 q 71 724 64 712 l 71 723 q 149 836 102 788 q 254 909 197 883 q 370 947 311 935 q 496 959 430 959 q 648 942 581 959 q 761 898 716 926 q 838 830 806 870 q 886 749 869 791 q 909 658 902 707 l 909 600 q 899 585 907 590 q 881 579 890 580 q 854 578 871 578 l 564 578 l 564 636 q 545 678 561 659 q 505 697 528 697 q 468 688 484 697 q 443 665 452 680 q 428 631 433 650 q 420 590 422 612 q 417 547 418 569 q 418 505 416 525 q 418 486 418 492 l 418 410 q 419 377 418 393 q 428 336 421 361 q 450 295 434 311 q 491 279 467 279 q 529 301 517 279 q 550 353 542 323 q 570 395 559 384 q 651 394 597 395 q 732 393 705 393 q 789 394 751 393 q 845 395 826 395 l 895 395 q 920 368 918 395 l 920 342 q 820 124 905 207 q 608 19 735 41 l 608 15 q 494 5 562 5 z "},"d":{"ha":987,"x_min":69,"x_max":958,"o":"m 435 941 q 603 929 528 941 q 745 886 677 917 q 859 804 813 854 q 931 674 904 754 q 958 488 958 594 q 939 344 958 411 q 889 229 921 277 q 816 143 857 181 q 727 82 775 106 q 631 45 679 58 q 534 30 583 33 l 69 30 l 69 930 q 77 930 71 930 q 84 929 82 929 q 173 935 113 929 q 262 941 232 941 l 435 941 m 444 241 q 505 253 478 241 q 547 285 531 264 q 573 329 563 306 q 589 383 584 352 q 595 438 593 414 q 597 491 597 461 l 597 540 q 593 586 596 545 q 578 656 589 627 q 554 693 567 677 q 528 716 541 708 q 497 729 515 725 q 466 735 480 734 q 431 736 452 736 l 431 722 l 411 722 l 411 241 l 444 241 z "},"e":{"ha":791,"x_min":57,"x_max":774,"o":"m 57 876 q 60 924 57 917 q 80 933 66 933 l 96 933 q 111 932 107 933 l 146 932 q 354 935 215 932 q 562 939 492 939 l 742 939 q 760 921 760 937 l 760 694 q 757 687 759 690 q 754 683 755 684 q 748 679 753 682 q 741 673 743 675 l 426 673 l 426 589 l 456 589 q 576 591 495 589 q 700 594 656 594 q 726 587 719 594 q 732 566 732 579 q 731 554 732 562 q 730 543 730 546 l 730 517 q 730 506 730 514 q 731 491 731 497 l 731 472 q 732 442 731 457 q 734 416 734 427 l 734 399 q 728 388 730 391 q 722 385 726 385 l 722 387 q 635 383 696 387 q 537 380 574 380 l 429 380 l 429 293 q 445 292 434 293 q 461 292 456 292 q 551 294 492 292 q 637 296 611 296 l 724 296 q 769 288 760 296 q 774 279 772 283 l 774 62 q 769 41 774 48 q 749 33 764 33 l 77 33 l 57 50 l 57 876 z "},"f":{"ha":764,"x_min":60,"x_max":759,"o":"m 60 57 l 60 917 q 66 933 60 928 q 79 938 73 938 q 100 939 85 939 l 741 939 q 749 937 746 939 q 755 933 753 935 q 758 928 757 932 q 759 922 758 924 q 759 916 759 920 q 758 911 758 912 l 758 681 l 441 681 l 441 656 q 444 613 441 648 l 507 613 q 542 617 517 614 q 581 621 566 621 l 636 621 q 665 623 655 621 q 715 616 692 623 q 741 601 739 609 l 741 562 q 739 522 741 549 q 738 481 738 495 l 738 420 q 739 401 739 415 l 739 374 q 697 353 736 353 l 654 353 q 588 351 631 353 q 521 350 545 350 l 445 350 l 445 27 l 77 27 l 60 57 z "},"g":{"ha":1019,"x_min":27,"x_max":968,"o":"m 963 90 q 871 44 958 64 q 699 16 785 24 q 563 8 613 8 q 471 11 510 8 q 378 23 432 14 q 275 54 324 32 q 182 110 225 76 l 153 134 q 130 159 142 142 l 109 187 q 27 486 27 315 q 113 773 27 654 l 132 796 l 132 806 l 132 804 q 534 960 254 960 q 623 953 575 960 q 725 931 671 946 q 827 886 779 916 q 903 817 875 856 q 925 774 918 798 q 939 714 932 751 q 949 659 945 677 q 906 636 949 636 l 850 636 q 773 638 831 636 q 680 640 714 640 l 605 640 q 588 662 595 644 q 578 682 580 680 l 578 681 q 524 708 566 708 q 475 696 496 708 q 444 667 454 684 q 426 624 433 650 q 418 576 420 597 q 416 526 416 554 q 417 500 416 517 q 418 477 418 483 l 418 426 q 419 383 418 401 q 428 342 421 365 q 447 304 435 319 q 482 279 459 289 q 537 269 505 269 q 642 281 604 269 l 642 311 q 641 325 642 316 q 640 339 640 334 q 641 346 640 340 q 642 355 642 351 l 616 355 q 602 355 610 355 q 591 354 594 354 l 534 354 l 511 380 q 510 400 510 387 l 510 442 q 511 467 510 450 q 511 495 511 484 l 511 514 q 512 520 511 515 q 513 529 513 525 l 513 534 q 517 554 513 547 q 536 570 522 562 l 600 570 q 620 567 606 570 l 681 567 q 781 564 749 564 l 846 564 q 968 545 949 564 q 966 347 968 480 q 963 149 963 214 l 963 90 z "},"h":{"ha":1006,"x_min":55,"x_max":936,"o":"m 936 905 l 936 71 q 935 48 936 56 q 929 32 934 39 q 916 24 924 24 l 570 24 l 570 39 q 559 45 568 41 q 548 54 550 50 l 548 328 q 546 345 548 343 q 526 347 543 347 l 480 347 q 442 345 464 347 l 442 52 q 432 36 439 39 q 408 33 424 33 l 377 33 q 277 31 345 33 q 174 30 209 30 l 84 30 q 55 62 55 30 l 59 917 q 61 923 59 920 q 69 929 63 925 q 76 935 75 934 l 441 935 l 441 643 l 559 643 l 559 941 l 905 941 q 928 934 921 941 q 936 905 936 926 z "},"i":{"ha":505,"x_min":49,"x_max":437,"o":"m 49 26 l 49 917 q 60 927 50 922 q 72 933 70 931 l 437 933 l 437 50 q 430 31 433 36 q 420 26 427 26 l 49 26 z "},"j":{"ha":833,"x_min":-16,"x_max":770,"o":"m 770 326 q 747 214 770 266 q 684 126 723 162 q 596 64 646 90 q 495 26 547 38 q 393 14 443 14 l 372 14 q 355 13 366 14 q 339 12 345 12 q 58 114 153 12 l 58 113 q -16 301 -16 193 l -16 326 q -13 348 -16 341 q 3 355 -9 355 l 52 355 q 163 357 89 355 q 275 358 238 358 q 309 346 299 358 q 317 319 318 334 q 323 292 317 304 q 347 279 330 279 q 370 289 362 279 q 379 309 378 298 q 382 337 381 319 q 384 361 382 354 l 384 406 q 385 589 384 467 q 387 776 387 712 l 387 819 q 386 840 387 827 q 385 860 385 852 l 385 901 q 389 925 385 917 q 407 939 393 932 l 726 939 q 770 920 766 939 l 770 326 m 388 363 q 385 359 384 362 l 388 359 l 388 363 z "},"k":{"ha":997,"x_min":60,"x_max":1008,"o":"m 76 24 q 60 53 64 45 l 60 944 l 359 944 q 370 944 361 944 q 384 944 379 945 q 397 943 389 944 q 411 941 406 943 q 422 936 416 939 q 432 928 428 933 q 437 916 435 922 l 437 614 q 499 743 459 659 q 559 865 540 827 l 592 937 l 656 939 q 697 937 670 939 q 738 936 725 936 l 789 936 q 805 937 795 936 q 821 937 816 937 l 860 937 q 869 939 863 937 q 979 922 979 939 q 967 897 979 913 q 862 716 936 847 q 743 518 788 585 l 1008 61 q 1008 56 1008 60 q 1008 51 1008 52 q 1007 46 1008 50 q 1006 42 1007 43 q 1005 38 1006 40 q 1002 34 1004 35 q 998 30 1000 32 q 808 34 935 34 q 756 33 791 34 q 704 33 721 33 l 612 33 l 612 52 q 565 123 601 70 q 513 208 529 177 l 437 353 l 437 52 q 362 24 427 24 l 76 24 z "},"l":{"ha":764,"x_min":56,"x_max":760,"o":"m 72 27 q 65 33 70 30 q 56 46 61 37 l 56 339 q 60 516 56 397 q 65 697 65 635 q 62 755 65 711 q 60 825 60 799 q 83 941 60 920 q 293 939 224 939 l 358 939 q 393 937 381 939 q 400 939 395 939 q 412 937 401 939 q 429 936 422 936 q 457 907 446 934 l 457 898 q 456 876 457 890 q 456 854 456 862 l 456 825 q 447 813 455 821 q 439 799 439 804 l 439 304 l 727 304 q 743 303 738 304 q 754 297 749 302 q 760 281 760 292 l 760 54 q 694 27 754 27 l 72 27 z "},"m":{"ha":1337,"x_min":71,"x_max":1267,"o":"m 556 930 q 571 933 561 932 q 585 935 582 934 l 665 522 l 771 936 l 1248 936 q 1267 856 1267 936 l 1267 57 q 1261 39 1265 46 q 1247 30 1256 33 q 1233 27 1238 28 q 1215 27 1227 27 q 1085 26 1173 27 q 955 24 998 24 q 921 180 921 45 q 922 269 921 214 q 924 350 924 323 l 924 410 q 923 425 924 414 q 922 441 922 435 q 925 515 922 464 l 925 464 q 888 342 916 424 q 852 220 861 260 l 811 46 q 743 27 800 27 q 671 28 715 27 q 604 30 627 30 q 581 29 597 30 q 560 28 564 28 q 529 34 538 28 q 515 56 519 39 q 427 456 452 338 l 403 572 q 393 155 393 375 l 393 35 l 73 35 q 75 53 73 39 q 77 68 77 66 q 72 389 72 198 q 71 543 72 447 q 71 675 71 639 l 71 916 q 73 929 71 924 q 87 941 76 933 l 149 941 q 198 943 183 941 q 365 937 267 943 q 487 930 463 930 l 556 930 m 925 519 l 925 521 l 925 519 z "},"n":{"ha":1050,"x_min":46,"x_max":979,"o":"m 960 933 q 973 910 968 930 q 978 858 977 889 q 978 798 979 827 q 976 740 977 770 q 975 703 975 710 q 974 627 974 675 l 974 555 q 975 425 974 507 q 977 302 977 342 l 977 56 q 939 33 974 33 l 559 33 q 528 90 547 35 q 485 208 515 125 q 433 352 454 290 q 393 472 411 414 l 393 476 l 393 472 q 389 339 391 427 q 385 206 387 250 l 385 68 q 380 40 385 47 q 355 27 376 32 l 76 27 l 46 57 q 52 410 50 170 q 57 765 54 650 l 57 911 q 73 936 64 936 l 73 933 q 218 936 119 933 q 366 939 317 939 l 480 939 q 482 938 481 939 q 496 927 494 933 l 496 922 q 546 786 521 857 q 606 615 571 715 q 654 477 640 515 l 654 578 q 667 917 667 817 q 682 930 667 928 q 728 933 697 933 l 960 933 z "},"o":{"ha":986,"x_min":12,"x_max":951,"o":"m 14 491 l 12 506 q 37 660 25 616 q 132 830 63 762 l 148 846 q 247 911 180 884 l 273 911 q 491 963 339 939 q 571 957 529 963 q 663 938 612 951 q 761 896 714 925 q 840 827 808 867 l 840 808 q 951 496 951 669 q 861 179 951 302 l 834 145 q 756 79 803 106 q 658 36 710 51 q 558 16 606 22 q 463 9 510 9 q 329 26 393 9 q 211 78 266 43 q 113 165 155 113 q 45 289 71 216 q 14 450 19 362 l 14 491 m 387 486 q 477 247 387 247 q 521 256 503 247 q 551 286 540 266 q 570 326 563 305 q 581 376 578 346 q 585 430 584 407 q 586 486 586 453 l 586 510 q 582 578 586 545 q 568 643 578 610 q 538 696 558 676 q 488 716 517 716 q 387 515 387 716 l 387 486 z "},"p":{"ha":926,"x_min":56,"x_max":917,"o":"m 71 27 l 56 479 q 58 585 56 526 q 61 691 59 644 q 65 799 63 739 q 66 909 66 859 q 76 926 66 922 q 99 928 85 930 q 130 930 113 927 l 616 930 q 699 920 657 930 q 780 886 740 909 q 849 829 819 863 q 898 745 880 795 q 917 635 917 695 q 883 493 917 555 q 781 376 849 431 q 581 326 698 332 l 559 326 q 505 320 532 320 l 450 320 q 444 319 446 320 q 449 50 444 141 q 434 32 446 37 q 396 27 423 27 l 71 27 m 410 545 l 410 533 q 419 529 410 532 q 427 524 427 525 l 427 522 q 426 525 426 522 q 434 524 427 524 q 536 551 494 524 q 578 635 578 578 q 569 679 578 661 q 548 707 560 697 q 514 722 535 717 q 475 728 492 727 q 430 730 457 730 q 425 725 429 729 q 418 719 420 721 l 418 648 q 410 545 410 583 z "},"q":{"ha":986,"x_min":24,"x_max":990,"o":"m 24 491 q 183 865 24 718 l 222 897 q 269 922 244 914 l 320 939 q 393 955 341 946 q 483 963 444 963 l 510 963 q 700 928 614 963 q 841 833 785 894 q 927 691 897 773 q 958 513 958 608 l 958 496 q 888 285 951 366 l 963 285 l 990 262 l 990 46 q 967 22 984 26 q 905 26 959 22 q 815 30 850 30 q 641 18 753 30 q 467 5 528 5 q 276 47 368 5 l 173 99 l 153 130 l 153 144 l 153 142 l 133 165 q 114 191 124 181 l 114 209 q 46 352 68 285 q 24 491 24 419 m 382 490 q 383 454 382 465 q 384 416 383 442 q 387 374 385 389 q 394 336 390 359 q 407 299 399 313 q 425 271 414 285 q 450 251 435 257 q 484 244 465 244 q 594 442 594 244 l 594 529 q 481 728 594 728 q 382 490 382 728 z "},"r":{"ha":951,"x_min":62,"x_max":947,"o":"m 62 933 l 189 933 q 375 936 247 933 q 567 939 503 939 q 670 932 622 939 q 764 910 718 926 q 843 869 810 894 q 897 803 876 844 q 917 708 917 762 q 882 582 917 634 q 776 494 848 530 q 825 462 804 481 q 858 428 846 442 q 879 380 869 414 q 892 336 890 347 q 901 284 894 326 q 903 270 903 275 q 926 171 906 243 q 947 60 947 98 q 932 35 947 35 q 809 35 891 35 q 686 34 726 34 q 637 35 670 35 l 591 35 q 565 77 578 39 q 547 163 552 115 l 532 283 q 525 305 528 298 q 517 320 523 311 q 500 333 511 330 q 473 336 490 336 l 442 336 l 442 65 q 442 59 442 63 q 442 53 442 54 q 442 47 442 51 q 441 42 442 44 q 440 38 441 41 q 438 34 439 35 q 436 32 437 33 q 432 29 434 30 q 426 28 429 28 q 419 27 423 27 l 62 27 l 62 933 m 446 575 q 450 569 448 574 q 456 562 453 565 q 461 559 458 559 q 502 563 481 559 q 544 578 522 568 q 578 609 565 588 q 591 659 591 630 q 456 730 591 730 q 442 719 442 726 l 442 693 q 444 634 442 673 q 446 575 446 595 z "},"s":{"ha":891,"x_min":19,"x_max":872,"o":"m 586 670 q 556 675 568 670 q 538 689 545 681 q 523 705 531 697 q 496 719 514 713 q 449 724 477 724 q 428 723 440 724 q 400 713 415 721 q 385 694 385 706 q 398 672 385 682 q 426 660 410 663 q 462 651 442 656 q 490 642 482 646 l 590 617 q 669 591 634 605 q 744 554 705 578 q 810 503 784 531 q 854 431 837 474 q 872 336 872 388 q 856 225 872 274 l 856 227 q 816 149 842 183 q 755 92 790 115 q 684 54 720 69 q 601 30 648 39 q 516 16 553 20 q 431 8 479 12 q 145 76 218 19 l 145 84 q 54 184 83 130 q 19 307 24 239 q 34 323 19 323 q 46 322 38 323 q 58 321 54 321 l 127 321 q 155 323 137 323 l 172 323 q 182 321 178 323 q 316 323 221 323 l 347 323 q 368 315 361 323 q 380 295 376 307 q 390 271 385 283 q 411 251 396 259 q 450 243 426 243 q 498 257 477 243 q 519 297 519 271 q 508 320 519 309 q 473 340 496 331 q 432 354 450 349 q 384 367 414 359 q 345 377 353 374 l 304 377 q 92 487 157 420 q 27 656 27 554 q 53 779 27 724 q 120 867 78 833 q 218 925 161 902 q 332 959 274 949 q 453 968 391 968 q 658 931 564 968 q 802 836 753 895 q 830 791 819 818 q 844 748 841 764 q 852 694 847 732 l 833 667 l 718 667 q 654 669 699 667 q 586 670 610 670 z "},"t":{"ha":792,"x_min":-8,"x_max":798,"o":"m -8 686 l -8 930 l 781 930 q 795 922 792 928 q 798 903 798 916 l 798 686 q 779 670 796 670 l 586 670 l 586 46 q 585 43 586 45 q 585 39 585 40 q 584 37 585 39 q 583 34 583 35 q 581 32 582 33 q 579 30 581 30 q 577 28 578 29 q 573 26 575 27 q 569 25 572 26 q 564 24 567 25 l 521 24 q 434 30 434 24 q 418 29 429 30 q 401 28 407 28 l 347 28 q 303 28 332 28 q 258 27 274 27 l 220 27 l 193 46 l 193 193 q 198 361 193 232 q 203 564 203 490 l 203 582 q 204 599 203 587 q 205 616 205 610 q 204 641 205 622 q 203 665 203 659 l 34 665 q 5 670 19 665 q -8 686 -8 675 z "},"u":{"ha":983,"x_min":54,"x_max":936,"o":"m 57 774 q 54 852 54 788 q 68 939 54 925 l 437 939 l 437 369 q 488 281 437 281 q 524 300 510 281 q 538 346 538 319 l 538 446 q 543 746 543 743 q 540 917 543 864 q 559 944 540 936 l 936 944 l 936 838 q 925 507 927 581 l 925 465 q 924 444 925 457 q 924 425 924 430 q 925 392 924 401 l 925 339 q 906 203 925 245 l 906 201 q 844 113 884 150 q 751 55 803 76 q 644 25 699 35 q 528 16 589 16 q 499 20 509 16 l 483 20 q 463 14 483 14 l 463 12 q 376 19 448 12 l 345 19 q 262 38 302 24 q 185 78 222 52 q 120 140 148 104 q 74 228 92 176 q 54 340 56 279 q 55 438 55 376 q 55 552 54 500 q 58 651 56 603 l 58 670 q 59 681 58 673 q 60 692 60 688 q 58 722 60 702 q 57 753 57 743 l 57 776 l 57 774 z "},"v":{"ha":944,"x_min":-20,"x_max":958,"o":"m 519 597 q 545 695 524 623 q 570 811 566 768 l 570 859 q 572 870 570 860 q 574 882 574 880 q 576 893 574 884 q 579 904 578 901 q 584 913 581 907 q 591 921 587 919 q 599 927 594 924 q 611 932 604 930 q 625 933 617 933 l 934 933 q 942 928 935 932 q 953 920 949 923 q 958 914 958 916 l 731 97 q 712 49 724 68 q 687 30 701 30 l 223 30 q 198 132 212 73 q 170 250 184 191 q 144 353 155 309 l -20 913 q 2 933 -20 928 l 2 936 q 125 937 43 936 q 245 939 208 939 l 356 939 q 362 937 361 939 q 367 930 364 935 q 373 921 369 925 l 470 358 l 530 522 l 519 597 z "},"w":{"ha":1293,"x_min":-17,"x_max":1307,"o":"m 380 478 q 402 590 392 528 q 420 701 413 652 q 436 821 427 750 q 451 933 445 892 l 842 933 q 846 898 844 917 q 850 863 848 880 q 855 827 852 846 q 859 790 857 808 q 863 754 861 773 q 868 718 865 735 q 872 683 870 701 q 877 648 875 665 l 906 456 l 961 923 q 966 930 962 927 q 977 934 970 932 q 989 937 983 936 q 1006 938 996 938 q 1023 939 1017 939 q 1040 939 1029 939 q 1056 939 1052 939 q 1118 937 1078 939 q 1181 936 1159 936 q 1195 937 1183 936 q 1213 937 1206 937 q 1243 933 1239 937 q 1255 934 1246 933 q 1267 935 1263 935 q 1278 934 1274 935 q 1287 931 1282 933 q 1296 925 1292 928 q 1302 916 1299 922 q 1307 901 1305 909 l 1109 35 l 713 35 l 637 471 l 591 111 q 587 89 590 107 q 582 64 584 71 q 576 45 581 57 q 566 29 572 34 q 551 24 560 24 q 477 26 526 24 q 402 28 427 28 q 288 26 359 28 q 185 24 218 24 l 163 24 l -17 867 l -13 916 q -13 921 -13 917 q -13 926 -13 925 q -12 930 -13 927 q -10 935 -12 933 q -6 938 -9 936 q 1 941 -3 940 q 29 939 20 939 l 74 939 q 87 941 87 939 l 111 941 q 120 942 113 941 q 134 943 127 943 l 153 943 q 174 943 160 943 q 196 944 189 944 l 241 944 l 241 941 l 286 941 q 318 935 307 941 q 330 909 330 928 l 380 478 z "},"x":{"ha":960,"x_min":-29,"x_max":979,"o":"m -29 54 l 253 491 l 3 887 l 12 910 q 5 914 11 911 q -1 920 -1 918 q 13 936 -1 928 l 50 936 q 172 937 130 936 l 212 937 q 291 933 252 937 l 318 933 q 337 932 324 933 q 356 932 350 932 q 366 932 359 932 q 375 933 372 933 q 388 925 383 931 q 397 907 393 918 q 402 892 401 895 q 418 856 406 885 q 437 811 431 827 l 437 812 q 450 787 442 804 q 460 765 458 770 l 484 718 q 486 711 486 714 q 489 705 487 709 q 550 838 496 722 l 573 884 q 606 930 596 930 l 934 930 q 951 926 943 927 q 963 924 960 925 q 967 918 966 923 q 969 899 969 912 l 939 854 q 810 657 892 786 q 702 487 728 528 l 979 54 q 968 34 979 39 q 938 28 958 28 l 578 28 q 526 140 564 59 q 467 263 488 222 q 441 206 462 252 q 406 131 420 160 q 371 70 392 102 q 334 28 351 38 q 263 29 310 28 q 193 30 217 30 l 169 30 q 116 31 153 30 q 60 33 79 33 l -5 33 q -29 54 -29 41 z "},"y":{"ha":926,"x_min":-22,"x_max":951,"o":"m 370 936 l 476 601 q 572 876 528 739 q 581 897 574 882 q 589 921 587 911 q 662 937 594 937 q 675 937 667 937 q 689 936 684 936 q 928 939 800 937 q 951 905 944 937 l 643 348 l 654 302 q 655 182 654 263 q 656 71 656 102 l 656 50 q 646 35 654 41 q 624 27 638 28 q 600 25 610 25 q 570 25 589 24 q 544 26 551 26 l 285 26 l 263 54 l 263 338 l 106 672 l 34 774 q -22 917 -22 885 q 11 936 -22 936 l 370 936 z "},"z":{"ha":842,"x_min":5,"x_max":822,"o":"m 5 57 l 5 99 q 6 119 5 104 q 7 141 7 133 l 7 176 q 14 271 7 264 q 290 608 106 378 l 348 675 q 249 675 330 676 q 146 674 168 674 l 129 674 q 106 673 121 674 q 84 673 92 673 l 41 673 q 24 696 24 681 l 24 930 l 776 930 q 792 930 788 930 q 802 926 796 930 q 808 914 807 922 q 810 891 810 906 q 808 871 810 883 q 807 857 807 860 l 810 849 q 809 800 810 824 q 808 760 809 777 q 807 732 808 744 q 806 713 806 720 q 806 705 806 706 q 800 689 800 691 l 800 678 q 655 515 750 621 q 524 366 561 409 l 494 328 l 461 293 l 800 293 q 822 239 822 293 l 822 62 q 813 35 822 42 q 784 27 804 27 l 26 27 q 14 42 22 31 q 5 57 6 52 z "},"{":{"ha":700,"x_min":28,"x_max":627,"o":"m 477 -212 q 385 -208 426 -212 q 300 -191 343 -203 q 229 -158 257 -178 q 182 -101 200 -137 q 165 -16 165 -65 q 163 66 163 24 q 162 131 162 107 q 162 179 162 155 q 159 216 161 203 q 154 240 157 228 q 143 257 151 252 q 125 266 135 262 q 98 271 115 269 q 79 274 90 273 q 61 276 68 275 q 46 279 54 277 q 36 284 39 281 q 33 293 33 288 q 31 385 33 324 q 28 479 28 445 q 46 533 28 525 q 84 535 68 533 q 119 543 100 537 q 148 561 137 548 q 160 593 158 574 l 160 788 q 170 870 160 833 q 194 930 179 906 q 233 972 209 954 q 281 1000 258 990 q 337 1015 304 1009 q 395 1023 370 1021 q 456 1025 420 1025 l 602 1025 l 627 1002 q 626 891 627 964 q 625 780 625 818 q 600 758 621 758 q 577 759 592 758 q 556 760 562 760 q 510 746 525 760 q 494 694 494 733 l 494 534 q 382 401 494 448 l 406 401 q 473 335 456 378 q 490 206 490 292 l 490 182 q 489 157 490 173 q 488 133 488 142 q 491 91 488 105 q 502 63 493 76 q 529 46 511 51 q 578 42 547 42 q 618 27 613 42 l 618 -71 q 600 -212 618 -205 l 477 -212 z "},"|":{"ha":334,"x_min":47,"x_max":279,"o":"m 47 -27 q 54 488 47 139 q 60 1004 60 837 l 60 1023 q 65 1042 60 1036 q 80 1050 71 1049 q 98 1051 88 1050 q 117 1051 108 1051 l 210 1051 q 229 1051 219 1051 q 248 1051 239 1051 q 263 1045 257 1050 q 269 1028 269 1040 l 269 769 q 279 195 274 387 l 279 -27 q 209 -54 272 -54 l 168 -54 q 69 -50 92 -54 l 47 -27 z "},"}":{"ha":701,"x_min":58,"x_max":655,"o":"m 58 -187 q 60 -121 59 -163 q 62 -43 61 -78 q 62 24 62 -7 q 83 46 62 44 l 121 46 q 174 61 155 46 q 193 117 193 75 q 192 156 193 123 q 191 212 191 189 q 218 346 195 306 q 307 404 241 385 q 219 459 241 423 q 197 578 197 495 q 197 612 196 590 q 198 640 198 633 l 198 692 q 179 748 198 733 q 102 762 159 762 q 76 765 83 762 q 68 779 68 768 q 68 840 68 798 q 69 901 69 881 q 68 924 69 914 l 68 952 q 81 1015 68 1004 q 123 1012 109 1012 q 132 1013 126 1012 q 141 1013 138 1013 q 156 1013 144 1013 q 171 1012 168 1012 q 179 1013 171 1013 l 228 1013 q 235 1013 231 1013 q 293 1013 273 1013 q 349 1007 313 1012 q 405 993 385 1002 q 452 964 425 983 q 492 917 478 945 q 516 847 506 890 q 526 749 526 804 l 526 719 q 524 652 526 693 q 522 597 522 611 q 531 561 522 575 q 558 541 541 547 q 591 533 576 535 q 627 532 606 532 q 655 509 655 524 q 654 458 655 492 q 654 404 654 423 q 654 348 654 385 q 655 292 655 311 q 640 276 654 280 q 607 271 626 271 q 570 268 589 270 q 539 253 552 265 q 526 218 526 241 q 528 182 526 194 l 528 138 q 530 99 528 126 q 532 57 532 72 q 519 -58 532 -9 q 485 -138 506 -108 q 433 -186 465 -168 q 370 -211 402 -204 q 297 -217 337 -217 l 81 -217 l 58 -187 z "},"~":{"ha":883,"x_min":96,"x_max":776,"o":"m 288 517 q 358 501 322 517 q 422 466 395 485 q 494 431 450 447 q 586 415 538 415 q 634 429 614 415 q 675 471 655 444 l 697 499 l 697 522 l 697 507 q 712 510 703 510 q 750 438 724 510 q 776 338 776 366 l 776 332 q 773 326 773 330 q 687 236 729 266 q 589 206 646 206 q 519 217 552 206 l 441 251 q 425 259 437 252 q 408 267 412 265 q 393 274 404 269 q 376 281 382 279 q 359 287 370 283 q 340 292 349 290 q 322 294 332 293 q 301 296 311 296 q 239 274 264 296 q 191 212 215 253 l 168 212 q 155 216 163 212 q 144 220 146 219 l 117 297 q 98 380 96 351 q 181 483 136 448 q 288 517 227 517 z "},"":{"ha":488,"x_min":0,"x_max":0,"o":""},"":{"ha":463,"x_min":-68,"x_max":528,"o":"m 132 1188 q 166 1179 153 1188 q 183 1157 178 1170 q 191 1130 187 1143 q 206 1108 195 1117 q 236 1099 216 1099 q 267 1109 256 1099 q 282 1134 279 1120 q 292 1161 286 1147 q 307 1180 298 1175 q 370 1178 329 1179 q 423 1177 410 1178 l 500 1177 q 528 1156 528 1177 q 469 1014 513 1072 q 364 930 424 956 q 231 905 304 905 q 33 971 106 905 q -68 1158 -40 1038 l -68 1173 q -57 1180 -66 1175 q -46 1188 -48 1185 l 132 1188 z "},"":{"ha":977,"x_min":4,"x_max":962,"o":"m 559 1048 q 685 1038 626 1048 q 795 1002 743 1027 q 883 941 846 977 q 941 849 920 904 q 962 727 962 795 q 960 709 962 715 q 956 701 958 703 q 947 697 954 700 q 662 700 854 697 q 620 709 634 701 q 603 728 606 718 q 598 750 600 739 q 587 767 596 760 q 556 774 577 774 q 502 684 502 769 q 503 645 502 669 q 505 610 505 621 l 704 610 q 705 521 704 581 q 705 431 705 460 q 701 411 705 418 q 682 404 696 404 l 570 404 q 538 402 551 404 q 518 396 526 401 q 507 385 510 391 q 502 368 503 380 q 502 346 501 356 q 504 316 503 336 q 505 279 505 296 q 713 282 648 282 l 749 282 q 838 285 779 282 q 928 288 898 288 q 946 274 942 285 q 949 240 949 264 l 949 221 q 951 122 949 189 q 952 23 952 56 q 938 -11 952 -3 q 898 -19 923 -19 l 49 -19 l 30 0 q 27 46 30 16 l 27 90 q 26 136 27 102 q 24 190 24 169 q 47 266 24 256 l 129 266 l 129 397 q 104 398 120 397 q 79 399 87 399 q 46 396 68 396 q 17 403 29 396 q 4 423 4 410 q 5 475 4 442 q 5 525 5 509 q 5 546 5 530 q 4 570 4 562 q 24 616 4 613 l 134 616 q 134 651 134 627 q 133 686 133 675 q 155 821 133 760 q 215 923 177 882 q 308 994 254 965 q 425 1035 361 1022 q 559 1048 488 1048 z "},"":{"ha":1233,"x_min":127,"x_max":911,"o":"m 187 220 q 289 186 227 199 q 396 174 350 174 q 424 180 411 174 q 437 201 437 186 q 431 212 437 206 q 415 224 425 218 q 397 233 406 229 q 378 242 389 237 q 365 247 367 246 l 282 279 q 127 480 127 340 q 163 593 127 542 q 262 669 198 645 q 193 731 217 690 q 168 826 168 771 q 269 989 178 935 q 513 1044 359 1044 q 708 1033 593 1044 q 826 1002 823 1021 q 827 919 826 973 q 827 836 827 865 q 811 808 827 808 q 782 814 804 810 q 750 821 760 819 q 722 826 741 823 q 690 831 703 830 q 661 834 677 833 q 629 836 644 836 q 601 831 613 836 q 589 819 589 827 q 606 800 589 809 q 659 779 623 791 q 701 765 694 768 l 732 765 q 864 674 819 731 q 911 549 908 617 q 777 323 911 389 q 836 259 814 298 q 857 175 857 219 q 835 82 857 123 q 780 18 812 41 q 703 -20 747 -5 q 622 -40 659 -35 q 549 -45 585 -45 q 171 -14 352 -45 l 151 14 q 149 161 149 64 q 175 222 149 222 q 181 221 177 222 q 187 220 185 220 m 461 575 q 438 555 451 575 q 426 524 426 534 q 441 487 426 504 q 477 460 456 471 q 522 442 498 450 q 561 432 545 435 q 582 429 576 429 q 611 439 592 429 q 629 467 629 450 q 606 504 629 484 q 555 535 582 523 q 496 561 528 548 q 461 575 465 573 z "},"":{"ha":446,"x_min":-79,"x_max":556,"o":"m -79 971 l -79 1013 q -72 1146 -79 1083 q -54 1210 -66 1210 l 168 1210 q 184 1177 184 1204 l 184 960 q 119 941 179 941 q 94 942 110 941 q 72 943 77 943 q 3 940 47 943 q -57 937 -42 938 q -79 971 -68 956 m 293 968 q 315 1210 293 1198 q 387 1207 363 1207 q 439 1208 404 1207 q 498 1210 475 1210 q 553 1194 551 1210 q 556 963 556 1039 q 543 947 553 947 q 540 948 540 947 q 424 942 499 945 q 315 937 349 940 l 293 964 l 293 968 z "},"":{"ha":595,"x_min":73,"x_max":507,"o":"m 73 844 q 97 921 80 886 q 139 986 113 957 q 206 1033 165 1016 q 296 1050 246 1050 q 444 989 380 1050 q 507 838 507 929 l 507 830 q 446 686 507 751 q 305 621 385 621 q 225 635 265 621 q 151 674 186 648 q 95 744 116 700 q 73 844 73 788 z "},"":{"ha":434,"x_min":19,"x_max":512,"o":"m 19 951 l 165 1200 l 296 1196 q 317 1196 301 1196 q 352 1194 333 1195 q 393 1193 370 1194 q 436 1191 416 1192 q 474 1186 457 1189 q 502 1181 491 1184 q 512 1173 512 1177 l 328 967 q 306 946 317 954 q 288 933 296 938 q 267 926 280 928 q 245 923 253 924 q 216 922 237 923 q 182 921 195 922 l 35 921 l 19 951 z "},"":{"ha":921,"x_min":56,"x_max":879,"o":"m 643 -14 q 613 -14 633 -14 q 586 -14 593 -14 q 565 -13 579 -14 q 546 -8 551 -12 q 532 0 541 -5 q 521 14 524 5 q 515 36 518 23 q 513 65 513 48 l 513 52 q 464 -7 493 18 q 404 -33 434 -33 l 404 -271 q 220 -279 285 -279 l 198 -279 q 174 -278 189 -278 l 119 -278 q 106 -279 115 -278 q 92 -279 97 -279 q 56 -262 56 -279 l 56 690 q 57 699 56 695 q 59 706 58 703 q 63 712 60 709 q 68 715 66 714 q 74 718 70 717 q 81 719 78 719 q 89 720 84 720 q 97 720 94 720 q 105 720 100 720 q 114 720 111 720 l 393 718 q 410 709 405 715 q 418 689 416 703 l 418 304 q 419 266 418 279 q 423 236 420 252 q 435 213 427 220 q 456 206 443 206 q 487 223 478 206 q 495 266 495 240 l 503 694 q 518 711 503 711 l 857 711 q 869 707 867 709 q 871 697 871 704 q 879 684 872 690 q 877 445 879 602 q 875 210 875 288 l 875 5 q 838 -14 870 -14 l 643 -14 z "},"":{"ha":536,"x_min":76,"x_max":450,"o":"m 76 342 q 88 376 81 353 q 100 418 95 399 q 118 460 106 437 q 146 498 130 483 q 192 524 163 513 q 260 534 222 534 l 290 534 q 401 477 351 534 q 450 353 450 419 q 397 215 450 271 q 269 159 344 159 q 135 214 188 159 q 76 342 81 269 z "},"":{"ha":410,"x_min":-7,"x_max":418,"o":"m -7 -293 q 4 -258 -7 -282 l 4 -239 q 16 -217 12 -224 q 29 -200 20 -210 q 49 -190 39 -191 l 92 -206 q 163 -220 130 -222 q 220 -193 220 -220 q 190 -176 218 -176 q 176 -179 182 -176 l 155 -179 l 155 -187 q 127 -182 136 -187 l 98 -160 q 78 -145 88 -155 q 64 -123 68 -135 l 150 26 l 271 26 q 293 3 293 24 q 287 -14 293 -3 q 273 -35 281 -24 q 263 -52 265 -47 q 377 -88 336 -52 q 418 -183 418 -124 q 386 -274 418 -235 q 304 -331 354 -313 q 194 -350 254 -350 q 61 -333 129 -350 q -7 -293 -7 -316 z "},"":{"ha":453,"x_min":31,"x_max":406,"o":"m 31 57 q 34 269 31 94 l 34 410 q 37 549 34 457 q 41 677 40 642 l 41 694 q 52 711 41 711 l 388 711 q 404 692 404 711 l 404 114 q 405 79 404 102 q 406 42 406 56 q 405 13 406 28 q 399 -9 404 -2 q 388 -16 395 -16 l 33 -16 q 32 20 33 -6 q 31 57 31 47 z "},"":{"ha":1111,"x_min":-33,"x_max":1140,"o":"m 311 1345 q 327 1367 311 1359 q 617 1356 483 1356 l 644 1356 q 680 1313 653 1354 q 770 1166 732 1225 l 770 1152 q 782 1137 774 1147 q 796 1121 791 1128 q 802 1109 802 1114 q 798 1097 802 1101 q 784 1090 794 1092 q 768 1088 773 1088 q 747 1088 763 1088 l 528 1088 q 389 1245 495 1127 l 361 1275 q 311 1345 311 1325 m -33 0 q 60 315 9 155 q 187 698 111 475 q 290 1006 262 921 q 301 1023 298 1020 l 415 1023 q 533 1024 455 1023 q 651 1025 611 1025 l 765 1025 q 782 1025 775 1025 q 798 1023 789 1025 q 813 1019 808 1022 q 823 1011 819 1017 q 827 998 827 1006 l 1140 7 q 1130 -11 1140 -6 q 1093 -16 1120 -16 l 1031 -16 q 950 -17 1004 -16 q 869 -18 897 -18 q 837 -19 861 -18 q 795 -19 812 -20 q 757 -17 778 -19 q 724 -10 736 -16 q 708 5 711 -4 l 708 50 q 684 113 701 84 q 648 141 667 141 l 415 141 l 380 -3 q 304 -19 372 -19 l 250 -19 q 163 -21 220 -19 q 76 -23 105 -23 l 57 -23 q 23 -24 46 -23 q -14 -24 -1 -24 q -33 0 -19 -19 m 438 412 l 457 380 l 502 380 q 601 386 556 380 q 646 407 646 393 l 559 798 q 526 751 547 798 q 492 647 505 705 l 438 412 z "},"":{"ha":1111,"x_min":-33,"x_max":1140,"o":"m 312 1122 l 458 1371 l 589 1367 q 610 1367 594 1367 q 645 1365 626 1366 q 686 1364 663 1364 q 729 1361 709 1363 q 767 1357 750 1360 q 794 1352 784 1355 q 805 1344 805 1348 l 621 1138 q 599 1117 610 1125 q 581 1104 589 1109 q 559 1097 573 1099 q 538 1094 546 1095 q 509 1093 530 1094 q 475 1092 488 1093 l 328 1092 l 312 1122 m -33 0 q 60 315 9 155 q 187 698 111 475 q 290 1006 262 921 q 301 1023 298 1020 l 415 1023 q 533 1024 455 1023 q 651 1025 611 1025 l 765 1025 q 782 1025 775 1025 q 798 1023 789 1025 q 813 1019 808 1022 q 823 1011 819 1017 q 827 998 827 1006 l 1140 7 q 1130 -11 1140 -6 q 1093 -16 1120 -16 l 1031 -16 q 950 -17 1004 -16 q 869 -18 897 -18 q 837 -19 861 -18 q 795 -19 812 -20 q 757 -17 778 -19 q 724 -10 736 -16 q 708 5 711 -4 l 708 50 q 684 113 701 84 q 648 141 667 141 l 415 141 l 380 -3 q 304 -19 372 -19 l 250 -19 q 163 -21 220 -19 q 76 -23 105 -23 l 57 -23 q 23 -24 46 -23 q -14 -24 -1 -24 q -33 0 -19 -19 m 438 412 l 457 380 l 502 380 q 601 386 556 380 q 646 407 646 393 l 559 798 q 526 751 547 798 q 492 647 505 705 l 438 412 z "},"":{"ha":1111,"x_min":-33,"x_max":1140,"o":"m 218 1136 l 342 1309 q 358 1332 349 1318 q 372 1351 367 1345 q 389 1363 377 1356 q 421 1373 401 1370 q 475 1377 441 1375 l 715 1383 l 895 1133 q 890 1122 895 1127 q 877 1114 885 1117 q 857 1111 868 1111 l 811 1111 q 616 1105 703 1111 q 589 1127 600 1114 q 567 1163 578 1141 q 552 1192 556 1186 q 537 1168 549 1190 q 511 1129 525 1147 q 486 1111 496 1111 l 273 1111 q 234 1117 251 1111 q 218 1136 218 1124 m -33 0 q 60 315 9 155 q 187 698 111 475 q 290 1006 262 921 q 301 1023 298 1020 l 415 1023 q 533 1024 455 1023 q 651 1025 611 1025 l 765 1025 q 782 1025 775 1025 q 798 1023 789 1025 q 813 1019 808 1022 q 823 1011 819 1017 q 827 998 827 1006 l 1140 7 q 1130 -11 1140 -6 q 1093 -16 1120 -16 l 1031 -16 q 950 -17 1004 -16 q 869 -18 897 -18 q 837 -19 861 -18 q 795 -19 812 -20 q 757 -17 778 -19 q 724 -10 736 -16 q 708 5 711 -4 l 708 50 q 684 113 701 84 q 648 141 667 141 l 415 141 l 380 -3 q 304 -19 372 -19 l 250 -19 q 163 -21 220 -19 q 76 -23 105 -23 l 57 -23 q 23 -24 46 -23 q -14 -24 -1 -24 q -33 0 -19 -19 m 438 412 l 457 380 l 502 380 q 601 386 556 380 q 646 407 646 393 l 559 798 q 526 751 547 798 q 492 647 505 705 l 438 412 z "},"":{"ha":1111,"x_min":-33,"x_max":1140,"o":"m 259 1126 l 259 1168 q 266 1301 259 1238 q 283 1364 272 1364 l 506 1364 q 522 1332 522 1359 l 522 1115 q 457 1096 517 1096 q 431 1097 448 1096 q 410 1097 415 1097 q 340 1095 385 1097 q 281 1092 296 1093 q 259 1126 270 1110 m 631 1123 q 652 1364 631 1353 q 724 1362 701 1362 q 777 1363 742 1362 q 836 1364 812 1364 q 891 1348 888 1364 q 894 1118 894 1194 q 880 1101 890 1101 q 878 1103 878 1101 q 762 1097 837 1099 q 652 1092 686 1095 l 631 1119 l 631 1123 m -33 0 q 60 315 9 155 q 187 698 111 475 q 290 1006 262 921 q 301 1023 298 1020 l 415 1023 q 533 1024 455 1023 q 651 1025 611 1025 l 765 1025 q 782 1025 775 1025 q 798 1023 789 1025 q 813 1019 808 1022 q 823 1011 819 1017 q 827 998 827 1006 l 1140 7 q 1130 -11 1140 -6 q 1093 -16 1120 -16 l 1031 -16 q 950 -17 1004 -16 q 869 -18 897 -18 q 837 -19 861 -18 q 795 -19 812 -20 q 757 -17 778 -19 q 724 -10 736 -16 q 708 5 711 -4 l 708 50 q 684 113 701 84 q 648 141 667 141 l 415 141 l 380 -3 q 304 -19 372 -19 l 250 -19 q 163 -21 220 -19 q 76 -23 105 -23 l 57 -23 q 23 -24 46 -23 q -14 -24 -1 -24 q -33 0 -19 -19 m 438 412 l 457 380 l 502 380 q 601 386 556 380 q 646 407 646 393 l 559 798 q 526 751 547 798 q 492 647 505 705 l 438 412 z "},"":{"ha":1055,"x_min":27,"x_max":1036,"o":"m 316 -293 q 327 -258 316 -282 l 327 -239 q 338 -217 334 -224 q 352 -200 342 -210 q 372 -190 361 -191 l 415 -206 q 486 -220 453 -222 q 543 -193 543 -220 q 513 -176 541 -176 q 499 -179 505 -176 l 477 -179 l 477 -187 q 450 -182 459 -187 l 420 -160 q 401 -145 411 -155 q 387 -123 391 -135 l 473 26 l 594 26 q 616 3 616 24 q 610 -14 616 -3 q 596 -35 604 -24 q 586 -52 588 -47 q 700 -88 659 -52 q 741 -183 741 -124 q 709 -274 741 -235 q 627 -331 677 -313 q 517 -350 576 -350 q 384 -333 452 -350 q 316 -293 316 -316 m 1036 363 q 983 183 1025 262 q 875 56 941 105 q 725 -18 809 7 q 543 -43 642 -43 q 374 -23 450 -43 q 246 30 298 -3 q 154 111 194 63 q 90 209 114 159 q 52 320 66 260 q 32 432 37 380 q 27 540 27 484 l 27 600 q 73 778 34 699 q 169 905 113 857 q 298 986 225 954 q 439 1030 370 1018 q 575 1043 507 1043 q 768 1017 684 1043 q 905 943 852 991 q 987 834 958 896 q 1025 697 1017 773 l 1025 632 q 876 610 1025 610 q 778 612 841 610 q 696 613 715 613 q 686 612 692 613 q 675 612 679 612 q 649 626 658 612 q 636 662 640 641 q 629 704 633 683 q 611 740 625 725 q 572 754 597 754 q 530 746 548 754 q 500 721 511 738 q 483 686 490 703 q 472 640 475 668 q 468 592 469 612 q 467 541 467 573 q 465 494 466 509 q 464 464 465 486 q 463 429 463 442 q 552 255 463 260 q 592 273 576 255 q 613 312 608 290 q 627 358 619 334 q 643 391 634 382 l 1012 391 q 1036 363 1034 389 z "},"":{"ha":886,"x_min":62,"x_max":873,"o":"m 168 1364 q 184 1386 168 1378 q 475 1375 340 1375 l 502 1375 q 537 1332 511 1373 q 628 1185 590 1244 l 628 1171 q 640 1156 631 1166 q 654 1140 648 1147 q 659 1128 659 1133 q 655 1116 659 1120 q 641 1109 652 1111 q 626 1107 631 1107 q 605 1107 621 1107 l 385 1107 q 247 1264 353 1146 l 218 1294 q 168 1364 168 1344 m 62 24 l 62 50 q 65 393 62 166 q 68 735 68 619 l 68 1016 l 857 1016 l 857 793 q 857 783 857 791 q 857 772 857 775 q 857 763 857 770 q 854 753 856 755 q 849 745 852 750 q 842 738 846 740 q 831 734 838 736 q 817 732 825 732 l 798 732 q 477 738 622 732 q 473 704 476 727 q 468 664 470 682 q 467 631 467 647 l 789 631 q 817 625 810 631 q 823 608 823 620 q 823 597 823 604 q 822 586 822 589 q 824 490 822 553 q 826 393 826 426 q 815 380 824 380 q 808 382 811 380 q 491 372 594 372 l 473 372 l 473 274 q 648 279 534 274 q 819 285 762 285 q 871 266 864 285 l 871 214 q 872 118 871 182 q 873 22 873 54 q 846 -12 873 -12 q 738 -12 811 -12 q 627 -11 665 -11 q 347 -16 529 -11 q 84 -22 165 -21 l 65 0 q 62 24 62 19 z "},"":{"ha":886,"x_min":62,"x_max":873,"o":"m 203 1265 l 350 1514 l 480 1511 q 502 1510 486 1511 q 536 1509 517 1510 q 577 1508 555 1508 q 621 1505 600 1507 q 659 1501 642 1503 q 686 1495 675 1499 q 696 1488 696 1492 l 513 1282 q 491 1261 501 1269 q 472 1248 480 1253 q 451 1241 465 1243 q 430 1238 437 1238 q 400 1237 422 1238 q 366 1236 379 1236 l 220 1236 l 203 1265 m 62 24 l 62 50 q 65 393 62 166 q 68 735 68 619 l 68 1016 l 857 1016 l 857 793 q 857 783 857 791 q 857 772 857 775 q 857 763 857 770 q 854 753 856 755 q 849 745 852 750 q 842 738 846 740 q 831 734 838 736 q 817 732 825 732 l 798 732 q 477 738 622 732 q 473 704 476 727 q 468 664 470 682 q 467 631 467 647 l 789 631 q 817 625 810 631 q 823 608 823 620 q 823 597 823 604 q 822 586 822 589 q 824 490 822 553 q 826 393 826 426 q 815 380 824 380 q 808 382 811 380 q 491 372 594 372 l 473 372 l 473 274 q 648 279 534 274 q 819 285 762 285 q 871 266 864 285 l 871 214 q 872 118 871 182 q 873 22 873 54 q 846 -12 873 -12 q 738 -12 811 -12 q 627 -11 665 -11 q 347 -16 529 -11 q 84 -22 165 -21 l 65 0 q 62 24 62 19 z "},"":{"ha":886,"x_min":62,"x_max":873,"o":"m 124 1128 l 248 1301 q 264 1323 256 1310 q 278 1343 273 1337 q 296 1355 283 1348 q 328 1364 308 1362 q 381 1369 348 1367 l 622 1375 l 801 1125 q 796 1114 801 1119 q 783 1106 791 1109 q 764 1103 774 1103 l 718 1103 q 522 1097 609 1103 q 496 1119 507 1105 q 474 1155 485 1133 q 458 1184 463 1178 q 444 1160 456 1181 q 417 1121 431 1139 q 392 1103 403 1103 l 179 1103 q 141 1109 157 1103 q 124 1128 124 1116 m 62 24 l 62 50 q 65 393 62 166 q 68 735 68 619 l 68 1016 l 857 1016 l 857 793 q 857 783 857 791 q 857 772 857 775 q 857 763 857 770 q 854 753 856 755 q 849 745 852 750 q 842 738 846 740 q 831 734 838 736 q 817 732 825 732 l 798 732 q 477 738 622 732 q 473 704 476 727 q 468 664 470 682 q 467 631 467 647 l 789 631 q 817 625 810 631 q 823 608 823 620 q 823 597 823 604 q 822 586 822 589 q 824 490 822 553 q 826 393 826 426 q 815 380 824 380 q 808 382 811 380 q 491 372 594 372 l 473 372 l 473 274 q 648 279 534 274 q 819 285 762 285 q 871 266 864 285 l 871 214 q 872 118 871 182 q 873 22 873 54 q 846 -12 873 -12 q 738 -12 811 -12 q 627 -11 665 -11 q 347 -16 529 -11 q 84 -22 165 -21 l 65 0 q 62 24 62 19 z "},"":{"ha":886,"x_min":62,"x_max":873,"o":"m 148 1127 l 148 1169 q 154 1302 148 1239 q 172 1366 161 1366 l 395 1366 q 411 1333 411 1360 l 411 1116 q 346 1097 406 1097 q 320 1098 336 1097 q 298 1099 304 1099 q 229 1096 274 1099 q 170 1093 184 1094 q 148 1127 159 1112 m 519 1124 q 541 1366 519 1354 q 613 1363 590 1363 q 666 1364 631 1363 q 724 1366 701 1366 q 780 1350 777 1366 q 783 1119 783 1195 q 769 1103 779 1103 q 766 1104 766 1103 q 650 1098 726 1101 q 541 1093 575 1096 l 519 1120 l 519 1124 m 62 24 l 62 50 q 65 393 62 166 q 68 735 68 619 l 68 1016 l 857 1016 l 857 793 q 857 783 857 791 q 857 772 857 775 q 857 763 857 770 q 854 753 856 755 q 849 745 852 750 q 842 738 846 740 q 831 734 838 736 q 817 732 825 732 l 798 732 q 477 738 622 732 q 473 704 476 727 q 468 664 470 682 q 467 631 467 647 l 789 631 q 817 625 810 631 q 823 608 823 620 q 823 597 823 604 q 822 586 822 589 q 824 490 822 553 q 826 393 826 426 q 815 380 824 380 q 808 382 811 380 q 491 372 594 372 l 473 372 l 473 274 q 648 279 534 274 q 819 285 762 285 q 871 266 864 285 l 871 214 q 872 118 871 182 q 873 22 873 54 q 846 -12 873 -12 q 738 -12 811 -12 q 627 -11 665 -11 q 347 -16 529 -11 q 84 -22 165 -21 l 65 0 q 62 24 62 19 z "},"":{"ha":562,"x_min":27,"x_max":518,"o":"m 27 1362 q 43 1383 27 1375 q 334 1373 199 1373 l 361 1373 q 396 1329 370 1371 q 487 1183 449 1242 l 487 1168 q 499 1154 490 1163 q 513 1137 507 1144 q 518 1126 518 1130 q 514 1113 518 1118 q 500 1106 511 1108 q 485 1104 490 1105 q 464 1104 479 1104 l 244 1104 q 106 1261 212 1143 l 77 1291 q 27 1362 27 1341 m 54 -18 q 63 271 56 180 q 71 849 63 556 q 68 933 68 906 l 68 954 q 66 1002 66 983 q 78 1025 66 1015 q 417 1017 189 1017 q 492 1020 471 1017 l 492 -18 l 54 -18 z "},"":{"ha":564,"x_min":56,"x_max":602,"o":"m 109 1127 l 255 1376 l 385 1373 q 407 1372 391 1373 q 441 1371 422 1371 q 483 1369 460 1370 q 526 1367 505 1369 q 564 1363 547 1365 q 591 1357 581 1360 q 602 1350 602 1354 l 418 1143 q 396 1122 406 1131 q 377 1109 385 1114 q 356 1102 370 1105 q 335 1100 342 1100 q 306 1099 327 1099 q 271 1097 284 1098 l 125 1097 l 109 1127 m 56 -18 q 65 271 58 180 q 73 849 65 556 q 71 933 71 906 l 71 954 q 68 1002 68 983 q 80 1025 68 1015 q 419 1017 191 1017 q 494 1020 473 1017 l 494 -18 l 56 -18 z "},"":{"ha":571,"x_min":-13,"x_max":664,"o":"m -13 1129 l 111 1302 q 127 1325 119 1311 q 141 1344 136 1339 q 159 1356 146 1350 q 191 1366 171 1363 q 244 1370 211 1369 l 485 1377 l 664 1126 q 659 1115 664 1120 q 646 1107 654 1110 q 627 1104 637 1104 l 581 1104 q 385 1099 472 1104 q 359 1120 370 1107 q 337 1157 348 1134 q 321 1185 326 1179 q 307 1161 319 1183 q 280 1122 294 1140 q 255 1104 266 1104 l 42 1104 q 4 1111 20 1104 q -13 1129 -13 1117 m 55 -18 q 64 271 58 180 q 73 849 64 556 q 70 933 70 906 l 70 954 q 67 1002 67 983 q 79 1025 67 1015 q 418 1017 191 1017 q 493 1020 473 1017 l 493 -18 l 55 -18 z "},"":{"ha":562,"x_min":-3,"x_max":632,"o":"m -3 1131 l -3 1173 q 4 1306 -3 1243 q 22 1370 10 1370 l 244 1370 q 260 1337 260 1364 l 260 1120 q 195 1101 255 1101 q 170 1102 186 1101 q 148 1103 153 1103 q 79 1100 123 1103 q 19 1097 34 1098 q -3 1131 8 1116 m 369 1128 q 391 1370 369 1358 q 463 1367 439 1367 q 515 1369 480 1367 q 574 1370 551 1370 q 629 1354 627 1370 q 632 1123 632 1199 q 618 1107 629 1107 q 616 1108 616 1107 q 500 1102 575 1105 q 391 1097 425 1100 l 369 1124 l 369 1128 m 51 -18 q 60 271 54 180 q 68 849 60 556 q 66 933 66 906 l 66 954 q 63 1002 63 983 q 75 1025 63 1015 q 414 1017 186 1017 q 489 1020 469 1017 l 489 -18 l 51 -18 z "},"":{"ha":1171,"x_min":53,"x_max":1095,"o":"m 701 1230 q 588 1254 661 1230 q 481 1278 515 1278 q 467 1260 469 1278 q 457 1242 464 1242 q 408 1241 440 1241 q 366 1240 376 1240 l 279 1240 q 266 1263 266 1245 q 320 1440 266 1382 q 472 1499 374 1499 q 566 1482 504 1500 l 612 1482 q 633 1471 620 1480 q 652 1459 647 1461 l 675 1459 q 678 1454 677 1454 q 685 1476 685 1463 l 708 1495 l 879 1495 q 891 1490 886 1495 q 897 1482 896 1485 q 902 1470 899 1479 q 701 1230 893 1230 m 685 1461 l 685 1462 l 685 1461 m 54 -3 l 54 304 q 65 945 53 472 l 65 1001 q 71 1019 65 1016 l 537 1019 q 565 967 544 1019 q 615 834 585 916 q 656 723 644 753 l 751 475 l 751 738 q 753 862 751 772 q 754 1004 755 953 q 863 1023 754 1023 q 956 1021 897 1023 q 1028 1020 1015 1020 l 1080 1020 q 1090 1016 1090 1020 q 1095 476 1095 827 l 1095 5 q 1051 -12 1090 -12 l 1034 -12 q 930 -14 998 -12 q 826 -15 861 -15 l 627 -15 q 587 71 617 -12 q 492 328 555 159 q 422 515 429 496 q 421 396 422 475 q 420 277 420 317 q 422 187 420 247 q 423 98 423 127 l 423 12 q 396 -19 423 -19 l 84 -19 l 54 -3 m 1090 1017 l 1090 1015 l 1090 1017 z "},"":{"ha":1115,"x_min":16,"x_max":1084,"o":"m 260 1373 q 277 1394 260 1386 q 567 1383 433 1383 l 594 1383 q 629 1340 603 1381 q 720 1194 682 1253 l 720 1179 q 732 1164 724 1174 q 746 1148 741 1155 q 751 1137 751 1141 q 748 1124 751 1128 q 733 1117 744 1119 q 718 1115 723 1116 q 697 1115 713 1115 l 477 1115 q 339 1272 445 1154 l 311 1302 q 260 1373 260 1352 m 16 510 l 16 585 q 58 758 23 680 q 145 890 92 836 q 269 980 199 943 q 415 1034 338 1017 q 572 1051 491 1051 q 666 1044 617 1051 q 768 1020 714 1036 q 872 972 823 1004 q 955 898 922 941 q 1052 726 1022 816 q 1082 526 1082 636 q 982 157 1084 297 l 952 117 q 840 26 913 62 q 693 -24 766 -10 q 545 -38 620 -38 q 384 -20 458 -38 q 256 27 310 -3 q 161 100 203 57 q 92 190 119 142 q 48 293 65 237 q 23 401 31 349 q 16 510 16 454 m 556 779 q 506 766 528 779 q 470 734 484 753 q 446 685 456 716 q 431 630 436 654 q 424 567 427 605 q 421 509 421 530 q 420 456 420 488 q 423 396 420 425 q 433 337 425 368 q 453 282 441 305 q 488 242 466 258 q 538 225 510 227 q 591 235 568 225 q 630 260 614 245 q 656 301 646 275 q 673 351 667 327 q 682 410 679 374 q 686 470 685 445 q 686 534 686 496 q 685 587 686 563 q 679 642 683 612 q 665 694 675 671 q 642 737 656 717 q 607 768 629 757 q 556 779 585 779 z "},"":{"ha":1115,"x_min":16,"x_max":1084,"o":"m 302 1135 l 449 1384 l 579 1381 q 601 1380 585 1381 q 635 1379 616 1379 q 676 1377 654 1378 q 720 1375 699 1377 q 758 1371 741 1373 q 785 1365 774 1369 q 795 1358 795 1362 l 612 1152 q 590 1131 600 1139 q 571 1118 579 1122 q 550 1111 564 1113 q 529 1108 536 1108 q 499 1107 521 1107 q 465 1105 478 1106 l 319 1105 l 302 1135 m 16 510 l 16 585 q 58 758 23 680 q 145 890 92 836 q 269 980 199 943 q 415 1034 338 1017 q 572 1051 491 1051 q 666 1044 617 1051 q 768 1020 714 1036 q 872 972 823 1004 q 955 898 922 941 q 1052 726 1022 816 q 1082 526 1082 636 q 982 157 1084 297 l 952 117 q 840 26 913 62 q 693 -24 766 -10 q 545 -38 620 -38 q 384 -20 458 -38 q 256 27 310 -3 q 161 100 203 57 q 92 190 119 142 q 48 293 65 237 q 23 401 31 349 q 16 510 16 454 m 556 779 q 506 766 528 779 q 470 734 484 753 q 446 685 456 716 q 431 630 436 654 q 424 567 427 605 q 421 509 421 530 q 420 456 420 488 q 423 396 420 425 q 433 337 425 368 q 453 282 441 305 q 488 242 466 258 q 538 225 510 227 q 591 235 568 225 q 630 260 614 245 q 656 301 646 275 q 673 351 667 327 q 682 410 679 374 q 686 470 685 445 q 686 534 686 496 q 685 587 686 563 q 679 642 683 612 q 665 694 675 671 q 642 737 656 717 q 607 768 629 757 q 556 779 585 779 z "},"":{"ha":1115,"x_min":16,"x_max":1084,"o":"m 226 1135 l 350 1308 q 366 1330 357 1316 q 380 1350 375 1344 q 397 1362 385 1355 q 430 1371 410 1369 q 483 1375 450 1374 l 724 1382 l 903 1132 q 898 1121 903 1126 q 885 1113 893 1116 q 865 1109 876 1109 l 819 1109 q 624 1104 711 1109 q 597 1126 608 1112 q 575 1162 587 1139 q 560 1191 564 1185 q 545 1167 557 1188 q 519 1127 533 1145 q 494 1109 505 1109 l 281 1109 q 242 1116 259 1109 q 226 1135 226 1122 m 16 510 l 16 585 q 58 758 23 680 q 145 890 92 836 q 269 980 199 943 q 415 1034 338 1017 q 572 1051 491 1051 q 666 1044 617 1051 q 768 1020 714 1036 q 872 972 823 1004 q 955 898 922 941 q 1052 726 1022 816 q 1082 526 1082 636 q 982 157 1084 297 l 952 117 q 840 26 913 62 q 693 -24 766 -10 q 545 -38 620 -38 q 384 -20 458 -38 q 256 27 310 -3 q 161 100 203 57 q 92 190 119 142 q 48 293 65 237 q 23 401 31 349 q 16 510 16 454 m 556 779 q 506 766 528 779 q 470 734 484 753 q 446 685 456 716 q 431 630 436 654 q 424 567 427 605 q 421 509 421 530 q 420 456 420 488 q 423 396 420 425 q 433 337 425 368 q 453 282 441 305 q 488 242 466 258 q 538 225 510 227 q 591 235 568 225 q 630 260 614 245 q 656 301 646 275 q 673 351 667 327 q 682 410 679 374 q 686 470 685 445 q 686 534 686 496 q 685 587 686 563 q 679 642 683 612 q 665 694 675 671 q 642 737 656 717 q 607 768 629 757 q 556 779 585 779 z "},"":{"ha":1115,"x_min":16,"x_max":1084,"o":"m 259 1286 l 259 1328 q 266 1461 259 1398 q 283 1525 272 1525 l 506 1525 q 522 1492 522 1519 l 522 1275 q 457 1256 517 1256 q 431 1257 448 1256 q 410 1257 415 1257 q 340 1255 385 1257 q 281 1252 296 1253 q 259 1286 270 1270 m 631 1283 q 652 1525 631 1513 q 724 1522 701 1522 q 777 1523 742 1522 q 836 1525 812 1525 q 891 1508 888 1525 q 894 1278 894 1354 q 880 1261 890 1261 q 878 1263 878 1261 q 762 1257 837 1259 q 652 1252 686 1255 l 631 1279 l 631 1283 m 16 510 l 16 585 q 58 758 23 680 q 145 890 92 836 q 269 980 199 943 q 415 1034 338 1017 q 572 1051 491 1051 q 666 1044 617 1051 q 768 1020 714 1036 q 872 972 823 1004 q 955 898 922 941 q 1052 726 1022 816 q 1082 526 1082 636 q 982 157 1084 297 l 952 117 q 840 26 913 62 q 693 -24 766 -10 q 545 -38 620 -38 q 384 -20 458 -38 q 256 27 310 -3 q 161 100 203 57 q 92 190 119 142 q 48 293 65 237 q 23 401 31 349 q 16 510 16 454 m 556 779 q 506 766 528 779 q 470 734 484 753 q 446 685 456 716 q 431 630 436 654 q 424 567 427 605 q 421 509 421 530 q 420 456 420 488 q 423 396 420 425 q 433 337 425 368 q 453 282 441 305 q 488 242 466 258 q 538 225 510 227 q 591 235 568 225 q 630 260 614 245 q 656 301 646 275 q 673 351 667 327 q 682 410 679 374 q 686 470 685 445 q 686 534 686 496 q 685 587 686 563 q 679 642 683 612 q 665 694 675 671 q 642 737 656 717 q 607 768 629 757 q 556 779 585 779 z "},"":{"ha":1095,"x_min":62,"x_max":1047,"o":"m 278 1362 q 294 1383 278 1375 q 585 1373 450 1373 l 612 1373 q 647 1329 621 1371 q 738 1183 700 1242 l 738 1168 q 750 1154 741 1163 q 764 1137 758 1144 q 769 1126 769 1130 q 765 1113 769 1118 q 751 1106 762 1108 q 735 1104 741 1105 q 715 1104 730 1104 l 495 1104 q 357 1261 463 1143 l 328 1291 q 278 1362 278 1341 m 62 338 q 65 836 65 671 l 65 844 q 64 877 65 848 q 62 926 62 906 q 76 1019 62 1008 q 86 1018 79 1019 q 96 1017 93 1017 q 361 1023 210 1023 l 453 1023 q 468 1018 458 1022 q 480 1015 477 1015 q 483 900 481 981 q 487 759 486 819 q 487 642 488 699 l 487 377 q 488 336 487 352 q 495 300 490 321 q 513 268 500 279 q 547 258 526 258 q 593 282 575 258 q 610 338 610 306 l 610 586 q 611 729 610 631 q 612 882 613 827 l 612 930 q 610 953 612 938 q 609 977 609 968 l 609 1009 q 627 1028 611 1025 q 1017 1025 757 1028 l 1017 1015 l 1047 1015 q 1042 678 1042 870 l 1042 526 q 1040 433 1042 496 q 1039 339 1039 370 q 1011 183 1039 251 q 938 74 983 115 q 828 6 892 33 q 698 -31 764 -20 q 556 -41 632 -41 q 419 -32 483 -41 q 289 4 355 -22 q 176 71 223 30 q 97 180 128 111 q 62 338 66 248 z "},"":{"ha":1095,"x_min":62,"x_max":1047,"o":"m 312 1130 l 458 1379 l 589 1375 q 610 1375 594 1375 q 645 1373 626 1374 q 686 1372 663 1373 q 729 1370 709 1371 q 767 1365 750 1368 q 794 1360 784 1363 q 805 1352 805 1356 l 621 1146 q 599 1125 610 1133 q 581 1112 589 1117 q 559 1105 573 1107 q 538 1102 546 1103 q 509 1101 530 1102 q 475 1100 488 1101 l 328 1100 l 312 1130 m 62 338 q 65 836 65 671 l 65 844 q 64 877 65 848 q 62 926 62 906 q 76 1019 62 1008 q 86 1018 79 1019 q 96 1017 93 1017 q 361 1023 210 1023 l 453 1023 q 468 1018 458 1022 q 480 1015 477 1015 q 483 900 481 981 q 487 759 486 819 q 487 642 488 699 l 487 377 q 488 336 487 352 q 495 300 490 321 q 513 268 500 279 q 547 258 526 258 q 593 282 575 258 q 610 338 610 306 l 610 586 q 611 729 610 631 q 612 882 613 827 l 612 930 q 610 953 612 938 q 609 977 609 968 l 609 1009 q 627 1028 611 1025 q 1017 1025 757 1028 l 1017 1015 l 1047 1015 q 1042 678 1042 870 l 1042 526 q 1040 433 1042 496 q 1039 339 1039 370 q 1011 183 1039 251 q 938 74 983 115 q 828 6 892 33 q 698 -31 764 -20 q 556 -41 632 -41 q 419 -32 483 -41 q 289 4 355 -22 q 176 71 223 30 q 97 180 128 111 q 62 338 66 248 z "},"":{"ha":1095,"x_min":62,"x_max":1047,"o":"m 219 1129 l 343 1302 q 359 1325 351 1311 q 373 1344 368 1339 q 391 1356 378 1350 q 423 1366 403 1363 q 476 1370 443 1369 l 717 1377 l 896 1126 q 891 1115 896 1120 q 878 1107 886 1110 q 859 1104 869 1104 l 812 1104 q 617 1099 704 1104 q 591 1120 602 1107 q 569 1157 580 1134 q 553 1185 557 1179 q 538 1161 551 1183 q 512 1122 526 1140 q 487 1104 498 1104 l 274 1104 q 236 1111 252 1104 q 219 1129 219 1117 m 62 338 q 65 836 65 671 l 65 844 q 64 877 65 848 q 62 926 62 906 q 76 1019 62 1008 q 86 1018 79 1019 q 96 1017 93 1017 q 361 1023 210 1023 l 453 1023 q 468 1018 458 1022 q 480 1015 477 1015 q 483 900 481 981 q 487 759 486 819 q 487 642 488 699 l 487 377 q 488 336 487 352 q 495 300 490 321 q 513 268 500 279 q 547 258 526 258 q 593 282 575 258 q 610 338 610 306 l 610 586 q 611 729 610 631 q 612 882 613 827 l 612 930 q 610 953 612 938 q 609 977 609 968 l 609 1009 q 627 1028 611 1025 q 1017 1025 757 1028 l 1017 1015 l 1047 1015 q 1042 678 1042 870 l 1042 526 q 1040 433 1042 496 q 1039 339 1039 370 q 1011 183 1039 251 q 938 74 983 115 q 828 6 892 33 q 698 -31 764 -20 q 556 -41 632 -41 q 419 -32 483 -41 q 289 4 355 -22 q 176 71 223 30 q 97 180 128 111 q 62 338 66 248 z "},"":{"ha":1095,"x_min":62,"x_max":1047,"o":"m 252 1286 l 252 1328 q 259 1461 252 1398 q 277 1525 265 1525 l 499 1525 q 515 1492 515 1519 l 515 1275 q 450 1256 510 1256 q 425 1257 441 1256 q 403 1257 408 1257 q 334 1255 378 1257 q 274 1252 289 1253 q 252 1286 263 1270 m 624 1283 q 646 1525 624 1513 q 718 1522 694 1522 q 770 1523 735 1522 q 829 1525 806 1525 q 884 1508 882 1525 q 887 1278 887 1354 q 873 1261 884 1261 q 871 1263 871 1261 q 755 1257 830 1259 q 646 1252 680 1255 l 624 1279 l 624 1283 m 62 338 q 65 836 65 671 l 65 844 q 64 877 65 848 q 62 926 62 906 q 76 1019 62 1008 q 86 1018 79 1019 q 96 1017 93 1017 q 361 1023 210 1023 l 453 1023 q 468 1018 458 1022 q 480 1015 477 1015 q 483 900 481 981 q 487 759 486 819 q 487 642 488 699 l 487 377 q 488 336 487 352 q 495 300 490 321 q 513 268 500 279 q 547 258 526 258 q 593 282 575 258 q 610 338 610 306 l 610 586 q 611 729 610 631 q 612 882 613 827 l 612 930 q 610 953 612 938 q 609 977 609 968 l 609 1009 q 627 1028 611 1025 q 1017 1025 757 1028 l 1017 1015 l 1047 1015 q 1042 678 1042 870 l 1042 526 q 1040 433 1042 496 q 1039 339 1039 370 q 1011 183 1039 251 q 938 74 983 115 q 828 6 892 33 q 698 -31 764 -20 q 556 -41 632 -41 q 419 -32 483 -41 q 289 4 355 -22 q 176 71 223 30 q 97 180 128 111 q 62 338 66 248 z "},"":{"ha":1057,"x_min":45,"x_max":1072,"o":"m 488 1047 q 966 789 966 1047 q 891 629 968 701 l 860 600 q 823 551 823 572 q 843 525 823 538 q 892 495 862 511 q 936 469 923 479 q 1038 372 1004 427 q 1072 231 1072 317 q 1049 123 1072 172 q 991 45 1027 75 q 909 -6 956 14 q 817 -35 863 -26 q 726 -43 771 -43 q 475 23 549 -43 l 475 22 q 411 144 426 66 q 412 116 411 140 q 412 76 412 92 q 401 -12 412 -12 q 397 -11 400 -11 q 302 -15 365 -15 q 200 -14 267 -15 q 100 -12 132 -12 l 79 -12 q 60 -14 65 -12 q 49 -3 49 -12 l 49 0 q 47 237 49 77 q 46 483 46 398 l 46 578 q 45 633 46 587 q 45 699 45 680 q 49 759 45 718 q 60 824 53 800 q 81 877 67 848 q 115 925 95 905 q 488 1047 241 1047 m 411 670 l 411 260 l 665 260 q 685 248 679 259 q 689 224 690 237 q 691 201 688 212 q 705 190 694 191 q 712 191 708 190 q 719 193 717 193 q 727 217 727 212 q 712 256 727 237 q 672 292 696 275 q 618 327 648 309 q 559 367 589 345 q 505 412 530 388 q 466 468 481 435 q 450 536 450 500 q 470 617 450 578 q 524 685 490 657 q 548 703 529 689 q 578 726 568 717 q 600 751 589 735 q 610 781 610 766 q 589 825 610 811 q 534 838 567 838 q 472 823 498 838 q 434 782 446 808 q 416 728 421 755 q 411 670 411 701 z "},"":{"ha":1005,"x_min":-22,"x_max":1023,"o":"m 193 1252 q 209 1274 193 1265 q 499 1263 365 1263 l 526 1263 q 562 1219 535 1261 q 652 1073 614 1132 l 652 1058 q 664 1044 656 1053 q 678 1027 673 1034 q 684 1016 684 1020 q 680 1003 684 1008 q 666 997 676 998 q 650 995 655 995 q 629 994 645 994 l 410 994 q 271 1152 377 1034 l 243 1181 q 193 1252 193 1232 m 374 168 q 365 127 370 153 q 357 87 361 102 q 345 57 353 73 q 318 33 336 41 q 271 26 300 26 l -22 26 l -22 49 q 83 380 14 157 q 190 718 152 603 l 190 716 q 258 922 213 782 q 260 926 258 924 q 271 941 266 936 l 637 939 q 741 922 731 939 l 741 905 q 755 873 742 899 q 852 581 821 672 l 852 572 q 864 528 854 553 q 887 474 873 503 q 905 429 900 445 l 932 331 q 1002 121 956 252 l 1002 122 l 1002 109 q 1013 83 1004 99 q 1023 60 1021 66 q 1015 35 1023 41 q 985 30 1007 30 l 670 30 q 655 32 659 31 q 645 35 652 33 q 634 40 637 37 q 631 49 631 43 l 605 152 q 600 166 602 165 q 583 168 597 168 l 374 168 m 407 410 l 407 407 l 407 410 m 556 491 q 544 552 552 510 q 529 626 536 595 q 513 685 522 658 l 513 718 q 494 738 507 732 l 494 736 q 461 646 477 733 l 461 613 q 455 604 460 608 q 450 600 450 600 q 414 439 428 500 q 410 416 414 433 q 407 396 407 399 l 575 396 q 563 460 575 414 l 563 475 q 559 483 562 477 q 556 491 556 488 z "},"":{"ha":1005,"x_min":-22,"x_max":1023,"o":"m 320 1035 l 467 1284 l 597 1280 q 618 1280 602 1280 q 653 1278 634 1279 q 694 1277 671 1278 q 738 1275 717 1276 q 775 1271 758 1273 q 803 1265 792 1268 q 813 1257 813 1261 l 629 1051 q 607 1030 618 1038 q 589 1017 597 1022 q 568 1010 581 1013 q 546 1007 554 1008 q 517 1006 538 1007 q 483 1005 496 1006 l 336 1005 l 320 1035 m 374 168 q 365 127 370 153 q 357 87 361 102 q 345 57 353 73 q 318 33 336 41 q 271 26 300 26 l -22 26 l -22 49 q 83 380 14 157 q 190 718 152 603 l 190 716 q 258 922 213 782 q 260 926 258 924 q 271 941 266 936 l 637 939 q 741 922 731 939 l 741 905 q 755 873 742 899 q 852 581 821 672 l 852 572 q 864 528 854 553 q 887 474 873 503 q 905 429 900 445 l 932 331 q 1002 121 956 252 l 1002 122 l 1002 109 q 1013 83 1004 99 q 1023 60 1021 66 q 1015 35 1023 41 q 985 30 1007 30 l 670 30 q 655 32 659 31 q 645 35 652 33 q 634 40 637 37 q 631 49 631 43 l 605 152 q 600 166 602 165 q 583 168 597 168 l 374 168 m 407 410 l 407 407 l 407 410 m 556 491 q 544 552 552 510 q 529 626 536 595 q 513 685 522 658 l 513 718 q 494 738 507 732 l 494 736 q 461 646 477 733 l 461 613 q 455 604 460 608 q 450 600 450 600 q 414 439 428 500 q 410 416 414 433 q 407 396 407 399 l 575 396 q 563 460 575 414 l 563 475 q 559 483 562 477 q 556 491 556 488 z "},"":{"ha":1005,"x_min":-22,"x_max":1023,"o":"m 158 1026 l 282 1199 q 298 1222 290 1208 q 312 1241 307 1236 q 330 1253 317 1246 q 362 1263 342 1260 q 415 1267 382 1265 l 656 1274 l 835 1023 q 830 1012 835 1017 q 817 1004 825 1007 q 798 1001 808 1001 l 751 1001 q 556 996 643 1001 q 530 1017 541 1004 q 508 1054 519 1031 q 492 1082 496 1076 q 477 1058 490 1080 q 451 1019 465 1037 q 426 1001 437 1001 l 213 1001 q 175 1007 191 1001 q 158 1026 158 1014 m 374 168 q 365 127 370 153 q 357 87 361 102 q 345 57 353 73 q 318 33 336 41 q 271 26 300 26 l -22 26 l -22 49 q 83 380 14 157 q 190 718 152 603 l 190 716 q 258 922 213 782 q 260 926 258 924 q 271 941 266 936 l 637 939 q 741 922 731 939 l 741 905 q 755 873 742 899 q 852 581 821 672 l 852 572 q 864 528 854 553 q 887 474 873 503 q 905 429 900 445 l 932 331 q 1002 121 956 252 l 1002 122 l 1002 109 q 1013 83 1004 99 q 1023 60 1021 66 q 1015 35 1023 41 q 985 30 1007 30 l 670 30 q 655 32 659 31 q 645 35 652 33 q 634 40 637 37 q 631 49 631 43 l 605 152 q 600 166 602 165 q 583 168 597 168 l 374 168 m 407 410 l 407 407 l 407 410 m 556 491 q 544 552 552 510 q 529 626 536 595 q 513 685 522 658 l 513 718 q 494 738 507 732 l 494 736 q 461 646 477 733 l 461 613 q 455 604 460 608 q 450 600 450 600 q 414 439 428 500 q 410 416 414 433 q 407 396 407 399 l 575 396 q 563 460 575 414 l 563 475 q 559 483 562 477 q 556 491 556 488 z "},"":{"ha":1005,"x_min":-22,"x_max":1023,"o":"m 175 1040 l 175 1082 q 181 1216 175 1152 q 199 1279 188 1279 l 422 1279 q 438 1246 438 1274 l 438 1029 q 373 1010 433 1010 q 347 1011 363 1010 q 326 1012 331 1012 q 256 1009 301 1012 q 197 1006 212 1007 q 175 1040 186 1025 m 547 1038 q 568 1279 547 1267 q 640 1276 617 1276 q 693 1278 658 1276 q 751 1279 728 1279 q 807 1263 804 1279 q 810 1032 810 1108 q 796 1016 806 1016 q 793 1017 793 1016 q 677 1011 753 1014 q 568 1006 602 1009 l 547 1034 l 547 1038 m 374 168 q 365 127 370 153 q 357 87 361 102 q 345 57 353 73 q 318 33 336 41 q 271 26 300 26 l -22 26 l -22 49 q 83 380 14 157 q 190 718 152 603 l 190 716 q 258 922 213 782 q 260 926 258 924 q 271 941 266 936 l 637 939 q 741 922 731 939 l 741 905 q 755 873 742 899 q 852 581 821 672 l 852 572 q 864 528 854 553 q 887 474 873 503 q 905 429 900 445 l 932 331 q 1002 121 956 252 l 1002 122 l 1002 109 q 1013 83 1004 99 q 1023 60 1021 66 q 1015 35 1023 41 q 985 30 1007 30 l 670 30 q 655 32 659 31 q 645 35 652 33 q 634 40 637 37 q 631 49 631 43 l 605 152 q 600 166 602 165 q 583 168 597 168 l 374 168 m 407 410 l 407 407 l 407 410 m 556 491 q 544 552 552 510 q 529 626 536 595 q 513 685 522 658 l 513 718 q 494 738 507 732 l 494 736 q 461 646 477 733 l 461 613 q 455 604 460 608 q 450 600 450 600 q 414 439 428 500 q 410 416 414 433 q 407 396 407 399 l 575 396 q 563 460 575 414 l 563 475 q 559 483 562 477 q 556 491 556 488 z "},"":{"ha":943,"x_min":24,"x_max":920,"o":"m 259 -293 q 270 -258 259 -282 l 270 -239 q 281 -217 277 -224 q 295 -200 286 -210 q 315 -190 304 -191 l 358 -206 q 429 -220 396 -222 q 486 -193 486 -220 q 456 -176 484 -176 q 442 -179 448 -176 l 420 -179 l 420 -187 q 393 -182 402 -187 l 363 -160 q 344 -145 354 -155 q 330 -123 334 -135 l 416 26 l 537 26 q 559 3 559 24 q 553 -14 559 -3 q 539 -35 547 -24 q 529 -52 531 -47 q 643 -88 602 -52 q 684 -183 684 -124 q 652 -274 684 -235 q 570 -331 620 -313 q 460 -350 519 -350 q 327 -333 395 -350 q 259 -293 259 -316 m 494 5 q 290 44 380 5 q 142 150 200 82 q 55 308 85 218 q 24 506 24 399 l 24 515 q 27 539 25 520 q 29 563 28 557 q 31 585 29 569 q 35 609 33 602 q 38 631 36 616 q 44 654 41 645 q 51 676 47 663 q 60 701 55 689 q 71 724 64 712 l 71 723 q 149 836 102 788 q 254 909 197 883 q 370 947 311 935 q 496 959 430 959 q 648 942 581 959 q 761 898 716 926 q 838 830 806 870 q 886 749 869 791 q 909 658 902 707 l 909 600 q 899 585 907 590 q 881 579 890 580 q 854 578 871 578 l 564 578 l 564 636 q 545 678 561 659 q 505 697 528 697 q 468 688 484 697 q 443 665 452 680 q 428 631 433 650 q 420 590 422 612 q 417 547 418 569 q 418 505 416 525 q 418 486 418 492 l 418 410 q 419 377 418 393 q 428 336 421 361 q 450 295 434 311 q 491 279 467 279 q 529 301 517 279 q 550 353 542 323 q 570 395 559 384 q 651 394 597 395 q 732 393 705 393 q 789 394 751 393 q 845 395 826 395 l 895 395 q 920 368 918 395 l 920 342 q 820 124 905 207 q 608 19 735 41 l 608 15 q 494 5 562 5 z "},"":{"ha":791,"x_min":57,"x_max":774,"o":"m 130 1260 q 146 1282 130 1274 q 437 1271 302 1271 l 464 1271 q 499 1227 473 1269 q 590 1081 552 1140 l 590 1066 q 602 1052 593 1061 q 616 1035 610 1042 q 621 1024 621 1028 q 617 1011 621 1016 q 603 1005 614 1006 q 588 1003 593 1003 q 567 1002 583 1002 l 347 1002 q 209 1160 315 1042 l 180 1190 q 130 1260 130 1240 m 57 876 q 60 924 57 917 q 80 933 66 933 l 96 933 q 111 932 107 933 l 146 932 q 354 935 215 932 q 562 939 492 939 l 742 939 q 760 921 760 937 l 760 694 q 757 687 759 690 q 754 683 755 684 q 748 679 753 682 q 741 673 743 675 l 426 673 l 426 589 l 456 589 q 576 591 495 589 q 700 594 656 594 q 726 587 719 594 q 732 566 732 579 q 731 554 732 562 q 730 543 730 546 l 730 517 q 730 506 730 514 q 731 491 731 497 l 731 472 q 732 442 731 457 q 734 416 734 427 l 734 399 q 728 388 730 391 q 722 385 726 385 l 722 387 q 635 383 696 387 q 537 380 574 380 l 429 380 l 429 293 q 445 292 434 293 q 461 292 456 292 q 551 294 492 292 q 637 296 611 296 l 724 296 q 769 288 760 296 q 774 279 772 283 l 774 62 q 769 41 774 48 q 749 33 764 33 l 77 33 l 57 50 l 57 876 z "},"":{"ha":791,"x_min":57,"x_max":774,"o":"m 222 1024 l 369 1273 l 499 1270 q 520 1269 505 1270 q 555 1267 536 1268 q 596 1266 574 1267 q 640 1264 619 1265 q 677 1260 661 1262 q 705 1254 694 1257 q 715 1246 715 1251 l 532 1040 q 510 1019 520 1027 q 491 1006 499 1011 q 470 999 484 1002 q 449 997 456 997 q 419 996 441 996 q 385 994 398 995 l 239 994 l 222 1024 m 57 876 q 60 924 57 917 q 80 933 66 933 l 96 933 q 111 932 107 933 l 146 932 q 354 935 215 932 q 562 939 492 939 l 742 939 q 760 921 760 937 l 760 694 q 757 687 759 690 q 754 683 755 684 q 748 679 753 682 q 741 673 743 675 l 426 673 l 426 589 l 456 589 q 576 591 495 589 q 700 594 656 594 q 726 587 719 594 q 732 566 732 579 q 731 554 732 562 q 730 543 730 546 l 730 517 q 730 506 730 514 q 731 491 731 497 l 731 472 q 732 442 731 457 q 734 416 734 427 l 734 399 q 728 388 730 391 q 722 385 726 385 l 722 387 q 635 383 696 387 q 537 380 574 380 l 429 380 l 429 293 q 445 292 434 293 q 461 292 456 292 q 551 294 492 292 q 637 296 611 296 l 724 296 q 769 288 760 296 q 774 279 772 283 l 774 62 q 769 41 774 48 q 749 33 764 33 l 77 33 l 57 50 l 57 876 z "},"":{"ha":791,"x_min":57,"x_max":774,"o":"m 68 1029 l 193 1202 q 209 1224 200 1211 q 223 1244 218 1238 q 240 1256 228 1249 q 272 1265 252 1263 q 326 1270 292 1268 l 566 1276 l 745 1026 q 741 1015 745 1020 q 727 1007 736 1010 q 708 1004 719 1004 l 662 1004 q 467 998 553 1004 q 440 1020 451 1006 q 418 1056 429 1034 q 403 1085 407 1079 q 388 1061 400 1082 q 361 1022 376 1040 q 336 1004 347 1004 l 123 1004 q 85 1010 102 1004 q 68 1029 68 1017 m 57 876 q 60 924 57 917 q 80 933 66 933 l 96 933 q 111 932 107 933 l 146 932 q 354 935 215 932 q 562 939 492 939 l 742 939 q 760 921 760 937 l 760 694 q 757 687 759 690 q 754 683 755 684 q 748 679 753 682 q 741 673 743 675 l 426 673 l 426 589 l 456 589 q 576 591 495 589 q 700 594 656 594 q 726 587 719 594 q 732 566 732 579 q 731 554 732 562 q 730 543 730 546 l 730 517 q 730 506 730 514 q 731 491 731 497 l 731 472 q 732 442 731 457 q 734 416 734 427 l 734 399 q 728 388 730 391 q 722 385 726 385 l 722 387 q 635 383 696 387 q 537 380 574 380 l 429 380 l 429 293 q 445 292 434 293 q 461 292 456 292 q 551 294 492 292 q 637 296 611 296 l 724 296 q 769 288 760 296 q 774 279 772 283 l 774 62 q 769 41 774 48 q 749 33 764 33 l 77 33 l 57 50 l 57 876 z "},"":{"ha":791,"x_min":57,"x_max":774,"o":"m 100 1032 l 100 1074 q 107 1207 100 1144 q 125 1271 113 1271 l 347 1271 q 363 1238 363 1265 l 363 1021 q 298 1002 358 1002 q 273 1003 289 1002 q 251 1004 256 1004 q 182 1001 227 1004 q 122 998 137 999 q 100 1032 111 1017 m 472 1029 q 494 1271 472 1259 q 566 1268 543 1268 q 618 1270 583 1268 q 677 1271 654 1271 q 732 1255 730 1271 q 735 1024 735 1100 q 722 1008 732 1008 q 719 1009 719 1008 q 603 1003 678 1006 q 494 998 528 1001 l 472 1025 l 472 1029 m 57 876 q 60 924 57 917 q 80 933 66 933 l 96 933 q 111 932 107 933 l 146 932 q 354 935 215 932 q 562 939 492 939 l 742 939 q 760 921 760 937 l 760 694 q 757 687 759 690 q 754 683 755 684 q 748 679 753 682 q 741 673 743 675 l 426 673 l 426 589 l 456 589 q 576 591 495 589 q 700 594 656 594 q 726 587 719 594 q 732 566 732 579 q 731 554 732 562 q 730 543 730 546 l 730 517 q 730 506 730 514 q 731 491 731 497 l 731 472 q 732 442 731 457 q 734 416 734 427 l 734 399 q 728 388 730 391 q 722 385 726 385 l 722 387 q 635 383 696 387 q 537 380 574 380 l 429 380 l 429 293 q 445 292 434 293 q 461 292 456 292 q 551 294 492 292 q 637 296 611 296 l 724 296 q 769 288 760 296 q 774 279 772 283 l 774 62 q 769 41 774 48 q 749 33 764 33 l 77 33 l 57 50 l 57 876 z "},"":{"ha":457,"x_min":-68,"x_max":423,"o":"m -68 1112 q -52 1133 -68 1125 q 239 1122 104 1122 l 266 1122 q 301 1079 275 1120 q 392 932 354 991 l 392 918 q 404 903 395 913 q 418 887 412 894 q 423 876 423 880 q 419 863 423 867 q 405 856 416 858 q 390 854 395 854 q 369 854 385 854 l 149 854 q 11 1011 117 893 l -18 1041 q -68 1112 -68 1091 m 35 57 q 38 269 35 94 l 38 410 q 41 549 38 457 q 45 677 44 642 l 45 694 q 56 711 45 711 l 392 711 q 408 692 408 711 l 408 114 q 409 79 408 102 q 410 42 410 56 q 409 13 410 28 q 404 -9 408 -2 q 392 -16 399 -16 l 37 -16 q 36 20 37 -6 q 35 57 35 47 z "},"":{"ha":458,"x_min":31,"x_max":550,"o":"m 57 873 l 203 1122 l 334 1118 q 355 1118 339 1118 q 390 1116 371 1117 q 431 1115 408 1116 q 474 1113 454 1114 q 512 1108 495 1111 q 539 1103 529 1106 q 550 1095 550 1099 l 366 889 q 344 868 355 876 q 326 855 334 860 q 304 848 318 850 q 283 845 291 846 q 254 844 275 845 q 220 843 233 844 l 73 843 l 57 873 m 31 57 q 34 269 31 94 l 34 410 q 37 549 34 457 q 41 677 40 642 l 41 694 q 52 711 41 711 l 388 711 q 404 692 404 711 l 404 114 q 405 79 404 102 q 406 42 406 56 q 405 13 406 28 q 399 -9 404 -2 q 388 -16 395 -16 l 33 -16 q 32 20 33 -6 q 31 57 31 47 z "},"":{"ha":484,"x_min":-86,"x_max":591,"o":"m -86 871 l 38 1044 q 54 1066 45 1053 q 68 1086 63 1080 q 85 1098 73 1091 q 118 1107 98 1105 q 171 1112 138 1110 l 412 1118 l 591 868 q 586 857 591 862 q 573 849 581 852 q 553 846 564 846 l 507 846 q 312 840 399 846 q 286 862 296 848 q 263 898 275 876 q 248 927 252 921 q 233 903 245 924 q 207 864 221 882 q 182 846 193 846 l -31 846 q -70 852 -53 846 q -86 871 -86 859 m 46 57 q 49 269 45 94 l 49 410 q 52 549 49 457 q 56 677 55 642 l 56 694 q 66 711 56 711 l 403 711 q 419 692 419 711 l 419 114 q 420 79 419 102 q 421 42 420 56 q 420 13 421 28 q 414 -9 418 -2 q 403 -16 410 -16 l 47 -16 q 47 20 47 -6 q 46 57 46 47 z "},"":{"ha":475,"x_min":-73,"x_max":562,"o":"m -73 880 l -73 922 q -67 1055 -73 991 q -49 1118 -60 1118 l 174 1118 q 190 1086 190 1113 l 190 869 q 125 850 184 850 q 99 850 115 850 q 77 851 83 851 q 8 849 53 851 q -52 846 -37 846 q -73 880 -62 864 m 298 877 q 320 1118 298 1107 q 392 1116 369 1116 q 445 1117 410 1116 q 503 1118 480 1118 q 559 1102 556 1118 q 562 871 562 947 q 548 855 558 855 q 545 857 545 855 q 429 851 505 853 q 320 846 354 848 l 298 873 l 298 877 m 42 57 q 45 269 41 94 l 45 410 q 48 549 45 457 q 52 677 51 642 l 52 694 q 62 711 52 711 l 399 711 q 415 692 415 711 l 415 114 q 416 79 415 102 q 417 42 416 56 q 416 13 417 28 q 410 -9 414 -2 q 399 -16 406 -16 l 43 -16 q 43 20 43 -6 q 42 57 42 47 z "},"":{"ha":1050,"x_min":46,"x_max":979,"o":"m 630 1032 q 517 1056 590 1032 q 410 1080 444 1080 q 395 1062 398 1080 q 386 1044 393 1044 q 337 1043 369 1043 q 295 1042 304 1042 l 208 1042 q 195 1065 195 1047 q 249 1242 195 1184 q 401 1301 302 1301 q 494 1284 433 1302 l 541 1284 q 562 1273 549 1282 q 581 1261 576 1263 l 604 1261 q 607 1256 606 1256 q 614 1278 614 1265 l 637 1297 l 808 1297 q 820 1292 814 1297 q 826 1284 825 1287 q 831 1272 827 1281 q 630 1032 822 1032 m 614 1263 l 614 1264 l 614 1263 m 960 933 q 973 910 968 930 q 978 858 977 889 q 978 798 979 827 q 976 740 977 770 q 975 703 975 710 q 974 627 974 675 l 974 555 q 975 425 974 507 q 977 302 977 342 l 977 56 q 939 33 974 33 l 559 33 q 528 90 547 35 q 485 208 515 125 q 433 352 454 290 q 393 472 411 414 l 393 476 l 393 472 q 389 339 391 427 q 385 206 387 250 l 385 68 q 380 40 385 47 q 355 27 376 32 l 76 27 l 46 57 q 52 410 50 170 q 57 765 54 650 l 57 911 q 73 936 64 936 l 73 933 q 218 936 119 933 q 366 939 317 939 l 480 939 q 482 938 481 939 q 496 927 494 933 l 496 922 q 546 786 521 857 q 606 615 571 715 q 654 477 640 515 l 654 578 q 667 917 667 817 q 682 930 667 928 q 728 933 697 933 l 960 933 z "},"":{"ha":986,"x_min":12,"x_max":951,"o":"m 247 1294 q 263 1316 247 1308 q 553 1305 419 1305 l 581 1305 q 616 1261 589 1303 q 707 1115 669 1174 l 707 1100 q 719 1086 710 1095 q 732 1069 727 1076 q 738 1058 738 1062 q 734 1045 738 1050 q 720 1039 730 1040 q 704 1037 709 1037 q 684 1036 699 1036 l 464 1036 q 326 1194 431 1076 l 297 1223 q 247 1294 247 1274 m 14 491 l 12 506 q 37 660 25 616 q 132 830 63 762 l 148 846 q 247 911 180 884 l 273 911 q 491 963 339 939 q 571 957 529 963 q 663 938 612 951 q 761 896 714 925 q 840 827 808 867 l 840 808 q 951 496 951 669 q 861 179 951 302 l 834 145 q 756 79 803 106 q 658 36 710 51 q 558 16 606 22 q 463 9 510 9 q 329 26 393 9 q 211 78 266 43 q 113 165 155 113 q 45 289 71 216 q 14 450 19 362 l 14 491 m 387 486 q 477 247 387 247 q 521 256 503 247 q 551 286 540 266 q 570 326 563 305 q 581 376 578 346 q 585 430 584 407 q 586 486 586 453 l 586 510 q 582 578 586 545 q 568 643 578 610 q 538 696 558 676 q 488 716 517 716 q 387 515 387 716 l 387 486 z "},"":{"ha":986,"x_min":12,"x_max":951,"o":"m 247 1059 l 393 1308 l 524 1305 q 545 1304 529 1305 q 579 1303 561 1303 q 621 1301 598 1302 q 664 1299 644 1301 q 702 1295 685 1297 q 729 1289 719 1293 q 740 1282 740 1286 l 556 1076 q 534 1055 545 1063 q 516 1042 524 1046 q 494 1035 508 1037 q 473 1032 481 1032 q 444 1031 465 1031 q 410 1029 422 1030 l 263 1029 l 247 1059 m 14 491 l 12 506 q 37 660 25 616 q 132 830 63 762 l 148 846 q 247 911 180 884 l 273 911 q 491 963 339 939 q 571 957 529 963 q 663 938 612 951 q 761 896 714 925 q 840 827 808 867 l 840 808 q 951 496 951 669 q 861 179 951 302 l 834 145 q 756 79 803 106 q 658 36 710 51 q 558 16 606 22 q 463 9 510 9 q 329 26 393 9 q 211 78 266 43 q 113 165 155 113 q 45 289 71 216 q 14 450 19 362 l 14 491 m 387 486 q 477 247 387 247 q 521 256 503 247 q 551 286 540 266 q 570 326 563 305 q 581 376 578 346 q 585 430 584 407 q 586 486 586 453 l 586 510 q 582 578 586 545 q 568 643 578 610 q 538 696 558 676 q 488 716 517 716 q 387 515 387 716 l 387 486 z "},"":{"ha":986,"x_min":12,"x_max":951,"o":"m 153 1050 l 277 1223 q 293 1246 284 1232 q 307 1265 302 1260 q 324 1278 312 1271 q 356 1287 336 1284 q 410 1291 376 1290 l 650 1298 l 829 1048 q 825 1037 829 1042 q 811 1028 820 1031 q 792 1025 803 1025 l 746 1025 q 551 1020 637 1025 q 524 1042 535 1028 q 502 1078 513 1055 q 487 1107 491 1101 q 472 1083 484 1104 q 446 1043 460 1061 q 420 1025 431 1025 l 208 1025 q 169 1032 186 1025 q 153 1050 153 1038 m 14 491 l 12 506 q 37 660 25 616 q 132 830 63 762 l 148 846 q 247 911 180 884 l 273 911 q 491 963 339 939 q 571 957 529 963 q 663 938 612 951 q 761 896 714 925 q 840 827 808 867 l 840 808 q 951 496 951 669 q 861 179 951 302 l 834 145 q 756 79 803 106 q 658 36 710 51 q 558 16 606 22 q 463 9 510 9 q 329 26 393 9 q 211 78 266 43 q 113 165 155 113 q 45 289 71 216 q 14 450 19 362 l 14 491 m 387 486 q 477 247 387 247 q 521 256 503 247 q 551 286 540 266 q 570 326 563 305 q 581 376 578 346 q 585 430 584 407 q 586 486 586 453 l 586 510 q 582 578 586 545 q 568 643 578 610 q 538 696 558 676 q 488 716 517 716 q 387 515 387 716 l 387 486 z "},"":{"ha":986,"x_min":12,"x_max":951,"o":"m 174 1051 l 174 1093 q 180 1226 174 1163 q 198 1290 186 1290 l 420 1290 q 437 1257 437 1284 l 437 1040 q 372 1021 431 1021 q 346 1022 362 1021 q 324 1023 330 1023 q 255 1020 300 1023 q 195 1017 210 1018 q 174 1051 184 1036 m 545 1048 q 567 1290 545 1278 q 639 1287 616 1287 q 692 1289 656 1287 q 750 1290 727 1290 q 806 1274 803 1290 q 808 1043 808 1119 q 795 1027 805 1027 q 792 1028 792 1027 q 676 1022 751 1025 q 567 1017 601 1020 l 545 1044 l 545 1048 m 14 491 l 12 506 q 37 660 25 616 q 132 830 63 762 l 148 846 q 247 911 180 884 l 273 911 q 491 963 339 939 q 571 957 529 963 q 663 938 612 951 q 761 896 714 925 q 840 827 808 867 l 840 808 q 951 496 951 669 q 861 179 951 302 l 834 145 q 756 79 803 106 q 658 36 710 51 q 558 16 606 22 q 463 9 510 9 q 329 26 393 9 q 211 78 266 43 q 113 165 155 113 q 45 289 71 216 q 14 450 19 362 l 14 491 m 387 486 q 477 247 387 247 q 521 256 503 247 q 551 286 540 266 q 570 326 563 305 q 581 376 578 346 q 585 430 584 407 q 586 486 586 453 l 586 510 q 582 578 586 545 q 568 643 578 610 q 538 696 558 676 q 488 716 517 716 q 387 515 387 716 l 387 486 z "},"":{"ha":869,"x_min":62,"x_max":802,"o":"m 62 290 q 98 467 62 459 l 138 467 q 394 463 222 467 q 648 458 565 458 q 789 461 694 458 q 802 437 802 461 q 800 373 802 412 q 798 315 798 334 l 798 260 l 80 260 q 71 269 76 264 q 65 275 66 273 q 63 280 64 277 q 62 290 62 283 m 328 87 q 359 169 328 136 q 435 202 390 202 q 515 171 481 202 q 548 92 548 140 q 515 15 548 45 q 438 -16 481 -16 q 363 12 398 -16 q 328 87 328 39 m 439 732 q 517 704 484 732 q 551 629 551 676 q 545 593 551 606 l 526 562 q 487 530 511 542 q 437 518 462 518 q 362 548 393 518 q 331 625 331 578 q 364 702 331 672 q 439 732 397 732 z "},"":{"ha":983,"x_min":54,"x_max":936,"o":"m 205 1275 q 221 1297 205 1289 q 511 1286 377 1286 l 538 1286 q 574 1242 547 1284 q 665 1096 627 1155 l 665 1081 q 676 1067 668 1076 q 690 1050 685 1057 q 696 1039 696 1043 q 692 1026 696 1031 q 678 1020 688 1021 q 662 1018 667 1018 q 642 1017 657 1017 l 422 1017 q 283 1175 389 1057 l 255 1204 q 205 1275 205 1255 m 57 774 q 54 852 54 788 q 68 939 54 925 l 437 939 l 437 369 q 488 281 437 281 q 524 300 510 281 q 538 346 538 319 l 538 446 q 543 746 543 743 q 540 917 543 864 q 559 944 540 936 l 936 944 l 936 838 q 925 507 927 581 l 925 465 q 924 444 925 457 q 924 425 924 430 q 925 392 924 401 l 925 339 q 906 203 925 245 l 906 201 q 844 113 884 150 q 751 55 803 76 q 644 25 699 35 q 528 16 589 16 q 499 20 509 16 l 483 20 q 463 14 483 14 l 463 12 q 376 19 448 12 l 345 19 q 262 38 302 24 q 185 78 222 52 q 120 140 148 104 q 74 228 92 176 q 54 340 56 279 q 55 438 55 376 q 55 552 54 500 q 58 651 56 603 l 58 670 q 59 681 58 673 q 60 692 60 688 q 58 722 60 702 q 57 753 57 743 l 57 776 l 57 774 z "},"":{"ha":983,"x_min":54,"x_max":936,"o":"m 304 1043 l 450 1292 l 581 1289 q 602 1288 586 1289 q 636 1286 618 1287 q 678 1285 655 1286 q 721 1283 701 1284 q 759 1279 742 1281 q 786 1273 776 1276 q 797 1265 797 1270 l 613 1059 q 591 1038 602 1046 q 573 1025 581 1030 q 551 1018 565 1021 q 530 1016 538 1016 q 501 1015 522 1015 q 467 1013 479 1014 l 320 1013 l 304 1043 m 57 774 q 54 852 54 788 q 68 939 54 925 l 437 939 l 437 369 q 488 281 437 281 q 524 300 510 281 q 538 346 538 319 l 538 446 q 543 746 543 743 q 540 917 543 864 q 559 944 540 936 l 936 944 l 936 838 q 925 507 927 581 l 925 465 q 924 444 925 457 q 924 425 924 430 q 925 392 924 401 l 925 339 q 906 203 925 245 l 906 201 q 844 113 884 150 q 751 55 803 76 q 644 25 699 35 q 528 16 589 16 q 499 20 509 16 l 483 20 q 463 14 483 14 l 463 12 q 376 19 448 12 l 345 19 q 262 38 302 24 q 185 78 222 52 q 120 140 148 104 q 74 228 92 176 q 54 340 56 279 q 55 438 55 376 q 55 552 54 500 q 58 651 56 603 l 58 670 q 59 681 58 673 q 60 692 60 688 q 58 722 60 702 q 57 753 57 743 l 57 776 l 57 774 z "},"":{"ha":983,"x_min":54,"x_max":936,"o":"m 149 1048 l 273 1221 q 289 1243 280 1230 q 303 1263 298 1257 q 320 1275 308 1268 q 352 1284 332 1282 q 406 1289 372 1287 l 646 1295 l 825 1045 q 821 1034 825 1039 q 807 1026 816 1029 q 788 1023 799 1023 l 742 1023 q 547 1017 633 1023 q 520 1039 531 1025 q 498 1075 509 1053 q 483 1104 487 1098 q 468 1080 480 1101 q 441 1041 456 1059 q 416 1023 427 1023 l 203 1023 q 165 1029 182 1023 q 149 1048 149 1036 m 57 774 q 54 852 54 788 q 68 939 54 925 l 437 939 l 437 369 q 488 281 437 281 q 524 300 510 281 q 538 346 538 319 l 538 446 q 543 746 543 743 q 540 917 543 864 q 559 944 540 936 l 936 944 l 936 838 q 925 507 927 581 l 925 465 q 924 444 925 457 q 924 425 924 430 q 925 392 924 401 l 925 339 q 906 203 925 245 l 906 201 q 844 113 884 150 q 751 55 803 76 q 644 25 699 35 q 528 16 589 16 q 499 20 509 16 l 483 20 q 463 14 483 14 l 463 12 q 376 19 448 12 l 345 19 q 262 38 302 24 q 185 78 222 52 q 120 140 148 104 q 74 228 92 176 q 54 340 56 279 q 55 438 55 376 q 55 552 54 500 q 58 651 56 603 l 58 670 q 59 681 58 673 q 60 692 60 688 q 58 722 60 702 q 57 753 57 743 l 57 776 l 57 774 z "},"":{"ha":983,"x_min":54,"x_max":936,"o":"m 176 1053 l 176 1095 q 183 1228 176 1164 q 201 1291 189 1291 l 423 1291 q 439 1259 439 1286 l 439 1042 q 374 1023 434 1023 q 349 1023 365 1023 q 327 1024 332 1024 q 258 1022 302 1024 q 198 1019 213 1019 q 176 1053 187 1037 m 548 1050 q 570 1291 548 1280 q 642 1289 618 1289 q 694 1290 659 1289 q 753 1291 730 1291 q 808 1275 806 1291 q 811 1044 811 1120 q 798 1028 808 1028 q 795 1029 795 1028 q 679 1024 754 1026 q 570 1019 604 1021 l 548 1046 l 548 1050 m 57 774 q 54 852 54 788 q 68 939 54 925 l 437 939 l 437 369 q 488 281 437 281 q 524 300 510 281 q 538 346 538 319 l 538 446 q 543 746 543 743 q 540 917 543 864 q 559 944 540 936 l 936 944 l 936 838 q 925 507 927 581 l 925 465 q 924 444 925 457 q 924 425 924 430 q 925 392 924 401 l 925 339 q 906 203 925 245 l 906 201 q 844 113 884 150 q 751 55 803 76 q 644 25 699 35 q 528 16 589 16 q 499 20 509 16 l 483 20 q 463 14 483 14 l 463 12 q 376 19 448 12 l 345 19 q 262 38 302 24 q 185 78 222 52 q 120 140 148 104 q 74 228 92 176 q 54 340 56 279 q 55 438 55 376 q 55 552 54 500 q 58 651 56 603 l 58 670 q 59 681 58 673 q 60 692 60 688 q 58 722 60 702 q 57 753 57 743 l 57 776 l 57 774 z "},"":{"ha":444,"x_min":94,"x_max":357,"o":"m 96 773 q 95 880 97 812 q 94 977 94 949 q 113 1012 94 1012 l 339 1012 q 354 978 354 1007 q 353 966 354 975 q 353 952 353 958 l 353 894 q 355 851 353 880 q 357 808 357 823 l 357 787 q 355 764 355 780 q 288 743 351 743 l 96 743 l 96 773 z "},"":{"ha":1615,"x_min":-33,"x_max":1569,"o":"m 1326 -8 q 1188 -12 1274 -8 q 1054 -16 1103 -16 l 784 -16 q 770 -17 781 -16 q 754 -17 760 -17 q 740 -16 749 -17 q 725 -12 730 -14 q 715 -6 720 -10 q 708 5 710 -1 l 708 50 q 684 113 701 84 q 648 141 667 141 l 415 141 l 380 -3 q 304 -19 370 -19 l 250 -19 q 163 -21 220 -19 q 76 -23 105 -23 l 57 -23 q 23 -24 46 -23 q -14 -24 -1 -24 q -33 0 -19 -19 q 43 254 -3 111 q 114 497 70 334 q 202 790 159 660 q 296 1023 245 920 l 415 1023 q 533 1024 455 1023 q 651 1025 611 1025 l 765 1025 q 792 1023 776 1025 q 1246 1028 995 1028 q 1268 1012 1264 1026 q 1340 753 1335 770 q 1330 740 1340 744 q 1306 735 1320 735 l 1289 735 q 966 741 1110 735 q 986 633 984 640 l 1306 633 q 1348 610 1342 633 l 1348 589 q 1380 492 1356 556 q 1412 396 1404 429 l 1412 389 q 1405 382 1412 382 l 1397 385 q 1082 374 1188 374 l 1065 374 l 1093 277 q 1265 282 1153 277 q 1435 288 1377 288 q 1492 269 1482 288 l 1569 13 q 1549 -9 1569 -9 q 1548 -9 1548 -9 q 1438 -9 1512 -9 q 1326 -8 1364 -8 m 438 412 l 457 380 l 502 380 q 601 386 556 380 q 646 407 646 393 l 559 798 q 526 751 547 798 q 492 647 505 705 l 438 412 z "},"":{"ha":1111,"x_min":-33,"x_max":1140,"o":"m 354 1289 q 373 1333 362 1305 q 391 1380 384 1361 q 413 1421 399 1398 q 444 1457 427 1444 q 489 1480 460 1471 q 553 1489 517 1489 q 696 1433 635 1489 q 757 1291 757 1376 q 698 1151 757 1208 q 560 1093 640 1093 q 477 1110 515 1093 q 414 1155 439 1127 q 373 1218 389 1183 q 354 1289 358 1252 m 477 1298 q 505 1239 480 1260 q 560 1218 529 1218 q 610 1237 591 1218 q 629 1291 629 1257 q 607 1346 629 1326 q 556 1366 585 1366 q 505 1348 528 1366 q 477 1298 482 1330 m -33 0 q 60 315 9 155 q 187 698 111 475 q 290 1006 262 921 q 301 1023 298 1020 l 415 1023 q 533 1024 455 1023 q 651 1025 611 1025 l 765 1025 q 782 1025 775 1025 q 798 1023 789 1025 q 813 1019 808 1022 q 823 1011 819 1017 q 827 998 827 1006 l 1140 7 q 1130 -11 1140 -6 q 1093 -16 1120 -16 l 1031 -16 q 950 -17 1004 -16 q 869 -18 897 -18 q 837 -19 861 -18 q 795 -19 812 -20 q 757 -17 778 -19 q 724 -10 736 -16 q 708 5 711 -4 l 708 50 q 684 113 701 84 q 648 141 667 141 l 415 141 l 380 -3 q 304 -19 372 -19 l 250 -19 q 163 -21 220 -19 q 76 -23 105 -23 l 57 -23 q 23 -24 46 -23 q -14 -24 -1 -24 q -33 0 -19 -19 m 438 412 l 457 380 l 502 380 q 601 386 556 380 q 646 407 646 393 l 559 798 q 526 751 547 798 q 492 647 505 705 l 438 412 z "},"":{"ha":1111,"x_min":-33,"x_max":1140,"o":"m 673 1101 q 560 1125 633 1101 q 453 1149 487 1149 q 438 1131 441 1149 q 429 1114 435 1114 q 379 1112 412 1112 q 338 1111 347 1112 l 251 1111 q 237 1134 237 1116 q 291 1312 237 1253 q 444 1370 345 1370 q 537 1354 475 1371 l 583 1354 q 605 1342 591 1352 q 624 1331 618 1333 l 647 1331 q 650 1325 648 1325 q 656 1347 656 1334 l 680 1366 l 850 1366 q 862 1361 857 1366 q 869 1353 867 1356 q 873 1341 870 1350 q 673 1101 865 1101 m 656 1332 l 656 1333 l 656 1332 m -33 0 q 60 315 9 155 q 187 698 111 475 q 290 1006 262 921 q 301 1023 298 1020 l 415 1023 q 533 1024 455 1023 q 651 1025 611 1025 l 765 1025 q 782 1025 775 1025 q 798 1023 789 1025 q 813 1019 808 1022 q 823 1011 819 1017 q 827 998 827 1006 l 1140 7 q 1130 -11 1140 -6 q 1093 -16 1120 -16 l 1031 -16 q 950 -17 1004 -16 q 869 -18 897 -18 q 837 -19 861 -18 q 795 -19 812 -20 q 757 -17 778 -19 q 724 -10 736 -16 q 708 5 711 -4 l 708 50 q 684 113 701 84 q 648 141 667 141 l 415 141 l 380 -3 q 304 -19 372 -19 l 250 -19 q 163 -21 220 -19 q 76 -23 105 -23 l 57 -23 q 23 -24 46 -23 q -14 -24 -1 -24 q -33 0 -19 -19 m 438 412 l 457 380 l 502 380 q 601 386 556 380 q 646 407 646 393 l 559 798 q 526 751 547 798 q 492 647 505 705 l 438 412 z "},"":{"ha":979,"x_min":-3,"x_max":990,"o":"m 990 258 q 954 141 984 193 q 881 57 924 90 q 780 1 838 24 q 667 -32 723 -22 q 551 -46 612 -43 q 461 -38 511 -46 q 380 -18 411 -29 l 361 -18 q 348 -10 355 -16 q 339 -3 341 -4 l 298 22 q 224 74 257 42 q 168 148 191 106 q 131 225 145 189 q 102 309 116 262 l 12 309 q -3 330 -3 315 q 5 357 -1 337 q 15 393 10 377 q 25 427 20 409 q 37 456 31 445 q 49 469 43 467 l 81 469 q 82 491 81 477 q 83 513 83 505 l 46 513 q 0 532 0 513 l 41 675 l 106 673 q 302 958 155 872 l 345 979 q 414 1004 359 984 q 572 1017 471 1017 q 707 1004 641 1017 q 831 965 774 991 q 927 898 888 940 q 975 804 966 857 l 975 764 q 975 759 975 762 q 974 754 975 755 q 973 752 974 753 q 971 750 972 751 q 968 749 970 749 l 656 749 q 630 825 656 792 q 557 859 604 859 q 517 840 535 859 q 491 794 500 821 q 476 740 482 767 q 469 694 471 713 l 468 675 l 705 675 q 724 651 724 673 l 705 589 l 689 524 q 673 513 682 513 l 608 513 q 545 509 547 509 q 506 509 532 509 q 467 510 479 510 l 467 472 q 545 475 518 475 q 567 474 553 475 q 590 473 582 473 q 618 474 599 473 q 646 475 637 475 q 663 468 657 473 q 669 454 669 463 l 632 340 q 585 342 612 342 q 524 341 557 342 q 477 340 491 340 q 480 315 477 339 q 486 278 484 292 q 494 240 489 265 q 507 198 500 214 q 525 165 515 182 q 551 139 536 147 q 583 130 566 130 q 633 143 612 130 q 664 178 654 157 q 679 221 675 200 q 684 263 684 241 l 966 281 q 982 275 977 280 q 990 258 987 270 z "},"":{"ha":1351,"x_min":22,"x_max":1329,"o":"m 559 -5 q 167 127 312 -5 q 22 486 22 259 q 28 585 22 534 q 49 692 34 636 q 86 794 64 747 q 145 881 109 842 q 225 941 180 921 l 290 979 q 391 1002 334 994 q 486 1012 447 1010 q 586 1013 526 1013 l 1329 1013 l 1329 742 l 1308 716 q 1218 719 1266 718 q 1112 720 1171 720 q 1023 720 1054 720 l 1023 651 l 1084 651 q 1177 653 1119 651 q 1249 655 1235 655 q 1288 646 1280 655 q 1295 605 1295 637 q 1295 488 1295 566 q 1294 374 1294 410 q 1275 354 1292 358 q 1017 357 1191 354 l 1017 277 l 1310 277 q 1328 260 1324 275 l 1328 -5 l 559 -5 m 411 502 q 413 459 413 490 q 414 398 414 428 q 421 333 414 368 q 441 272 428 298 q 482 228 454 245 q 551 210 510 210 q 632 229 592 210 l 632 250 q 632 437 629 304 q 633 628 635 570 l 633 762 q 622 769 633 765 q 592 777 610 773 q 567 784 574 781 l 548 784 q 493 770 517 784 q 454 732 469 757 q 431 680 440 707 q 417 618 421 654 q 412 557 414 582 q 411 502 411 533 m 585 258 q 585 259 585 258 q 585 260 584 260 l 585 258 z "},"":{"ha":1115,"x_min":16,"x_max":1084,"o":"m 195 -122 q 195 -118 195 -122 q 170 -112 188 -118 q 142 -100 153 -105 l 232 43 q 16 510 16 183 l 16 585 q 58 758 23 680 q 145 890 92 836 q 269 980 199 943 q 415 1034 338 1017 q 572 1051 491 1051 q 841 990 713 1051 l 917 1107 q 945 1095 923 1107 q 967 1076 967 1083 q 921 989 967 1061 l 898 954 q 1038 769 994 883 q 1082 526 1082 655 q 982 157 1084 297 l 952 117 q 840 26 913 62 q 693 -24 766 -10 q 545 -38 620 -38 q 297 5 400 -38 l 259 -54 q 223 -105 238 -87 q 195 -122 208 -123 m 556 779 q 506 766 528 779 q 470 734 484 753 q 446 685 456 716 q 431 630 436 654 q 424 567 427 605 q 421 509 421 530 q 420 456 420 488 q 429 350 420 405 l 659 708 q 556 779 626 779 m 464 266 q 538 225 491 225 q 591 235 568 225 q 630 260 614 245 q 656 301 646 275 q 673 351 667 327 q 682 410 679 374 q 686 470 685 445 q 686 534 686 496 l 686 574 q 684 614 686 587 l 464 266 z "},"":{"ha":1115,"x_min":16,"x_max":1084,"o":"m 667 1101 q 554 1125 627 1101 q 448 1149 481 1149 q 433 1131 435 1149 q 423 1114 430 1114 q 374 1112 406 1112 q 332 1111 342 1112 l 245 1111 q 232 1134 232 1116 q 286 1312 232 1253 q 438 1370 340 1370 q 532 1354 470 1371 l 578 1354 q 600 1342 586 1352 q 618 1331 613 1333 l 642 1331 q 644 1325 643 1325 q 651 1347 651 1334 l 674 1366 l 845 1366 q 857 1361 852 1366 q 863 1353 862 1356 q 868 1341 865 1350 q 667 1101 859 1101 m 651 1332 l 651 1333 l 651 1332 m 16 510 l 16 585 q 58 758 23 680 q 145 890 92 836 q 269 980 199 943 q 415 1034 338 1017 q 572 1051 491 1051 q 666 1044 617 1051 q 768 1020 714 1036 q 872 972 823 1004 q 955 898 922 941 q 1052 726 1022 816 q 1082 526 1082 636 q 982 157 1084 297 l 952 117 q 840 26 913 62 q 693 -24 766 -10 q 545 -38 620 -38 q 384 -20 458 -38 q 256 27 310 -3 q 161 100 203 57 q 92 190 119 142 q 48 293 65 237 q 23 401 31 349 q 16 510 16 454 m 556 779 q 506 766 528 779 q 470 734 484 753 q 446 685 456 716 q 431 630 436 654 q 424 567 427 605 q 421 509 421 530 q 420 456 420 488 q 423 396 420 425 q 433 337 425 368 q 453 282 441 305 q 488 242 466 258 q 538 225 510 227 q 591 235 568 225 q 630 260 614 245 q 656 301 646 275 q 673 351 667 327 q 682 410 679 374 q 686 470 685 445 q 686 534 686 496 q 685 587 686 563 q 679 642 683 612 q 665 694 675 671 q 642 737 656 717 q 607 768 629 757 q 556 779 585 779 z "},"":{"ha":1034,"x_min":-37,"x_max":1064,"o":"m 220 1123 l 220 1165 q 226 1298 220 1235 q 244 1362 233 1362 l 467 1362 q 483 1329 483 1356 l 483 1112 q 418 1093 477 1093 q 392 1094 408 1093 q 370 1095 376 1095 q 301 1092 346 1095 q 241 1089 256 1090 q 220 1123 231 1107 m 591 1120 q 613 1362 591 1350 q 685 1359 662 1359 q 738 1360 703 1359 q 796 1362 773 1362 q 852 1345 849 1362 q 854 1115 854 1191 q 841 1099 851 1099 q 838 1100 838 1099 q 722 1094 798 1097 q 613 1089 647 1092 l 591 1116 l 591 1120 m 1064 991 q 904 685 1021 906 q 728 339 787 463 l 728 0 q 719 -17 724 -12 q 701 -22 713 -22 q 511 -23 637 -22 q 318 -24 385 -24 q 294 33 294 0 q 297 66 296 47 q 297 115 298 85 q 296 152 296 144 l 296 201 q 229 492 296 363 q 207 536 218 513 q 186 581 196 559 q 165 625 176 603 q 143 670 154 648 q 123 714 133 692 q 101 759 113 736 q 79 803 90 782 l -37 998 q -22 1014 -37 1006 q 6 1021 -8 1021 l 177 1021 q 283 1021 212 1021 q 389 1020 354 1020 q 410 1000 398 1019 q 434 951 421 982 q 458 885 446 920 q 483 808 471 850 q 504 734 495 766 q 523 669 513 702 q 534 625 532 635 l 659 1023 l 1041 1023 q 1055 1015 1050 1021 q 1064 991 1060 1008 z "},"":{"ha":1424,"x_min":-26,"x_max":1380,"o":"m 1227 372 q 1227 373 1227 372 q 1141 370 1202 373 q 1044 366 1080 366 l 939 366 l 959 289 q 1063 292 992 289 q 1164 296 1135 296 l 1253 296 q 1274 295 1267 296 q 1291 291 1280 295 q 1307 279 1302 287 l 1380 33 l 696 33 q 687 33 694 33 q 677 33 681 33 q 668 33 674 33 q 659 33 663 33 q 651 34 656 33 q 644 36 647 35 q 638 39 641 37 q 634 43 635 41 q 631 49 632 45 l 606 152 q 600 166 603 165 q 584 168 597 168 l 375 168 q 366 127 370 153 q 358 87 361 102 q 345 57 354 73 q 318 33 336 41 q 272 26 300 26 l -26 27 l 33 277 l 271 941 l 1074 935 q 1097 921 1095 933 l 1168 691 q 1154 673 1168 684 l 839 673 q 843 660 839 667 q 847 651 847 654 l 847 604 q 860 603 850 604 q 871 602 869 602 l 889 602 q 1009 605 928 602 q 1132 608 1090 608 q 1152 605 1144 608 q 1164 595 1160 602 q 1171 584 1168 589 q 1175 570 1173 579 q 1178 556 1177 560 l 1178 530 l 1185 521 q 1194 505 1192 511 l 1194 472 q 1213 434 1198 456 q 1230 403 1227 411 l 1230 385 q 1230 380 1230 382 q 1231 376 1230 378 q 1231 374 1231 375 q 1230 372 1231 372 q 1227 372 1229 372 m 557 491 q 545 552 553 510 q 530 626 537 595 q 513 685 522 658 l 513 718 q 494 738 508 732 l 494 736 q 462 646 478 733 l 462 605 q 458 603 461 604 q 453 601 456 602 q 451 600 451 600 q 414 439 429 500 q 411 416 414 433 q 408 396 408 399 l 576 396 q 565 458 576 406 l 565 475 q 561 483 564 477 q 557 491 557 488 z "},"":{"ha":897,"x_min":26,"x_max":872,"o":"m 26 236 q 83 302 52 271 q 151 359 114 333 q 229 400 187 385 q 312 415 271 415 q 390 399 348 415 q 464 365 432 384 q 533 330 496 346 q 597 315 570 315 q 659 341 629 315 q 730 416 690 367 l 765 416 l 872 299 q 869 291 872 295 q 863 285 866 286 q 750 163 813 210 q 614 115 687 115 q 446 168 536 117 l 397 195 q 298 222 349 222 q 201 178 246 225 l 178 153 q 176 152 177 153 q 146 125 153 125 l 26 236 m 28 543 q 154 679 82 631 q 312 727 225 727 q 445 694 389 727 l 499 663 q 510 657 501 662 q 522 650 519 652 q 533 644 525 648 q 544 638 541 640 q 554 634 547 637 q 564 629 560 631 q 574 627 568 628 q 585 625 580 625 q 594 624 589 624 q 730 726 656 624 l 765 726 l 871 609 q 868 601 871 607 q 863 591 864 594 q 790 507 825 541 q 707 448 756 473 q 606 423 659 423 q 586 425 593 423 l 564 425 q 495 448 533 429 q 428 486 457 467 q 365 520 399 505 q 301 536 330 536 q 249 523 277 536 q 201 487 220 511 l 149 433 l 28 543 z "},"":{"ha":1005,"x_min":-22,"x_max":1023,"o":"m 297 1188 q 316 1233 305 1205 q 334 1279 327 1261 q 356 1321 342 1298 q 387 1357 370 1343 q 432 1380 404 1371 q 496 1389 460 1389 q 639 1332 578 1389 q 700 1191 700 1276 q 641 1050 700 1107 q 503 993 583 993 q 420 1010 458 993 q 357 1055 382 1027 q 316 1117 332 1083 q 297 1188 301 1152 m 420 1198 q 448 1139 423 1160 q 503 1118 472 1118 q 553 1137 534 1118 q 572 1191 572 1156 q 550 1246 572 1226 q 499 1265 528 1265 q 448 1247 471 1265 q 420 1198 425 1230 m 374 168 q 365 127 370 153 q 357 87 361 102 q 345 57 353 73 q 318 33 336 41 q 271 26 300 26 l -22 26 l -22 49 q 83 380 14 157 q 190 718 152 603 l 190 716 q 258 922 213 782 q 260 926 258 924 q 271 941 266 936 l 637 939 q 741 922 731 939 l 741 905 q 755 873 742 899 q 852 581 821 672 l 852 572 q 864 528 854 553 q 887 474 873 503 q 905 429 900 445 l 932 331 q 1002 121 956 252 l 1002 122 l 1002 109 q 1013 83 1004 99 q 1023 60 1021 66 q 1015 35 1023 41 q 985 30 1007 30 l 670 30 q 655 32 659 31 q 645 35 652 33 q 634 40 637 37 q 631 49 631 43 l 605 152 q 600 166 602 165 q 583 168 597 168 l 374 168 m 407 410 l 407 407 l 407 410 m 556 491 q 544 552 552 510 q 529 626 536 595 q 513 685 522 658 l 513 718 q 494 738 507 732 l 494 736 q 461 646 477 733 l 461 613 q 455 604 460 608 q 450 600 450 600 q 414 439 428 500 q 410 416 414 433 q 407 396 407 399 l 575 396 q 563 460 575 414 l 563 475 q 559 483 562 477 q 556 491 556 488 z "},"":{"ha":1005,"x_min":-22,"x_max":1023,"o":"m 618 994 q 506 1018 578 994 q 399 1042 433 1042 q 384 1024 387 1042 q 374 1006 381 1006 q 325 1005 357 1005 q 283 1004 293 1004 l 197 1004 q 183 1027 183 1009 q 237 1204 183 1146 q 389 1263 291 1263 q 483 1246 421 1264 l 529 1246 q 551 1235 537 1244 q 570 1223 564 1225 l 593 1223 q 595 1218 594 1218 q 602 1240 602 1227 l 625 1259 l 796 1259 q 808 1254 803 1259 q 814 1246 813 1249 q 819 1234 816 1243 q 618 994 810 994 m 602 1225 l 602 1226 l 602 1225 m 374 168 q 365 127 370 153 q 357 87 361 102 q 345 57 353 73 q 318 33 336 41 q 271 26 300 26 l -22 26 l -22 49 q 83 380 14 157 q 190 718 152 603 l 190 716 q 258 922 213 782 q 260 926 258 924 q 271 941 266 936 l 637 939 q 741 922 731 939 l 741 905 q 755 873 742 899 q 852 581 821 672 l 852 572 q 864 528 854 553 q 887 474 873 503 q 905 429 900 445 l 932 331 q 1002 121 956 252 l 1002 122 l 1002 109 q 1013 83 1004 99 q 1023 60 1021 66 q 1015 35 1023 41 q 985 30 1007 30 l 670 30 q 655 32 659 31 q 645 35 652 33 q 634 40 637 37 q 631 49 631 43 l 605 152 q 600 166 602 165 q 583 168 597 168 l 374 168 m 407 410 l 407 407 l 407 410 m 556 491 q 544 552 552 510 q 529 626 536 595 q 513 685 522 658 l 513 718 q 494 738 507 732 l 494 736 q 461 646 477 733 l 461 613 q 455 604 460 608 q 450 600 450 600 q 414 439 428 500 q 410 416 414 433 q 407 396 407 399 l 575 396 q 563 460 575 414 l 563 475 q 559 483 562 477 q 556 491 556 488 z "},"":{"ha":774,"x_min":106,"x_max":663,"o":"m 106 495 l 106 498 q 131 597 112 550 q 183 684 150 644 q 268 747 216 724 q 384 770 319 770 q 520 735 456 770 q 624 637 584 701 q 663 498 663 574 q 625 358 663 421 q 524 260 587 295 q 389 225 462 225 q 274 249 326 225 q 187 312 221 273 q 132 398 153 351 q 106 495 112 445 z "},"":{"ha":481,"x_min":-94,"x_max":573,"o":"m -94 1165 q -73 1188 -94 1179 q 35 1185 -35 1188 q 144 1183 105 1183 q 186 1175 173 1183 q 219 1133 200 1166 l 245 1088 q 276 1135 256 1102 q 307 1183 296 1168 q 392 1182 336 1183 q 474 1181 447 1181 l 561 1181 q 573 1166 573 1181 q 571 1156 573 1162 q 565 1143 569 1151 q 557 1131 560 1135 q 547 1116 554 1126 q 538 1103 540 1105 q 462 990 484 1025 q 449 969 458 984 q 436 949 440 955 q 422 935 432 944 q 403 921 413 925 q 377 915 393 918 q 340 911 361 911 l 68 911 l -94 1165 z "},"":{"ha":1015,"x_min":90,"x_max":922,"o":"m 922 258 q 896 143 918 193 q 834 61 873 94 q 751 6 795 28 q 646 -33 707 -15 q 648 -149 648 -109 q 643 -178 648 -169 q 621 -187 637 -187 l 574 -187 q 500 -186 549 -187 q 427 -184 452 -184 l 401 -156 l 401 -37 l 357 -37 q 157 104 224 -1 q 90 363 90 209 q 407 734 90 640 q 406 805 407 759 q 406 872 406 850 q 420 892 408 890 l 632 892 q 631 808 631 868 l 631 787 q 629 734 631 751 q 822 657 749 728 q 911 449 896 587 q 825 434 911 434 q 791 435 812 434 q 765 435 770 435 q 695 435 741 435 q 624 434 648 434 q 590 438 600 434 q 581 457 581 443 q 530 543 581 543 q 489 525 506 543 q 464 478 472 507 q 453 424 456 450 q 450 372 450 399 l 450 342 q 452 304 450 316 l 452 266 q 454 235 452 250 q 463 205 456 220 q 483 180 469 189 q 515 171 496 171 q 563 186 545 171 q 586 219 581 201 q 594 256 591 237 q 600 279 597 276 q 902 278 701 278 q 922 258 916 276 z "},"":{"ha":481,"x_min":-94,"x_max":583,"o":"m -94 942 l 31 1115 q 47 1138 38 1124 q 61 1157 56 1152 q 78 1169 66 1162 q 110 1179 90 1176 q 163 1183 130 1181 l 404 1190 l 583 939 q 578 928 583 933 q 565 920 574 923 q 546 917 557 917 l 500 917 q 304 911 391 917 q 278 933 289 920 q 256 969 267 947 q 241 998 245 992 q 226 974 238 996 q 199 935 214 953 q 174 917 185 917 l -39 917 q -77 923 -60 917 q -94 942 -94 930 z "},"":{"ha":1116,"x_min":5,"x_max":1104,"o":"m 5 498 q 34 686 5 599 q 114 839 63 774 q 234 950 165 903 q 383 1020 302 996 q 551 1043 464 1043 q 761 1002 660 1043 q 937 888 861 960 q 1059 713 1013 817 q 1104 491 1104 609 q 1059 289 1104 387 q 941 118 1015 191 q 767 1 867 45 q 562 -43 667 -43 q 263 41 406 -43 q 162 118 206 74 q 91 208 118 163 q 46 306 64 252 q 19 403 27 359 q 5 498 10 448 m 562 884 q 412 853 481 884 q 293 769 342 822 q 213 649 244 716 q 170 506 181 581 q 220 316 170 405 q 358 173 271 227 q 547 119 446 119 q 694 150 623 119 q 818 234 765 181 q 902 362 870 287 q 933 521 933 437 q 882 704 933 621 q 745 835 830 787 q 562 884 660 882 m 557 363 q 591 370 578 363 q 610 386 604 376 q 623 407 616 395 q 637 428 630 418 q 662 444 645 437 q 704 450 679 450 l 783 450 q 806 449 797 450 q 823 441 815 448 q 830 423 830 435 q 744 255 814 318 q 578 191 675 191 q 460 210 513 191 q 372 258 407 228 q 312 330 336 289 q 277 415 288 371 q 266 507 266 460 q 292 633 266 575 q 362 729 319 691 q 460 788 406 767 q 572 810 515 810 q 739 750 677 810 q 825 591 802 691 q 779 570 825 570 l 663 570 q 638 590 648 576 q 624 617 629 605 q 605 640 620 630 q 566 650 591 650 q 512 635 534 650 q 478 598 490 621 q 461 551 466 575 q 456 500 456 526 q 481 404 456 444 q 557 363 507 363 z "},"":{"ha":1028,"x_min":127,"x_max":892,"o":"m 127 711 q 133 789 127 762 q 155 817 138 817 q 243 814 184 817 q 330 812 302 812 q 357 814 351 812 q 358 890 357 839 q 359 966 359 941 q 359 978 359 969 q 358 990 358 987 q 372 1020 358 1015 l 628 1020 q 658 1008 648 1020 q 669 960 669 996 l 669 917 q 668 875 669 903 q 667 833 667 847 l 667 812 q 764 814 700 812 q 857 817 827 817 q 869 816 864 817 q 878 815 874 815 q 883 812 881 814 q 887 809 886 810 q 889 805 888 808 q 890 801 890 802 q 890 795 890 800 q 890 789 890 791 q 891 683 890 753 q 892 578 892 612 q 846 559 889 559 l 677 559 q 675 282 677 469 q 674 3 674 96 q 650 -19 671 -19 l 372 -19 q 354 4 357 -5 q 350 38 350 13 q 352 286 350 121 q 354 537 354 452 l 354 556 l 174 556 q 153 556 159 556 q 139 563 147 557 q 132 581 132 568 q 130 639 132 593 q 127 711 127 685 z "},"":{"ha":1028,"x_min":127,"x_max":898,"o":"m 129 229 q 128 266 129 239 q 127 311 127 293 q 129 351 127 330 q 135 385 130 372 q 149 401 140 398 q 256 400 185 401 q 363 399 328 399 l 363 614 q 333 614 352 615 q 309 613 315 613 l 258 613 q 255 616 255 613 q 235 615 250 616 q 212 614 220 614 q 138 637 138 614 l 138 857 l 369 857 l 369 987 q 374 1012 369 1007 q 400 1017 380 1017 q 488 1023 444 1023 q 560 1021 514 1023 q 629 1019 606 1019 q 656 1010 650 1019 q 662 977 663 1001 l 662 857 l 890 857 q 892 632 892 719 q 884 618 892 621 q 859 616 877 616 l 661 616 q 666 403 666 520 q 754 400 723 400 q 810 401 773 400 q 865 401 847 401 q 888 395 880 401 q 895 369 895 389 l 895 304 q 896 273 895 292 q 897 245 897 254 l 897 236 q 898 220 897 225 l 898 201 q 876 152 898 157 l 667 152 l 667 92 q 669 35 669 75 q 651 -14 669 -5 q 566 -22 633 -22 q 563 -22 564 -22 q 560 -22 562 -22 l 382 -22 q 363 12 368 -1 q 358 45 358 25 l 358 146 q 255 148 323 146 q 151 149 186 149 q 129 229 129 153 z "},"":{"ha":1407,"x_min":54,"x_max":1343,"o":"m 54 19 l 54 30 q 56 62 54 40 q 57 98 57 84 l 57 133 q 79 298 57 298 l 355 298 q 422 279 422 298 l 422 -12 q 414 -12 421 -12 q 407 -11 408 -11 q 268 -17 358 -14 q 151 -22 178 -20 l 77 -22 l 56 9 q 54 19 54 12 m 514 27 l 514 49 q 521 281 514 152 q 704 301 521 301 l 800 301 q 882 282 876 301 l 882 4 q 808 -16 877 -9 q 659 -22 739 -22 l 536 -22 l 515 8 q 514 27 515 20 m 972 60 q 979 282 972 155 q 1090 302 979 302 q 1156 302 1112 302 q 1223 301 1199 301 q 1265 299 1233 300 q 1317 295 1297 298 q 1340 283 1337 292 q 1341 213 1340 260 q 1341 142 1341 167 q 1341 121 1341 135 q 1340 100 1340 108 l 1340 52 q 1343 3 1343 19 q 1153 -22 1335 -22 q 1109 -21 1131 -22 q 1074 -21 1087 -21 q 1061 -20 1061 -20 l 996 -20 l 974 8 q 973 34 974 16 q 972 60 972 51 z "},"":{"ha":1388,"x_min":-14,"x_max":1397,"o":"m -3 502 l 1381 502 q 1394 494 1392 499 q 1397 477 1397 488 q 1396 416 1396 456 q 1394 357 1395 377 l 1394 262 q 1373 250 1392 252 q 910 254 1217 254 q 109 237 453 252 l 8 237 l -12 266 q -13 348 -12 292 q -14 434 -14 404 q -3 502 -14 502 z "},"":{"ha":715,"x_min":-16,"x_max":728,"o":"m 8 233 q 1 240 6 235 q -5 246 -3 244 q -9 252 -6 248 q -13 260 -12 256 q -15 270 -14 264 q -16 285 -16 277 l -16 388 q 7 507 -16 507 q 150 506 56 507 q 290 505 244 505 l 450 505 q 524 506 468 505 q 610 507 579 506 l 640 507 q 657 509 645 507 q 678 510 670 510 q 710 493 699 510 q 725 446 722 477 q 728 389 728 416 q 726 326 728 362 q 724 277 724 289 q 703 247 724 247 l 568 247 q 290 240 477 247 q 8 233 103 233 z "},"":{"ha":532,"x_min":41,"x_max":469,"o":"m 41 -264 q 81 183 68 -35 l 81 282 q 101 427 90 376 q 126 479 113 479 q 231 479 171 479 q 308 480 292 480 q 344 480 330 480 q 371 477 359 479 q 391 474 384 475 q 404 466 398 472 q 412 457 410 460 q 417 443 414 453 q 419 425 419 432 q 421 400 420 417 q 423 372 422 384 l 423 332 q 444 130 425 315 q 469 -149 464 -55 l 469 -239 q 458 -254 467 -248 q 441 -260 450 -259 q 418 -263 433 -262 q 397 -264 404 -264 l 41 -264 m 76 594 l 76 686 q 76 706 76 692 q 77 731 77 720 q 78 756 77 742 q 80 782 79 771 q 83 804 81 793 q 89 819 85 814 q 98 825 93 825 l 431 825 q 441 812 437 825 q 446 772 444 800 q 447 725 447 745 q 448 670 448 706 l 448 589 q 416 571 443 575 q 336 567 389 567 l 255 567 q 100 563 251 567 q 76 594 87 576 z "},"":{"ha":1015,"x_min":60,"x_max":883,"o":"m 764 781 q 764 787 764 781 q 725 766 750 787 q 700 746 701 746 l 700 621 q 752 614 721 616 q 800 608 783 612 q 833 597 828 608 l 833 393 q 819 367 833 376 q 783 354 804 357 q 735 351 761 351 q 686 351 709 350 q 647 350 663 353 l 617 187 q 574 -43 591 20 q 444 -250 532 -193 q 278 -293 378 -293 q 238 -291 268 -293 q 166 -284 209 -289 q 91 -268 123 -279 q 60 -241 60 -256 q 63 -221 60 -234 q 68 -194 66 -208 l 68 -153 q 88 -62 75 -105 q 113 -19 101 -19 q 126 -23 122 -19 q 131 -16 127 -21 q 137 -7 134 -10 l 137 -26 q 171 -35 158 -35 q 231 38 213 -35 q 256 195 240 92 q 279 342 272 298 l 263 342 q 206 344 243 342 q 157 347 169 347 l 137 377 q 136 421 137 384 q 136 484 136 458 q 164 616 136 608 q 323 635 234 623 l 323 665 q 358 829 336 761 q 408 939 380 897 q 478 1004 437 981 q 563 1036 519 1028 q 666 1044 606 1044 q 883 1004 867 1044 l 847 769 q 830 770 843 769 q 814 772 817 771 l 779 772 q 771 777 776 772 q 764 781 766 781 z "},"":{"ha":373,"x_min":-171,"x_max":556,"o":"m -171 1 q 174 651 -132 73 l 386 1052 q 461 1049 410 1052 q 537 1046 513 1046 l 537 1047 q 546 1045 542 1047 q 552 1042 549 1044 q 556 1039 555 1040 q 138 228 458 854 l 0 -41 q -24 -56 -6 -54 q -35 -55 -27 -56 q -47 -54 -42 -54 q -101 -55 -66 -54 q -152 -56 -136 -56 l -152 -27 l -171 1 z "},"":{"ha":918,"x_min":71,"x_max":850,"o":"m 79 -35 l 79 156 l 822 156 q 833 154 829 155 q 840 150 837 153 q 844 141 843 147 l 844 -22 l 819 -57 l 79 -35 m 71 1006 l 109 1042 l 850 692 l 846 507 l 81 176 l 81 366 q 624 600 286 477 l 71 814 l 71 1006 z "},"":{"ha":905,"x_min":-13,"x_max":926,"o":"m -13 344 l 227 708 l 513 708 q 507 671 513 695 q 492 632 500 648 l 473 597 q 433 523 452 564 q 393 430 414 482 q 360 353 372 378 l 513 8 q 404 -14 513 -14 l 364 -14 q 238 -16 275 -16 q 225 -13 229 -16 q 218 1 220 -10 q 129 132 189 44 q -13 344 31 275 m 399 342 l 625 697 q 672 708 632 708 l 687 708 q 758 709 711 708 q 828 709 804 709 q 848 710 832 709 q 874 710 865 711 q 897 708 884 710 q 917 701 910 707 q 926 688 924 696 l 850 522 q 771 355 783 378 l 771 328 q 812 244 783 299 q 851 167 841 189 l 923 8 q 871 -16 923 -16 l 622 -16 q 399 342 471 229 z "},"":{"ha":903,"x_min":-1,"x_max":909,"o":"m 513 353 l 300 0 q 204 -11 279 -11 l 177 -11 q 50 -16 119 -16 q 1 3 1 -16 q 33 88 1 26 q 96 230 57 136 q 144 345 136 324 l -1 694 q 4 704 -1 700 q 20 710 10 708 q 41 712 29 712 q 89 713 52 712 q 155 714 125 713 q 219 713 185 714 q 273 708 252 712 q 296 697 294 704 l 513 353 m 387 0 q 434 114 407 51 q 492 242 462 176 q 541 355 522 309 l 387 691 q 441 708 387 708 l 475 708 q 548 709 500 708 q 619 709 595 709 l 646 709 q 661 707 652 708 q 688 696 681 703 q 709 665 693 691 l 713 659 q 827 473 770 567 q 854 434 832 464 q 893 378 877 404 q 909 340 909 352 l 750 116 l 687 -3 q 606 -14 676 -14 l 538 -14 q 497 -16 508 -16 q 490 -16 495 -16 q 482 -15 485 -15 l 427 -15 q 387 0 387 -15 z "},"":{"ha":498,"x_min":-3,"x_max":519,"o":"m -3 347 l 154 621 q 175 652 169 644 q 191 676 180 661 q 209 697 201 691 q 223 707 216 704 l 447 707 q 504 689 500 707 l 349 332 l 519 12 q 508 -7 519 2 q 486 -16 497 -16 q 468 -16 480 -16 q 448 -15 456 -15 q 334 -18 408 -15 l 220 -18 q 172 38 195 -7 l 80 205 l 35 258 q -3 347 -3 310 z "},"":{"ha":495,"x_min":-11,"x_max":508,"o":"m -11 690 q 41 708 -11 708 l 252 708 q 264 707 258 707 q 276 707 270 707 q 287 703 281 707 q 298 690 293 699 q 451 439 372 566 l 508 350 l 281 -16 l 177 -11 q 55 -16 125 -16 q -9 1 -9 -16 l 130 366 l -11 690 z "},"":{"ha":525,"x_min":-167,"x_max":696,"o":"m -167 949 l -20 1198 l 129 1196 q 306 1181 273 1193 q 319 1171 318 1177 l 144 972 q 124 952 132 960 q 106 938 116 943 q 91 929 96 932 q 73 925 86 926 q 55 923 60 923 q 30 922 50 922 q 0 921 10 922 l -148 921 q -157 935 -150 924 q -167 949 -165 947 m 231 917 q 227 921 229 918 q 221 926 224 924 q 216 931 218 928 q 212 937 213 935 l 358 1194 l 682 1194 q 696 1176 696 1192 q 694 1172 694 1175 q 611 1074 682 1156 q 502 947 540 991 l 480 926 q 475 931 477 926 q 469 949 473 936 l 231 917 z "},"":{"ha":1227,"x_min":68,"x_max":1166,"o":"m 68 411 q 101 554 68 488 q 200 664 134 621 q 353 707 266 707 q 502 656 439 707 q 621 513 566 606 q 746 655 671 600 q 895 711 821 711 q 1010 685 959 711 q 1094 616 1062 659 q 1144 524 1126 573 q 1166 423 1162 475 l 1166 420 q 1084 198 1166 283 q 876 114 1002 114 q 613 300 717 114 q 502 176 564 227 q 382 125 440 125 l 350 125 q 148 208 228 125 q 68 411 68 292 m 347 255 l 366 255 q 545 429 439 255 q 454 533 501 497 q 349 572 407 570 q 236 524 279 572 q 193 410 193 475 q 236 300 193 345 q 347 255 280 255 m 665 426 q 895 255 762 255 q 1022 302 972 255 q 1072 425 1072 349 q 1020 537 1062 490 q 906 583 979 583 q 780 541 846 583 q 665 426 714 498 z "},"":{"ha":669,"x_min":14,"x_max":670,"o":"m 670 1248 q 667 1213 669 1241 q 663 1158 665 1184 q 656 1103 660 1131 q 644 1057 652 1074 q 628 1039 637 1039 q 621 1036 628 1036 l 605 1039 q 595 1035 597 1036 q 596 1040 595 1037 q 597 1044 597 1042 q 553 1053 567 1053 q 520 1045 534 1053 q 495 1028 505 1038 q 479 999 486 1018 q 469 963 472 979 q 464 919 465 947 q 461 873 462 891 q 461 822 461 854 q 476 472 461 696 q 491 146 491 248 q 480 18 491 79 q 445 -99 469 -43 q 383 -195 420 -155 q 289 -258 346 -235 q 163 -282 233 -282 q 67 -272 120 -282 q 14 -244 14 -262 l 43 -42 q 79 -48 50 -42 q 122 -54 109 -54 q 169 -41 149 -54 q 198 -8 188 -27 q 214 42 208 12 q 221 97 220 73 q 222 155 222 121 q 220 216 222 178 q 218 296 218 255 l 218 309 q 210 457 216 387 l 210 597 q 197 722 208 623 q 186 876 186 821 q 275 1181 186 1074 q 541 1289 365 1289 q 670 1248 638 1289 z "},"":{"ha":917,"x_min":76,"x_max":857,"o":"m 76 499 l 77 692 l 838 1019 l 843 811 l 301 600 l 857 377 l 848 180 l 76 499 m 79 -49 l 79 160 q 445 149 270 149 q 831 161 640 149 q 854 141 852 159 l 854 -22 l 836 -49 l 79 -49 z "},"":{"ha":869,"x_min":65,"x_max":810,"o":"m 65 430 q 66 486 65 449 q 68 543 68 523 q 67 574 68 553 q 66 605 66 594 q 73 621 66 619 q 83 620 81 621 q 436 624 203 620 q 785 628 670 628 q 810 616 802 626 l 810 174 q 807 162 808 164 q 804 155 806 160 q 797 150 801 151 q 784 149 792 149 l 743 149 q 670 148 719 149 q 597 146 622 146 l 572 176 l 572 401 l 79 401 q 65 430 65 408 z "},"":{"ha":1080,"x_min":106,"x_max":964,"o":"m 106 510 q 429 1061 274 764 q 646 1066 535 1066 l 964 496 l 642 -50 l 430 -50 l 106 510 m 334 513 l 538 124 q 550 132 543 125 q 564 152 557 140 q 577 176 571 164 q 589 202 583 187 q 600 222 596 216 q 675 358 635 288 q 757 498 715 427 l 651 680 q 553 871 574 812 q 538 890 552 887 l 334 513 m 515 860 l 515 863 l 515 860 z "},"":{"ha":916,"x_min":71,"x_max":852,"o":"m 71 681 q 231 677 121 677 q 353 679 273 677 q 475 681 432 681 l 543 836 q 568 848 550 848 l 697 792 l 713 762 l 677 681 l 732 681 q 762 681 743 682 q 788 680 781 680 l 808 680 q 827 681 815 681 q 843 675 838 680 q 852 656 848 669 l 852 499 q 844 485 849 488 q 827 481 839 481 l 589 481 l 528 340 l 829 342 q 846 324 844 342 q 846 245 846 297 q 845 167 845 193 q 798 149 844 149 q 654 152 749 149 q 510 155 559 155 q 439 153 463 155 l 363 -21 l 212 47 l 260 155 l 228 155 q 198 153 218 153 q 156 154 184 153 q 114 155 128 155 q 107 154 113 155 q 98 153 102 153 q 76 165 76 153 q 75 242 76 190 q 75 321 75 294 q 132 343 75 343 q 243 341 174 343 q 336 338 312 338 l 399 486 l 71 486 l 71 681 z "},"":{"ha":1317,"x_min":22,"x_max":1303,"o":"m 22 323 q 68 528 22 434 q 203 680 115 623 q 403 738 292 738 l 429 738 q 453 739 437 739 q 674 674 566 739 q 928 747 775 747 q 1049 734 994 747 q 1142 697 1104 720 q 1210 642 1181 675 q 1256 574 1239 609 q 1285 498 1274 540 q 1300 420 1296 457 q 1303 345 1303 384 q 1303 317 1303 336 q 1302 290 1302 299 l 1282 267 l 825 267 q 897 174 825 174 q 941 193 922 174 l 941 208 q 971 216 944 210 q 996 215 979 216 q 1020 214 1012 214 q 1130 216 1057 214 q 1240 218 1203 218 q 1278 198 1278 218 q 1270 157 1278 180 l 1255 125 q 1168 31 1223 68 q 1053 -21 1112 -7 q 928 -35 994 -35 q 662 43 741 -35 q 418 -28 581 -28 q 129 69 235 -28 q 22 323 22 166 m 342 350 q 435 156 342 156 q 478 165 460 156 q 508 190 496 174 q 526 223 519 205 q 537 264 534 241 q 542 306 541 288 q 543 345 543 323 l 543 385 q 446 551 543 551 q 391 529 414 551 q 359 472 369 507 q 346 408 349 437 q 342 350 342 379 m 817 445 q 821 432 817 435 q 836 429 825 429 l 852 429 q 902 427 865 429 q 955 426 938 426 q 1002 430 989 426 q 1015 450 1015 435 l 1015 472 q 985 535 1015 504 q 911 567 956 567 q 846 532 871 567 q 817 445 820 497 z "},"":{"ha":429,"x_min":76,"x_max":456,"o":"m 76 -195 q 107 -94 76 -144 q 185 -13 139 -45 q 278 30 231 20 l 414 30 l 420 26 q 432 15 426 21 q 438 3 438 8 l 377 -42 q 310 -97 337 -67 q 283 -155 283 -127 q 347 -198 283 -198 q 423 -184 422 -184 q 456 -258 442 -184 l 456 -288 q 390 -319 456 -307 q 269 -331 325 -331 q 173 -319 214 -331 q 104 -275 132 -307 q 76 -195 76 -244 z "},"":{"ha":572,"x_min":34,"x_max":536,"o":"m 34 716 q 93 812 34 781 q 255 844 152 844 q 345 841 288 844 l 345 868 q 331 929 345 909 q 282 949 317 949 q 240 940 259 949 q 217 911 222 930 l 52 911 q 290 1013 66 1013 q 408 1008 375 1013 q 536 879 536 987 q 535 744 536 831 q 534 613 534 656 q 518 612 524 613 l 499 612 q 426 613 475 612 q 353 614 378 614 l 353 640 q 351 646 353 642 q 349 651 349 649 l 349 654 q 186 602 277 602 q 75 630 117 602 q 34 716 34 659 m 212 734 q 230 694 212 707 q 277 681 248 681 q 324 692 308 681 q 345 735 340 704 l 345 806 q 325 804 340 806 q 302 803 309 803 q 280 800 295 802 q 258 795 266 798 q 240 787 251 792 q 225 774 230 781 q 216 757 220 767 q 212 734 212 747 z "},"":{"ha":636,"x_min":-19,"x_max":646,"o":"m -19 804 l -19 814 q 6 906 -14 865 q 56 972 26 946 q 123 1014 85 998 q 201 1038 161 1031 q 283 1044 240 1044 q 646 811 646 1044 q 285 567 637 567 q -19 804 2 567 z "},"":{"ha":986,"x_min":12,"x_max":951,"o":"m 142 -98 q 150 -62 145 -79 q 157 -32 154 -44 q 169 -2 161 -20 q 181 23 178 17 q 195 52 184 30 q 209 77 207 73 q 67 244 114 157 q 14 450 20 332 l 14 491 l 12 506 q 37 660 25 616 q 132 830 63 762 l 148 846 q 247 911 189 887 l 273 911 q 329 934 311 927 q 384 951 347 941 q 450 960 421 960 q 491 963 467 960 q 670 936 585 963 l 761 1102 q 772 1099 764 1102 q 783 1096 781 1097 l 815 1081 q 823 1078 817 1080 q 832 1073 829 1076 q 836 1065 836 1070 q 806 989 833 1042 l 779 940 q 757 898 766 918 q 840 827 814 863 l 840 808 q 951 496 951 669 q 861 179 951 302 l 834 145 q 756 79 803 106 q 658 36 710 51 q 558 16 606 22 q 463 9 510 9 q 304 35 404 9 l 279 -14 q 241 -81 258 -57 q 206 -104 224 -104 q 201 -104 204 -104 q 197 -103 199 -103 l 182 -103 q 174 -98 179 -103 l 142 -98 m 357 486 q 365 369 357 428 l 543 697 q 483 716 519 716 q 419 699 446 716 q 380 650 393 681 q 362 587 368 619 q 357 518 357 555 l 357 486 m 423 259 q 472 247 445 247 q 527 257 503 247 q 565 286 550 267 q 588 326 579 305 q 601 377 597 347 q 606 431 605 408 q 608 486 608 454 l 608 510 q 600 600 608 562 q 423 259 511 427 z "},"":{"ha":986,"x_min":12,"x_max":951,"o":"m 609 1002 q 496 1026 569 1002 q 389 1050 423 1050 q 374 1032 377 1050 q 365 1015 372 1015 q 316 1013 348 1013 q 274 1012 283 1013 l 187 1012 q 174 1035 174 1017 q 228 1213 174 1154 q 380 1271 281 1271 q 473 1255 412 1272 l 519 1255 q 541 1243 528 1253 q 560 1232 555 1234 l 583 1232 q 586 1226 585 1226 q 593 1248 593 1235 l 616 1267 l 787 1267 q 799 1262 793 1267 q 805 1254 804 1257 q 810 1242 806 1251 q 609 1002 801 1002 m 593 1233 l 593 1234 l 593 1233 m 14 491 l 12 506 q 37 660 25 616 q 132 830 63 762 l 148 846 q 247 911 180 884 l 273 911 q 491 963 339 939 q 571 957 529 963 q 663 938 612 951 q 761 896 714 925 q 840 827 808 867 l 840 808 q 951 496 951 669 q 861 179 951 302 l 834 145 q 756 79 803 106 q 658 36 710 51 q 558 16 606 22 q 463 9 510 9 q 329 26 393 9 q 211 78 266 43 q 113 165 155 113 q 45 289 71 216 q 14 450 19 362 l 14 491 m 387 486 q 477 247 387 247 q 521 256 503 247 q 551 286 540 266 q 570 326 563 305 q 581 376 578 346 q 585 430 584 407 q 586 486 586 453 l 586 510 q 582 578 586 545 q 568 643 578 610 q 538 696 558 676 q 488 716 517 716 q 387 515 387 716 l 387 486 z "},"":{"ha":460,"x_min":-84,"x_max":540,"o":"m -84 803 l -84 911 q -68 993 -84 974 l 4 993 q 380 975 277 975 l 423 975 q 475 977 440 975 q 526 978 509 978 q 540 945 540 977 q 539 930 540 940 q 538 914 538 920 l 538 890 q 539 853 538 877 q 540 817 540 829 q 531 791 540 798 q 505 784 522 784 l -64 784 q -74 793 -67 787 q -84 803 -81 800 z "},"":{"ha":897,"x_min":16,"x_max":844,"o":"m 545 106 q 546 83 545 103 q 546 50 546 64 q 545 18 546 36 q 539 -9 543 1 q 529 -19 535 -19 q 452 -20 505 -19 q 374 -22 399 -22 q 323 -3 323 -22 l 323 127 q 324 325 323 195 q 326 521 326 454 q 267 525 293 522 q 207 535 240 528 q 148 553 174 542 q 97 582 123 564 q 54 626 71 601 q 27 687 37 650 q 16 768 16 723 q 25 840 16 807 q 48 897 35 873 q 86 940 62 921 q 130 970 109 958 q 183 990 151 982 q 238 1003 216 999 q 294 1009 260 1007 q 346 1011 329 1011 q 393 1012 363 1012 q 401 1012 399 1012 l 811 1012 q 823 1011 819 1012 q 833 1007 828 1010 q 841 996 839 1004 q 844 977 844 989 l 844 -5 q 819 -28 842 -24 q 743 -33 797 -33 l 684 -33 q 658 -32 675 -33 q 632 -31 640 -31 q 621 -25 627 -31 q 608 -11 614 -20 q 600 0 602 -2 l 600 43 q 605 440 600 172 q 610 838 610 708 l 545 838 l 545 106 z "},"":{"ha":987,"x_min":28,"x_max":955,"o":"m 955 468 q 900 201 955 317 q 737 20 844 85 q 483 -46 629 -46 q 353 -33 416 -46 q 231 9 290 -20 q 128 81 172 38 q 57 188 84 123 q 28 331 30 252 q 50 449 28 395 q 108 537 72 502 q 193 597 144 572 q 294 632 241 621 q 401 643 346 643 q 571 600 513 635 q 499 765 565 704 q 297 844 433 827 l 351 1039 q 418 1043 373 1043 q 850 868 730 1043 q 955 468 955 713 m 353 328 q 358 274 353 299 q 377 225 364 248 q 414 190 390 203 q 469 176 437 176 q 524 188 502 176 q 557 221 546 199 q 573 267 568 243 q 578 323 578 291 q 469 458 578 458 q 353 328 363 458 z "},"":{"ha":1801,"x_min":23,"x_max":1773,"o":"m 24 654 l 23 670 q 37 785 23 732 q 78 882 50 838 q 155 951 106 926 q 269 977 203 977 q 364 959 322 977 q 432 911 406 941 q 475 842 458 882 q 498 760 492 801 q 505 673 505 719 q 438 441 505 520 q 262 362 372 362 q 191 371 223 362 q 135 394 159 380 q 94 430 112 408 q 64 474 75 451 q 44 524 52 496 q 31 577 35 552 q 24 631 27 602 l 24 654 m 203 665 l 203 624 q 267 496 203 496 q 324 608 324 496 q 323 637 324 618 q 323 665 323 656 q 324 693 323 668 q 326 735 326 719 q 270 838 326 838 q 241 831 254 838 q 222 808 229 823 q 211 780 215 793 q 204 743 206 766 q 202 709 203 721 q 202 676 202 697 q 202 674 202 675 q 202 672 202 673 q 202 670 202 671 q 203 667 202 669 q 203 665 203 665 m 271 -11 q 497 399 351 133 q 681 732 644 666 l 811 971 q 857 979 816 979 l 905 979 q 921 981 909 979 q 941 982 933 982 q 965 974 956 982 q 979 944 974 966 q 654 346 792 599 q 448 -41 490 37 q 385 -60 439 -60 q 288 -57 361 -60 q 278 -31 283 -48 q 271 -11 273 -14 m 739 247 l 739 255 q 741 263 741 259 q 753 358 744 315 q 780 442 762 401 q 824 510 798 482 q 890 553 850 537 q 982 570 930 570 q 1084 550 1040 570 q 1154 501 1128 531 q 1195 429 1179 471 q 1216 348 1211 387 q 1221 263 1221 309 q 1156 37 1221 117 q 985 -42 1091 -42 q 870 -19 919 -42 q 793 46 821 5 q 752 137 766 87 q 739 247 739 187 m 917 239 q 919 190 917 210 q 926 144 920 169 q 947 106 932 119 q 985 92 962 92 q 1042 203 1042 92 l 1042 320 q 985 434 1042 434 q 917 292 917 434 l 917 239 m 1294 255 l 1294 263 q 1556 570 1304 570 q 1773 251 1773 570 q 1709 38 1773 117 q 1531 -41 1646 -41 q 1438 -23 1480 -41 q 1370 24 1396 -5 q 1326 92 1343 53 q 1301 171 1308 131 q 1294 255 1294 212 m 1473 266 l 1473 220 q 1538 91 1473 91 l 1538 92 q 1595 212 1595 92 q 1594 237 1595 220 q 1594 263 1594 254 q 1594 296 1594 274 q 1595 328 1595 317 q 1582 404 1595 373 q 1538 434 1569 434 l 1538 433 q 1514 427 1525 433 q 1497 409 1504 421 q 1486 386 1491 397 q 1479 355 1482 374 q 1476 325 1477 336 q 1474 293 1475 313 q 1473 266 1474 273 z "},"":{"ha":1076,"x_min":-12,"x_max":1081,"o":"m -12 719 q 13 753 -12 739 q 74 777 38 768 q 157 790 110 785 q 241 796 205 795 q 312 798 277 798 q 491 803 391 803 q 654 802 545 803 q 817 800 762 800 q 1055 807 955 800 q 1081 784 1077 803 l 1060 552 l 1032 529 l 1002 529 q 956 526 972 529 q 952 232 952 233 q 970 9 952 94 q 947 -22 970 -13 l 654 -22 q 628 5 638 -18 q 614 66 618 27 q 610 129 611 104 q 609 190 609 153 l 609 536 l 492 536 q 454 180 484 374 q 391 -14 424 -14 q 239 -11 339 -14 l 90 -11 q 81 8 81 -5 q 83 18 81 16 l 83 16 q 161 521 159 307 q 155 536 159 534 q 35 524 94 536 q 26 528 31 524 q 19 543 22 533 q 12 563 15 553 q 5 590 8 574 q 1 617 3 606 q -4 647 -1 629 q -7 675 -6 665 q -10 700 -8 684 q -12 719 -12 716 z "},"":{"ha":859,"x_min":54,"x_max":798,"o":"m 54 9 q 55 60 54 28 q 56 111 56 93 q 55 130 56 117 q 54 152 54 144 q 81 214 54 201 l 100 214 q 339 205 216 205 q 449 205 375 205 q 559 206 523 206 q 780 201 679 206 q 785 199 783 201 q 789 194 787 197 q 792 186 791 190 q 793 176 793 182 q 794 164 794 170 q 795 151 795 159 q 795 137 795 142 q 795 123 795 132 q 795 110 795 115 l 795 0 q 762 -16 793 -16 l 76 -16 l 54 3 l 54 9 m 57 456 l 57 637 q 71 654 58 648 q 106 662 84 661 q 146 664 127 664 q 185 663 164 664 q 209 662 207 662 l 311 662 l 311 684 q 310 714 311 696 q 310 742 310 732 q 310 765 309 752 q 313 785 311 779 q 319 799 315 792 q 330 808 323 806 q 347 811 337 811 l 505 811 q 523 810 516 811 q 536 805 529 810 q 543 792 543 801 l 543 656 l 779 656 q 793 648 789 654 q 798 627 798 642 l 798 467 q 779 441 798 441 l 537 441 l 537 296 l 488 296 q 415 294 463 296 q 345 293 368 293 q 320 309 320 293 l 320 312 q 317 434 317 340 q 270 437 285 437 l 221 437 q 176 435 205 437 q 130 434 146 434 l 100 434 q 57 456 57 434 z "},"":{"ha":1233,"x_min":12,"x_max":1226,"o":"m 12 1012 q 31 1034 12 1028 l 1202 1034 q 1220 1030 1215 1034 q 1226 1016 1226 1027 l 1226 765 l 1203 739 q 1182 740 1196 739 q 1161 741 1168 741 q 1061 727 1107 741 l 1061 -141 q 1042 -163 1058 -157 l 726 -163 q 730 496 730 0 q 727 750 730 665 l 494 750 q 506 194 506 513 l 506 132 q 492 -146 506 -146 l 190 -146 q 181 -131 184 -143 q 177 -97 178 -119 q 176 -59 176 -76 q 176 -16 176 -43 q 176 19 176 11 q 177 332 176 123 q 178 640 178 540 l 178 694 q 176 746 178 730 l 27 746 q 14 765 14 748 q 13 888 14 808 q 12 1012 12 968 z "},"":{"ha":760,"x_min":28,"x_max":741,"o":"m 282 631 q 312 648 282 648 l 391 648 q 511 651 431 648 q 631 654 591 654 q 651 575 651 650 l 651 552 q 633 474 651 511 q 587 410 614 438 q 532 356 560 382 q 481 298 505 330 q 450 232 457 266 q 524 187 458 187 q 709 228 620 189 l 741 202 l 741 -47 q 684 -92 741 -75 q 568 -115 627 -110 q 453 -119 509 -119 q 302 -108 366 -118 q 187 -71 239 -98 l 159 -56 q 71 27 101 -19 l 71 46 q 44 116 56 69 q 28 171 32 163 q 71 310 31 246 q 168 420 111 374 l 213 456 q 268 509 249 484 q 288 566 288 534 q 282 631 286 574 m 285 935 l 285 975 q 301 987 287 987 q 304 986 304 987 q 418 991 342 987 q 532 997 494 996 l 632 997 l 654 974 l 654 819 q 633 728 654 741 l 526 728 q 440 731 493 730 q 310 741 331 734 q 288 784 288 748 l 288 852 q 285 935 285 909 z "},"":{"ha":825,"x_min":-11,"x_max":829,"o":"m -11 -129 l 106 305 l 157 304 q 311 302 157 304 q 444 287 444 299 l 342 -11 q 339 -19 341 -14 q 325 -60 330 -45 q 311 -98 319 -75 q 294 -133 302 -121 q 279 -145 286 -145 l 11 -145 q 0 -137 7 -141 q -11 -129 -7 -134 m 381 -151 l 403 -26 q 418 40 410 -2 q 431 100 427 81 l 431 141 q 456 236 438 186 q 491 309 474 286 l 540 309 q 594 309 560 308 q 669 309 629 309 q 746 306 710 308 q 805 297 781 304 q 829 279 829 290 l 680 -136 q 563 -155 669 -155 l 381 -151 z "},"":{"ha":822,"x_min":-8,"x_max":880,"o":"m -8 604 l 90 871 l 90 911 q 125 983 100 945 q 159 1023 149 1021 l 263 1023 q 326 1022 303 1023 q 380 1021 349 1022 q 426 1016 411 1019 q 440 1008 440 1013 l 376 743 l 382 684 q 366 630 377 656 q 346 590 355 604 q 331 575 336 575 l 8 575 l -8 604 m 433 598 l 591 1032 q 641 1029 610 1031 q 694 1024 671 1026 q 745 1021 717 1023 q 796 1020 774 1020 q 868 1021 844 1020 q 873 1020 871 1021 q 877 1017 876 1019 q 878 1012 878 1015 q 879 1003 878 1009 q 880 993 880 998 l 834 797 q 820 723 825 749 q 805 656 814 696 q 785 595 795 615 q 765 575 775 576 q 562 570 627 570 q 507 570 543 570 q 453 571 471 571 l 433 598 z "},"":{"ha":825,"x_min":-11,"x_max":887,"o":"m -11 600 q 4 668 -8 611 q 30 779 17 725 q 58 892 43 833 q 89 988 74 951 q 114 1024 103 1024 l 443 1024 l 294 578 l 11 578 l -11 600 m 887 1001 l 887 996 q 845 877 872 954 q 796 738 819 801 q 754 620 774 675 l 754 583 q 575 564 744 564 q 522 565 555 564 q 477 566 489 566 l 458 566 q 434 591 445 574 l 467 716 q 487 812 472 736 q 517 942 501 888 q 556 1027 534 996 q 677 1025 595 1025 l 719 1025 q 887 1001 887 1025 z "},"":{"ha":492,"x_min":15,"x_max":469,"o":"m 15 610 l 167 1017 q 198 1025 172 1023 q 293 1027 223 1027 q 415 1021 361 1027 q 469 1002 469 1015 l 400 719 q 347 574 372 574 q 168 570 286 570 l 35 570 l 15 610 z "},"":{"ha":491,"x_min":14,"x_max":467,"o":"m 14 581 l 80 868 q 85 889 82 876 q 95 929 92 916 q 104 960 98 941 q 114 988 110 979 q 125 1006 119 996 q 140 1019 132 1016 q 159 1023 149 1023 l 353 1023 q 467 1004 467 1023 l 467 998 q 465 996 465 998 q 358 688 377 745 l 320 587 q 182 570 311 570 l 122 570 q 105 569 117 570 q 88 568 94 568 q 61 570 71 568 l 35 570 l 35 581 l 14 581 z "},"":{"ha":494,"x_min":22,"x_max":467,"o":"m 22 -152 l 65 90 q 72 117 66 92 q 80 155 77 142 q 90 194 83 168 q 102 236 97 220 q 113 269 106 251 q 124 294 119 286 q 133 302 129 302 q 170 302 145 303 q 203 301 195 301 l 271 301 q 306 302 278 301 q 353 302 334 302 q 467 282 467 302 l 467 274 q 358 -35 380 22 l 319 -134 q 171 -152 305 -152 l 22 -152 z "},"":{"ha":1057,"x_min":39,"x_max":1115,"o":"m 46 499 q 43 509 46 503 q 42 518 39 515 l 378 653 q 388 648 383 652 q 396 637 392 644 q 452 487 414 587 q 518 307 490 387 q 568 152 547 227 q 629 427 595 290 q 724 781 649 503 q 838 1218 799 1059 q 860 1240 844 1234 l 1042 1240 q 1057 1240 1052 1240 q 1068 1238 1062 1240 q 1076 1235 1074 1236 q 1084 1227 1078 1234 q 1092 1217 1090 1221 q 1102 1201 1094 1214 q 1115 1180 1109 1188 l 697 -203 q 611 -217 691 -217 q 604 -217 606 -217 q 524 -216 576 -217 q 444 -216 471 -216 l 203 391 l 95 347 q 88 351 92 347 q 81 361 85 354 q 74 375 77 368 q 67 394 71 382 q 60 414 63 406 q 53 437 58 422 q 46 458 49 451 l 46 499 z "},"":{"ha":1160,"x_min":34,"x_max":1131,"o":"m 34 499 q 67 692 34 602 q 155 845 100 782 q 281 954 210 909 q 428 1021 352 1000 q 578 1043 503 1043 q 789 1002 688 1043 q 965 890 890 962 q 1086 715 1041 819 q 1131 491 1131 611 q 1087 283 1131 382 q 970 113 1044 184 q 797 -1 897 41 q 589 -43 696 -43 q 424 -18 509 -43 q 266 54 340 7 q 172 134 212 89 q 107 223 131 180 q 67 319 83 267 q 44 412 51 372 q 34 499 38 452 m 582 882 q 316 778 422 882 q 209 510 209 674 q 234 366 209 435 q 306 245 260 297 q 421 161 352 193 q 572 130 490 130 q 768 181 682 130 q 903 323 855 233 q 951 526 951 414 q 899 715 951 633 q 765 840 848 798 q 582 882 682 882 m 399 755 q 587 760 578 760 q 725 725 671 760 q 779 623 779 691 q 765 545 779 577 q 731 499 752 513 q 694 480 711 486 q 662 475 677 475 l 766 281 l 762 256 q 748 255 762 256 q 714 253 734 254 q 678 252 694 252 l 569 465 l 499 464 l 499 415 q 496 298 499 335 l 496 260 q 464 255 496 255 q 437 256 458 255 q 399 256 415 256 l 399 755 m 499 553 q 543 552 509 553 q 600 551 578 551 q 660 563 638 551 q 681 608 681 574 q 656 661 681 650 q 570 673 631 673 q 534 671 545 673 l 499 671 l 499 553 z "},"":{"ha":406,"x_min":-1,"x_max":401,"o":"m -1 1115 q 18 1160 7 1132 q 36 1206 28 1187 q 58 1247 43 1225 q 89 1284 72 1270 q 133 1306 105 1297 q 198 1316 161 1316 q 341 1259 280 1316 q 401 1118 401 1202 q 343 977 401 1034 q 205 920 284 920 q 121 937 159 920 q 58 982 83 954 q 18 1044 33 1010 q -1 1115 3 1078 m 122 1124 q 149 1065 125 1086 q 205 1044 174 1044 q 255 1064 235 1044 q 274 1118 274 1083 q 252 1173 274 1153 q 201 1192 230 1192 q 150 1174 172 1192 q 122 1124 127 1156 z "},"":{"ha":964,"x_min":15,"x_max":966,"o":"m 15 -136 l 15 37 l 372 429 q 43 814 208 621 q 38 875 38 821 q 43 1023 38 1023 l 906 1023 q 919 1007 916 1022 q 922 960 922 992 l 922 761 l 499 761 l 762 463 l 471 130 l 941 130 q 966 111 964 128 l 966 -141 l 943 -156 l 33 -156 q 22 -152 25 -153 q 17 -147 20 -151 q 15 -136 15 -143 z "},"":{"ha":473,"x_min":-91,"x_max":545,"o":"m 345 916 q 232 939 304 916 q 125 963 159 963 q 110 945 113 963 q 100 928 107 928 q 51 926 83 926 q 9 925 19 926 l -77 925 q -91 948 -91 930 q -37 1126 -91 1067 q 115 1184 17 1184 q 209 1168 147 1185 l 255 1168 q 277 1156 263 1166 q 296 1145 290 1147 l 319 1145 q 321 1139 320 1139 q 328 1161 328 1148 l 351 1180 l 522 1180 q 534 1175 529 1180 q 541 1167 539 1171 q 545 1156 542 1164 q 345 916 536 916 m 328 1146 l 328 1147 l 328 1146 z "},"":{"ha":1405,"x_min":41,"x_max":1326,"o":"m 420 1027 q 457 1027 446 1027 q 485 1025 468 1027 q 507 1021 501 1023 q 522 1012 513 1018 q 534 998 532 1006 q 540 977 536 990 q 545 948 544 964 q 545 909 545 932 q 542 875 545 884 q 526 863 538 867 q 471 863 515 863 q 401 865 426 863 q 401 833 401 854 q 400 800 400 811 q 404 617 400 739 q 407 434 407 496 q 298 410 402 410 l 198 410 l 178 442 l 178 471 q 181 674 178 543 q 184 860 184 806 l 155 859 q 106 857 125 857 q 81 859 92 857 q 64 862 71 860 q 52 869 56 863 q 45 879 48 875 q 42 893 43 882 q 41 912 41 905 q 42 937 41 919 q 42 966 42 954 q 55 1016 42 1007 q 122 1025 68 1025 q 177 1024 140 1025 q 229 1023 213 1023 q 323 1025 258 1023 q 420 1027 387 1027 m 598 438 l 598 498 q 605 1006 604 837 q 618 1023 605 1023 q 850 1021 773 1023 q 866 1006 857 1021 q 885 959 874 991 q 902 908 896 927 q 920 848 907 888 q 941 781 925 824 q 963 713 958 737 l 1067 1028 q 1136 1026 1088 1028 q 1204 1024 1183 1024 l 1244 1024 q 1318 1015 1318 1024 q 1322 724 1318 916 q 1326 434 1326 532 q 1316 418 1324 422 q 1294 415 1309 415 l 1166 415 q 1141 425 1151 415 q 1126 453 1131 435 q 1119 491 1121 472 q 1118 534 1118 509 l 1118 632 l 1090 532 q 1057 441 1069 460 q 994 408 1038 412 q 971 407 983 407 q 931 408 958 407 q 891 410 905 410 q 860 452 871 426 q 839 517 848 477 q 822 575 829 556 l 807 627 q 805 566 806 605 q 804 494 804 526 q 803 433 803 462 q 782 416 801 419 q 730 412 762 412 l 651 412 q 609 417 620 412 q 598 438 598 422 z "},"":{"ha":1153,"x_min":53,"x_max":1095,"o":"m 53 16 l 53 140 l 393 1012 l 758 1011 l 1012 373 q 1029 329 1015 364 q 1049 278 1044 293 q 1066 232 1055 264 q 1082 180 1077 200 q 1090 133 1086 160 q 1095 83 1095 106 l 1095 16 l 53 16 m 349 236 l 368 206 q 480 203 441 203 q 618 206 529 203 l 757 206 q 774 235 774 211 l 667 502 q 578 792 608 652 q 571 797 575 795 q 562 800 567 798 l 349 236 z "},"":{"ha":1264,"x_min":60,"x_max":1196,"o":"m 808 26 l 808 917 q 819 927 809 922 q 831 933 829 931 l 1196 933 l 1196 50 q 1190 31 1193 36 q 1180 26 1187 26 l 808 26 m 60 57 l 60 917 q 66 933 60 928 q 79 938 73 938 q 100 939 85 939 l 741 939 q 749 937 746 939 q 755 933 753 935 q 758 928 757 932 q 759 922 758 924 q 759 916 759 920 q 758 911 758 912 l 758 681 l 441 681 l 441 656 q 444 613 441 648 l 507 613 q 542 617 517 614 q 581 621 566 621 l 636 621 q 665 623 655 621 q 715 616 692 623 q 741 601 739 609 l 741 562 q 739 522 741 549 q 738 481 738 495 l 738 420 q 739 401 739 415 l 739 374 q 697 353 736 353 l 654 353 q 588 351 631 353 q 521 350 545 350 l 445 350 l 445 27 l 77 27 l 60 57 z "},"":{"ha":1523,"x_min":60,"x_max":1519,"o":"m 831 27 q 825 33 829 30 q 815 46 821 37 l 815 339 q 820 516 815 397 q 825 697 825 635 q 822 755 825 711 q 819 825 819 799 q 842 941 819 920 q 1053 939 983 939 l 1118 939 q 1153 937 1141 939 q 1160 939 1154 939 q 1172 937 1161 939 q 1188 936 1182 936 q 1217 907 1205 934 l 1217 898 q 1216 876 1217 890 q 1215 854 1215 862 l 1215 825 q 1207 813 1215 821 q 1199 799 1199 804 l 1199 304 l 1487 304 q 1503 303 1497 304 q 1514 297 1508 302 q 1519 281 1519 292 l 1519 54 q 1454 27 1514 27 l 831 27 m 60 57 l 60 917 q 66 933 60 928 q 79 938 73 938 q 100 939 85 939 l 741 939 q 749 937 746 939 q 755 933 753 935 q 758 928 757 932 q 759 922 758 924 q 759 916 759 920 q 758 911 758 912 l 758 681 l 441 681 l 441 656 q 444 613 441 648 l 507 613 q 542 617 517 614 q 581 621 566 621 l 636 621 q 665 623 655 621 q 715 616 692 623 q 741 601 739 609 l 741 562 q 739 522 741 549 q 738 481 738 495 l 738 420 q 739 401 739 415 l 739 374 q 697 353 736 353 l 654 353 q 588 351 631 353 q 521 350 545 350 l 445 350 l 445 27 l 77 27 l 60 57 z "},"":{"ha":926,"x_min":-22,"x_max":951,"o":"m 171 1050 l 171 1092 q 177 1225 171 1162 q 195 1289 184 1289 l 418 1289 q 434 1256 434 1283 l 434 1039 q 369 1020 429 1020 q 343 1021 359 1020 q 321 1021 327 1021 q 252 1019 297 1021 q 193 1016 208 1017 q 171 1050 182 1034 m 543 1047 q 564 1289 543 1277 q 636 1286 613 1286 q 689 1287 654 1286 q 747 1289 724 1289 q 803 1272 800 1289 q 806 1042 806 1118 q 792 1025 802 1025 q 789 1027 789 1025 q 673 1021 749 1023 q 564 1016 598 1019 l 543 1043 l 543 1047 m 370 936 l 476 601 q 572 876 528 739 q 581 897 574 882 q 589 921 587 911 q 662 937 594 937 q 675 937 667 937 q 689 936 684 936 q 928 939 800 937 q 951 905 944 937 l 643 348 l 654 302 q 655 182 654 263 q 656 71 656 102 l 656 50 q 646 35 654 41 q 624 27 638 28 q 600 25 610 25 q 570 25 589 24 q 544 26 551 26 l 285 26 l 263 54 l 263 338 l 106 672 l 34 774 q -22 917 -22 885 q 11 936 -22 936 l 370 936 z "},"":{"ha":987,"x_min":-33,"x_max":1013,"o":"m -33 1000 q 14 1018 -33 1010 q 109 1025 61 1025 l 154 1025 l 191 1026 q 254 1027 227 1027 q 386 1006 375 1027 q 414 918 395 977 q 443 830 433 860 l 462 770 q 475 729 468 751 q 493 679 483 707 q 507 637 503 650 l 614 968 q 653 1013 626 1003 q 758 1023 681 1023 l 962 1023 q 979 1022 973 1023 q 995 1020 985 1022 q 1008 1013 1004 1018 q 1013 1001 1013 1008 q 968 924 998 975 q 924 846 939 873 l 813 564 l 842 559 q 861 560 848 559 q 880 562 874 562 q 901 515 901 557 q 902 494 901 508 q 902 471 902 481 q 902 447 903 460 q 901 424 902 433 q 897 405 899 414 q 890 391 895 396 q 880 385 886 386 l 721 385 q 698 277 709 346 q 829 281 745 281 q 891 272 878 281 q 905 233 905 262 q 905 217 905 228 q 904 201 904 206 l 904 148 q 895 107 904 116 q 861 98 886 98 l 692 98 l 692 0 q 679 -16 690 -10 q 649 -23 668 -22 q 614 -25 631 -25 q 575 -25 597 -26 q 543 -24 553 -24 l 303 -24 l 283 8 l 283 30 q 284 43 284 34 q 283 69 284 52 q 283 95 283 86 l 267 95 l 153 90 q 98 96 115 90 q 79 119 82 102 q 80 159 79 134 q 81 198 81 184 q 80 215 81 203 q 79 236 79 228 q 115 279 79 279 l 180 279 q 215 279 192 280 q 246 278 238 278 l 277 278 l 277 281 q 279 308 277 291 q 281 336 280 324 q 281 360 281 348 q 277 379 281 372 q 267 385 273 385 q 221 383 256 385 q 168 382 186 381 l 102 382 q 82 453 82 387 l 82 524 q 90 549 82 541 q 105 558 97 557 q 133 559 114 559 q 139 559 137 559 q 180 557 165 559 l 180 608 l -33 1000 z "},"":{"ha":1002,"x_min":134,"x_max":928,"o":"m 233 171 q 180 283 201 216 q 160 419 160 350 q 166 502 160 460 q 192 600 172 545 q 247 690 213 654 l 246 691 l 245 692 l 245 692 l 245 692 l 244 693 l 244 694 l 243 694 l 243 694 l 242 695 l 242 696 l 241 696 l 241 696 l 240 697 l 239 698 l 239 699 l 239 699 l 238 700 l 237 701 l 237 701 l 236 701 l 235 702 l 235 703 l 234 703 l 233 704 l 233 705 l 233 705 l 232 706 l 231 707 l 231 707 l 229 709 l 229 709 l 228 710 l 227 711 l 227 711 l 226 712 l 225 713 l 224 713 l 224 714 l 223 715 l 222 716 l 221 717 l 220 718 l 220 718 l 219 720 l 218 720 l 218 721 l 216 722 l 216 723 l 215 724 l 214 724 l 213 726 l 212 726 l 212 727 l 211 728 l 210 729 l 209 730 l 208 730 l 207 732 l 206 732 l 205 734 l 205 734 l 203 735 l 203 736 l 201 737 l 201 739 l 200 739 l 199 740 l 198 741 l 197 742 l 196 743 l 195 744 l 194 745 l 193 746 l 192 747 l 191 748 l 191 749 l 189 750 l 189 751 l 187 752 l 186 753 l 185 754 l 184 755 l 183 757 l 182 758 l 181 759 l 180 760 l 179 761 l 178 762 l 177 763 l 176 764 l 175 765 l 174 766 l 173 768 l 172 768 l 171 770 l 170 771 l 168 772 l 168 773 l 166 774 l 165 775 l 164 777 l 163 778 l 162 779 l 161 780 l 159 781 l 159 783 l 157 783 l 156 785 l 155 786 l 154 787 l 153 788 l 152 789 l 151 791 l 149 792 l 148 793 l 147 794 l 146 795 l 144 797 l 144 798 l 142 799 l 141 800 l 140 802 l 139 803 l 138 804 l 136 805 l 136 806 l 134 808 q 161 834 134 816 q 191 852 187 852 l 300 735 q 506 798 392 798 q 747 716 666 798 l 874 851 q 897 839 882 851 q 920 821 913 827 l 920 822 q 924 814 924 818 q 886 761 924 802 q 798 667 807 678 q 868 396 868 578 q 812 193 868 278 l 863 140 q 928 50 903 96 l 928 39 q 919 36 925 37 q 906 34 913 35 q 898 33 899 33 l 898 27 q 894 25 897 26 q 888 23 891 24 q 882 20 885 21 q 876 17 878 18 q 871 16 873 16 l 764 132 q 663 65 717 85 q 541 39 610 45 l 510 39 q 440 52 491 44 q 355 73 389 60 q 285 114 321 85 l 241 68 q 182 23 199 23 q 174 27 178 23 l 152 27 l 152 50 q 163 75 155 57 q 175 99 172 92 q 187 118 179 106 q 203 140 195 130 l 233 171 m 335 427 q 376 276 335 330 q 488 222 416 222 l 510 222 q 538 223 526 222 q 570 229 551 224 q 603 240 589 233 q 632 261 616 247 q 658 295 648 275 q 674 345 668 315 q 681 412 681 375 q 675 485 681 453 q 661 538 669 517 q 638 574 652 559 q 610 597 623 589 q 578 609 597 605 q 546 615 559 614 q 513 616 532 616 l 488 616 q 448 612 467 616 q 408 595 429 608 q 371 563 387 583 q 345 508 355 543 q 335 427 335 473 z "},"":{"ha":571,"x_min":56,"x_max":494,"o":"m 155 1153 q 154 1260 156 1192 q 153 1356 153 1329 q 172 1392 153 1392 l 398 1392 q 413 1358 413 1387 q 412 1346 413 1355 q 412 1332 412 1337 l 412 1274 q 414 1231 412 1259 q 416 1188 416 1202 l 416 1166 q 414 1143 414 1160 q 347 1123 410 1123 l 155 1123 l 155 1153 m 56 -18 q 65 271 58 180 q 73 849 65 556 q 71 933 71 906 l 71 954 q 68 1002 68 983 q 80 1025 68 1015 q 419 1017 191 1017 q 494 1020 473 1017 l 494 -18 l 56 -18 z "},"":{"ha":1006,"x_min":27,"x_max":993,"o":"m 297 -347 q 308 -312 297 -336 l 308 -293 q 319 -271 315 -279 q 333 -254 323 -264 q 353 -244 342 -245 l 396 -260 q 467 -274 434 -276 q 524 -247 524 -274 q 494 -231 522 -231 q 480 -233 486 -231 l 458 -233 l 458 -241 q 431 -236 440 -241 l 401 -214 q 382 -199 392 -210 q 368 -177 372 -189 l 454 -28 l 575 -28 q 597 -52 597 -31 q 591 -68 597 -58 q 577 -90 585 -78 q 567 -106 569 -101 q 681 -142 640 -106 q 722 -237 722 -178 q 690 -328 722 -290 q 608 -386 658 -367 q 498 -404 557 -404 q 365 -387 433 -404 q 297 -347 297 -370 m 494 -41 q 350 -27 414 -37 q 227 7 286 -16 q 127 66 168 31 q 60 157 87 102 q 27 286 33 213 q 41 301 27 299 q 54 300 45 300 q 225 302 111 300 q 396 305 340 305 q 418 296 410 305 q 432 274 427 287 q 444 247 437 260 q 468 225 451 234 q 513 216 486 216 q 571 234 546 216 q 597 285 597 253 q 575 323 597 306 q 518 352 553 341 q 450 371 482 363 q 384 385 418 379 q 345 392 350 391 q 107 503 180 437 q 35 685 35 570 q 65 831 35 766 q 143 937 95 896 q 257 1005 191 978 q 390 1044 323 1033 q 529 1055 457 1055 q 833 985 720 1055 q 893 922 874 943 q 931 872 913 901 q 956 816 949 844 q 966 749 963 789 l 941 724 q 629 719 802 719 q 594 724 608 719 q 577 736 581 728 q 568 751 572 743 q 560 767 564 760 q 544 779 556 774 q 513 784 532 784 q 495 782 507 784 q 468 775 484 780 q 440 762 452 771 q 429 741 429 753 q 444 713 429 726 q 476 696 459 701 q 518 684 493 690 q 549 675 543 677 q 726 629 697 638 q 936 507 874 583 q 993 330 993 436 q 976 212 993 265 q 932 123 960 159 q 865 58 905 86 q 782 12 824 29 q 688 -16 741 -5 q 590 -33 635 -28 q 494 -41 546 -38 z "},"":{"ha":1139,"x_min":28,"x_max":1093,"o":"m 463 1404 q 497 1395 484 1404 q 514 1372 509 1385 q 522 1346 518 1359 q 537 1323 526 1333 q 567 1314 547 1314 q 598 1325 587 1314 q 613 1349 610 1336 q 623 1377 616 1362 q 637 1396 629 1391 q 701 1394 660 1394 q 754 1393 741 1394 l 831 1393 q 859 1371 859 1393 q 800 1229 844 1287 q 695 1146 755 1171 q 562 1120 635 1120 q 364 1187 437 1120 q 263 1374 291 1254 l 263 1389 q 274 1396 264 1390 q 285 1404 283 1401 l 463 1404 m 28 507 q 50 679 28 601 q 105 811 71 757 q 190 907 140 865 q 291 975 239 949 q 403 1017 343 1000 q 515 1039 463 1033 q 621 1044 568 1044 q 698 1041 661 1044 q 783 1029 736 1038 q 871 1003 830 1021 q 950 960 912 985 q 1015 894 987 935 q 1055 803 1043 854 q 1069 692 1059 783 q 1025 671 1066 671 q 856 674 967 671 q 689 677 745 677 q 676 688 681 680 q 670 705 671 696 q 664 726 668 715 q 655 745 661 736 q 634 759 649 753 q 598 765 620 765 q 547 755 570 765 q 511 731 525 745 q 486 692 496 717 q 471 648 476 668 q 463 597 466 628 q 460 549 460 566 q 460 502 460 531 q 460 480 460 493 q 461 463 461 467 l 461 442 q 462 406 461 420 q 466 370 463 392 q 474 332 469 347 q 490 299 479 317 q 516 272 500 282 q 554 254 531 261 q 606 247 577 247 q 730 262 682 247 l 730 345 l 700 345 l 700 343 l 651 343 q 632 342 646 343 q 609 342 618 342 l 585 369 l 585 556 q 609 594 585 574 l 658 594 q 781 593 709 594 q 892 591 854 591 l 947 591 q 1008 591 986 591 q 1057 584 1030 590 q 1093 567 1084 578 q 1089 308 1093 478 q 1085 61 1085 138 q 1086 55 1085 59 q 1086 47 1086 50 l 1086 33 q 936 -15 1063 5 q 722 -35 808 -35 l 704 -35 q 648 -38 685 -35 q 591 -41 610 -41 q 173 105 318 -41 q 28 507 28 252 z "},"":{"ha":937,"x_min":-16,"x_max":962,"o":"m 285 1151 l 409 1324 q 425 1347 416 1333 q 439 1366 434 1360 q 456 1378 444 1371 q 489 1388 469 1385 q 542 1392 509 1390 l 783 1398 l 962 1148 q 957 1137 962 1142 q 944 1129 952 1132 q 924 1126 935 1126 l 878 1126 q 683 1120 770 1126 q 656 1142 667 1128 q 634 1178 646 1156 q 619 1207 623 1201 q 604 1183 616 1204 q 578 1144 592 1162 q 553 1126 564 1126 l 340 1126 q 301 1132 318 1126 q 285 1151 285 1139 m 423 -38 q 286 -28 348 -38 q 166 6 224 -18 q 70 71 109 31 q 7 173 31 110 q -16 319 -16 236 q 5 355 -16 355 l 315 355 q 346 345 336 355 q 358 320 356 335 q 362 290 360 305 q 372 265 363 275 q 399 255 380 255 q 426 264 416 255 q 441 292 437 273 q 447 323 446 310 q 448 358 448 337 l 448 363 q 444 552 447 412 q 441 770 441 692 l 441 1001 q 469 1024 441 1021 q 534 1023 491 1024 q 600 1023 578 1023 q 696 1023 632 1023 q 792 1024 760 1024 l 856 1024 q 878 1005 871 1024 q 877 972 876 993 q 876 939 877 951 l 876 905 q 869 533 869 696 l 869 320 q 853 210 869 260 q 810 123 837 159 q 745 58 783 87 q 667 12 707 29 q 583 -18 627 -6 q 499 -34 538 -29 q 423 -38 460 -38 z "},"":{"ha":582,"x_min":24,"x_max":548,"o":"m 24 244 l 24 435 q 46 505 24 505 q 434 506 302 505 q 483 505 467 506 l 529 505 q 548 414 548 501 l 548 269 q 529 244 545 244 q 287 237 447 244 q 49 231 127 231 l 49 244 l 24 244 z "},"":{"ha":945,"x_min":9,"x_max":930,"o":"m 345 1153 q 344 1260 346 1192 q 342 1356 342 1329 q 361 1392 342 1392 l 588 1392 q 603 1358 603 1387 q 602 1346 603 1355 q 602 1332 602 1337 l 602 1274 q 604 1231 602 1259 q 606 1188 606 1202 l 606 1166 q 604 1143 604 1160 q 536 1123 600 1123 l 345 1123 l 345 1153 m 9 11 l 9 33 q 12 170 9 91 q 16 250 14 250 q 36 273 17 249 q 107 362 55 298 q 214 495 159 427 l 412 736 q 231 734 351 736 q 49 732 111 732 q 36 743 39 735 q 33 765 33 751 l 33 846 q 30 895 33 853 q 27 960 27 937 q 41 1015 27 1015 q 713 1020 271 1015 l 857 1020 q 905 1013 897 1020 q 914 968 914 1006 q 913 944 914 959 q 911 928 911 930 l 911 924 q 904 818 911 865 q 888 742 897 772 q 858 679 879 711 q 820 628 836 646 q 769 571 804 609 q 712 507 734 534 l 515 274 l 906 274 q 918 263 913 274 q 925 231 923 253 q 927 192 927 208 q 928 146 928 176 l 928 84 q 929 60 928 78 q 930 33 930 42 q 920 -7 930 1 q 879 -16 909 -16 l 863 -16 q 466 -20 730 -16 q 71 -24 203 -24 q 37 -18 47 -24 q 9 11 27 -12 z "},"":{"ha":787,"x_min":75,"x_max":722,"o":"m 96 -16 q 79 54 79 12 q 77 122 79 77 q 75 187 75 167 l 363 380 l 382 412 q 431 505 431 461 q 419 535 431 524 q 388 547 408 547 q 346 510 354 547 l 346 469 l 79 469 q 100 571 81 526 q 147 646 118 616 q 216 695 176 675 q 301 724 256 715 q 399 732 347 732 q 516 720 461 732 q 616 681 571 707 q 687 612 661 656 q 713 511 713 568 q 699 424 713 463 q 655 355 684 385 q 598 302 627 325 q 530 249 570 279 q 464 193 490 218 q 563 194 496 193 q 665 195 629 195 q 710 174 698 195 q 722 111 722 153 q 720 68 722 98 q 719 20 719 37 l 719 11 q 700 -11 719 -11 l 665 -11 q 582 -9 633 -11 q 511 -7 531 -7 q 96 -16 292 -7 z "},"":{"ha":831,"x_min":81,"x_max":731,"o":"m 321 228 q 339 216 332 228 q 350 191 346 205 q 365 166 353 178 q 396 155 376 155 q 435 170 420 155 q 450 208 450 185 q 442 246 450 231 q 417 268 433 261 q 387 276 401 274 q 353 278 373 278 q 342 277 349 277 q 311 289 323 277 q 300 321 300 301 l 300 353 q 305 410 300 392 q 326 429 311 429 l 363 429 q 444 505 444 429 q 432 537 444 524 q 399 551 420 551 q 366 540 377 551 q 354 515 355 529 q 349 489 353 502 q 334 472 344 475 l 260 472 q 202 473 240 471 q 153 475 165 475 l 129 475 q 110 476 117 475 q 98 481 103 477 q 92 492 92 485 q 94 516 93 497 q 97 548 95 535 q 104 572 100 560 l 104 593 q 147 656 119 629 q 207 697 175 682 q 281 720 238 711 q 361 731 325 729 q 442 734 397 734 q 533 721 486 734 q 621 684 579 708 q 689 619 663 660 q 716 528 716 578 q 709 474 716 498 q 691 435 701 450 q 662 407 680 420 q 630 388 644 395 q 595 374 616 382 q 731 209 731 335 q 711 111 731 154 q 659 43 690 68 q 586 1 627 18 q 506 -21 544 -16 q 429 -27 467 -27 q 355 -25 388 -27 q 286 -17 323 -23 q 221 0 249 -11 q 166 28 193 10 q 122 72 139 47 q 93 132 104 96 q 81 213 82 168 q 95 228 81 228 l 321 228 z "},"":{"ha":1006,"x_min":55,"x_max":936,"o":"m 161 1063 l 285 1236 q 301 1258 292 1244 q 315 1278 310 1272 q 332 1290 320 1283 q 365 1299 345 1297 q 418 1303 385 1302 l 659 1310 l 838 1060 q 833 1049 838 1054 q 820 1041 828 1044 q 800 1038 811 1038 l 754 1038 q 559 1032 646 1038 q 532 1054 543 1040 q 510 1090 522 1067 q 495 1119 499 1113 q 480 1095 492 1116 q 454 1056 468 1074 q 429 1038 439 1038 l 216 1038 q 177 1044 194 1038 q 161 1063 161 1050 m 936 905 l 936 71 q 935 48 936 56 q 929 32 934 39 q 916 24 924 24 l 570 24 l 570 39 q 559 45 568 41 q 548 54 550 50 l 548 328 q 546 345 548 343 q 526 347 543 347 l 480 347 q 442 345 464 347 l 442 52 q 432 36 439 39 q 408 33 424 33 l 377 33 q 277 31 345 33 q 174 30 209 30 l 84 30 q 55 62 55 30 l 59 917 q 61 923 59 920 q 69 929 63 925 q 76 935 75 934 l 441 935 l 441 643 l 559 643 l 559 941 l 905 941 q 928 934 921 941 q 936 905 936 926 z "},"":{"ha":891,"x_min":19,"x_max":872,"o":"m 233 -298 q 243 -263 233 -288 l 243 -244 q 255 -222 251 -230 q 269 -205 259 -215 q 288 -195 278 -196 l 332 -212 q 402 -225 370 -227 q 459 -198 459 -225 q 429 -182 457 -182 q 416 -184 421 -182 l 394 -184 l 394 -193 q 367 -187 376 -193 l 337 -165 q 317 -151 328 -161 q 304 -128 307 -140 l 389 20 l 511 20 q 532 -3 532 18 q 527 -19 532 -9 q 513 -41 521 -29 q 503 -57 505 -52 q 616 -93 576 -57 q 657 -189 657 -130 q 625 -279 657 -241 q 543 -337 593 -318 q 433 -355 493 -355 q 300 -338 368 -355 q 233 -298 233 -321 m 586 670 q 556 675 568 670 q 538 689 545 681 q 523 705 531 697 q 496 719 514 713 q 449 724 477 724 q 428 723 440 724 q 400 713 415 721 q 385 694 385 706 q 398 672 385 682 q 426 660 410 663 q 462 651 442 656 q 490 642 482 646 l 590 617 q 669 591 634 605 q 744 554 705 578 q 810 503 784 531 q 854 431 837 474 q 872 336 872 388 q 856 225 872 274 l 856 227 q 816 149 842 183 q 755 92 790 115 q 684 54 720 69 q 601 30 648 39 q 516 16 553 20 q 431 8 479 12 q 145 76 218 19 l 145 84 q 54 184 83 130 q 19 307 24 239 q 34 323 19 323 q 46 322 38 323 q 58 321 54 321 l 127 321 q 155 323 137 323 l 172 323 q 182 321 178 323 q 316 323 221 323 l 347 323 q 368 315 361 323 q 380 295 376 307 q 390 271 385 283 q 411 251 396 259 q 450 243 426 243 q 498 257 477 243 q 519 297 519 271 q 508 320 519 309 q 473 340 496 331 q 432 354 450 349 q 384 367 414 359 q 345 377 353 374 l 304 377 q 92 487 157 420 q 27 656 27 554 q 53 779 27 724 q 120 867 78 833 q 218 925 161 902 q 332 959 274 949 q 453 968 391 968 q 658 931 564 968 q 802 836 753 895 q 830 791 819 818 q 844 748 841 764 q 852 694 847 732 l 833 667 l 718 667 q 654 669 699 667 q 586 670 610 670 z "},"":{"ha":1019,"x_min":27,"x_max":968,"o":"m 399 1316 q 434 1306 421 1316 q 451 1284 446 1297 q 459 1258 455 1271 q 474 1235 463 1244 q 504 1226 484 1226 q 535 1237 524 1226 q 550 1261 547 1248 q 559 1289 553 1274 q 574 1308 566 1303 q 637 1306 597 1306 q 691 1305 678 1305 l 768 1305 q 795 1283 795 1305 q 736 1141 781 1199 q 632 1058 692 1083 q 498 1032 572 1032 q 301 1099 374 1032 q 200 1286 228 1166 l 200 1301 q 211 1308 201 1302 q 222 1316 220 1313 l 399 1316 m 963 90 q 871 44 958 64 q 699 16 785 24 q 563 8 613 8 q 471 11 510 8 q 378 23 432 14 q 275 54 324 32 q 182 110 225 76 l 153 134 q 130 159 142 142 l 109 187 q 27 486 27 315 q 113 773 27 654 l 132 796 l 132 806 l 132 804 q 534 960 254 960 q 623 953 575 960 q 725 931 671 946 q 827 886 779 916 q 903 817 875 856 q 925 774 918 798 q 939 714 932 751 q 949 659 945 677 q 906 636 949 636 l 850 636 q 773 638 831 636 q 680 640 714 640 l 605 640 q 588 662 595 644 q 578 682 580 680 l 578 681 q 524 708 566 708 q 475 696 496 708 q 444 667 454 684 q 426 624 433 650 q 418 576 420 597 q 416 526 416 554 q 417 500 416 517 q 418 477 418 483 l 418 426 q 419 383 418 401 q 428 342 421 365 q 447 304 435 319 q 482 279 459 289 q 537 269 505 269 q 642 281 604 269 l 642 311 q 641 325 642 316 q 640 339 640 334 q 641 346 640 340 q 642 355 642 351 l 616 355 q 602 355 610 355 q 591 354 594 354 l 534 354 l 511 380 q 510 400 510 387 l 510 442 q 511 467 510 450 q 511 495 511 484 l 511 514 q 512 520 511 515 q 513 529 513 525 l 513 534 q 517 554 513 547 q 536 570 522 562 l 600 570 q 620 567 606 570 l 681 567 q 781 564 749 564 l 846 564 q 968 545 949 564 q 966 347 968 480 q 963 149 963 214 l 963 90 z "},"":{"ha":833,"x_min":-16,"x_max":770,"o":"m 40 1041 l 164 1214 q 180 1237 172 1223 q 194 1256 189 1251 q 212 1268 199 1261 q 244 1278 224 1275 q 297 1282 264 1280 l 538 1289 l 717 1038 q 712 1027 717 1032 q 699 1019 707 1022 q 680 1016 690 1016 l 633 1016 q 438 1010 525 1016 q 412 1032 422 1019 q 390 1068 401 1046 q 374 1097 378 1091 q 359 1073 372 1095 q 333 1034 347 1052 q 308 1016 319 1016 l 95 1016 q 57 1022 73 1016 q 40 1041 40 1029 m 770 326 q 747 214 770 266 q 684 126 723 162 q 596 64 646 90 q 495 26 547 38 q 393 14 443 14 l 372 14 q 355 13 366 14 q 339 12 345 12 q 58 114 153 12 l 58 113 q -16 301 -16 193 l -16 326 q -13 348 -16 341 q 3 355 -9 355 l 52 355 q 163 357 89 355 q 275 358 238 358 q 309 346 299 358 q 317 319 318 334 q 323 292 317 304 q 347 279 330 279 q 370 289 362 279 q 379 309 378 298 q 382 337 381 319 q 384 361 382 354 l 384 406 q 385 589 384 467 q 387 776 387 712 l 387 819 q 386 840 387 827 q 385 860 385 852 l 385 901 q 389 925 385 917 q 407 939 393 932 l 726 939 q 770 920 766 939 l 770 326 m 388 363 q 385 359 384 362 l 388 359 l 388 363 z "},"":{"ha":1763,"x_min":63,"x_max":1619,"o":"m 994 -20 q 977 51 977 9 q 975 119 977 74 q 972 184 972 163 l 1261 376 l 1280 409 q 1329 501 1329 458 q 1317 532 1329 520 q 1286 543 1305 543 q 1244 507 1252 543 l 1244 466 l 977 466 q 998 568 979 523 q 1045 642 1016 612 q 1114 692 1074 672 q 1199 721 1154 712 q 1297 729 1244 729 q 1414 716 1359 729 q 1514 678 1469 703 q 1585 609 1559 652 q 1611 508 1611 565 q 1596 420 1611 459 q 1553 351 1581 381 q 1496 299 1525 321 q 1428 245 1468 276 q 1362 189 1388 215 q 1460 191 1394 189 q 1563 192 1527 192 q 1608 171 1596 192 q 1619 108 1619 150 q 1618 64 1619 95 q 1617 17 1617 34 l 1617 7 q 1598 -14 1617 -14 l 1563 -14 q 1480 -12 1531 -14 q 1409 -10 1429 -10 q 994 -20 1190 -10 m 483 11 q 492 39 488 30 q 867 1044 667 518 q 930 1055 871 1055 q 984 1054 951 1055 q 1021 1053 1016 1053 l 1044 1053 q 1076 1048 1066 1053 q 1085 1029 1085 1043 q 1078 992 1085 1015 q 1058 937 1070 968 q 1042 894 1046 906 q 833 274 871 388 l 757 66 q 748 40 753 57 q 741 15 743 23 q 730 -6 738 6 q 713 -24 723 -18 q 686 -35 703 -30 q 646 -41 669 -40 l 618 -41 q 575 -43 602 -43 l 506 -43 q 483 11 498 -29 m 250 408 q 217 417 228 408 q 207 446 207 425 q 210 655 207 519 q 212 863 212 790 q 79 798 148 821 q 63 811 65 798 l 63 879 q 68 1009 63 1009 l 158 1051 q 228 1088 192 1064 q 277 1137 263 1112 q 397 1134 356 1134 q 422 1135 406 1134 q 448 1135 439 1135 l 467 1135 q 486 1137 479 1135 q 494 1133 492 1136 q 497 1124 496 1129 q 497 1107 497 1120 l 497 1048 q 496 961 497 1019 q 494 873 494 903 q 498 650 494 800 q 501 426 501 500 q 433 408 501 408 q 408 410 416 408 l 386 410 q 332 409 368 410 q 277 408 296 408 l 250 408 z "},"":{"ha":842,"x_min":5,"x_max":822,"o":"m 5 57 l 5 99 q 6 119 5 104 q 7 141 7 133 l 7 176 q 14 271 7 264 q 290 608 106 378 l 348 675 q 249 675 330 676 q 146 674 168 674 l 129 674 q 106 673 121 674 q 84 673 92 673 l 41 673 q 24 696 24 681 l 24 930 l 776 930 q 792 930 788 930 q 802 926 796 930 q 808 914 807 922 q 810 891 810 906 q 808 871 810 883 q 807 857 807 860 l 810 849 q 809 800 810 824 q 808 760 809 777 q 807 732 808 744 q 806 713 806 720 q 806 705 806 706 q 800 689 800 691 l 800 678 q 655 515 750 621 q 524 366 561 409 l 494 328 l 461 293 l 800 293 q 822 239 822 293 l 822 62 q 813 35 822 42 q 784 27 804 27 l 26 27 q 14 42 22 31 q 5 57 6 52 m 296 1050 q 295 1157 296 1088 q 293 1253 293 1225 q 312 1289 293 1289 l 538 1289 q 553 1255 553 1284 q 553 1243 553 1252 q 552 1229 552 1234 l 552 1171 q 554 1128 552 1156 q 556 1085 556 1099 l 556 1063 q 555 1040 555 1057 q 487 1020 550 1020 l 296 1020 l 296 1050 z "},"":{"ha":1055,"x_min":27,"x_max":1036,"o":"m 407 1153 q 406 1260 408 1192 q 404 1356 404 1329 q 423 1392 404 1392 l 650 1392 q 665 1358 665 1387 q 664 1346 665 1355 q 663 1332 663 1337 l 663 1274 q 665 1231 663 1259 q 667 1188 667 1202 l 667 1166 q 666 1143 666 1160 q 598 1123 661 1123 l 407 1123 l 407 1153 m 1036 363 q 983 183 1025 262 q 875 56 941 105 q 725 -18 809 7 q 543 -43 642 -43 q 374 -23 450 -43 q 246 30 298 -3 q 154 111 194 63 q 90 209 114 159 q 52 320 66 260 q 32 432 37 380 q 27 540 27 484 l 27 600 q 73 778 34 699 q 169 905 113 857 q 298 986 225 954 q 439 1030 370 1018 q 575 1043 507 1043 q 768 1017 684 1043 q 905 943 852 991 q 987 834 958 896 q 1025 697 1017 773 l 1025 632 q 876 610 1025 610 q 778 612 841 610 q 696 613 715 613 q 686 612 692 613 q 675 612 679 612 q 649 626 658 612 q 636 662 640 641 q 629 704 633 683 q 611 740 625 725 q 572 754 597 754 q 530 746 548 754 q 500 721 511 738 q 483 686 490 703 q 472 640 475 668 q 468 592 469 612 q 467 541 467 573 q 465 494 466 509 q 464 464 465 486 q 463 429 463 442 q 552 255 463 260 q 592 273 576 255 q 613 312 608 290 q 627 358 619 334 q 643 391 634 382 l 1012 391 q 1036 363 1034 389 z "},"":{"ha":1055,"x_min":27,"x_max":1036,"o":"m 193 1151 l 317 1324 q 334 1347 325 1333 q 348 1366 342 1360 q 365 1378 353 1371 q 397 1388 377 1385 q 450 1392 417 1390 l 691 1398 l 870 1148 q 865 1137 870 1142 q 852 1129 861 1132 q 833 1126 844 1126 l 787 1126 q 591 1120 678 1126 q 565 1142 576 1128 q 543 1178 554 1156 q 528 1207 532 1201 q 513 1183 525 1204 q 486 1144 500 1162 q 461 1126 472 1126 l 248 1126 q 210 1132 227 1126 q 193 1151 193 1139 m 1036 363 q 983 183 1025 262 q 875 56 941 105 q 725 -18 809 7 q 543 -43 642 -43 q 374 -23 450 -43 q 246 30 298 -3 q 154 111 194 63 q 90 209 114 159 q 52 320 66 260 q 32 432 37 380 q 27 540 27 484 l 27 600 q 73 778 34 699 q 169 905 113 857 q 298 986 225 954 q 439 1030 370 1018 q 575 1043 507 1043 q 768 1017 684 1043 q 905 943 852 991 q 987 834 958 896 q 1025 697 1017 773 l 1025 632 q 876 610 1025 610 q 778 612 841 610 q 696 613 715 613 q 686 612 692 613 q 675 612 679 612 q 649 626 658 612 q 636 662 640 641 q 629 704 633 683 q 611 740 625 725 q 572 754 597 754 q 530 746 548 754 q 500 721 511 738 q 483 686 490 703 q 472 640 475 668 q 468 592 469 612 q 467 541 467 573 q 465 494 466 509 q 464 464 465 486 q 463 429 463 442 q 552 255 463 260 q 592 273 576 255 q 613 312 608 290 q 627 358 619 334 q 643 391 634 382 l 1012 391 q 1036 363 1034 389 z "}}}
